<svg width="32" height="32" viewBox="0 0 32 32" fill="none" xmlns="http://www.w3.org/2000/svg">
<path d="M16.0052 28C16.0052 28 25.3385 21.5385 25.3385 13.2308C25.3385 10.7826 24.3552 8.43474 22.6049 6.70363C20.8545 4.97252 18.4806 4 16.0052 4C13.5299 4 11.1559 4.97252 9.40554 6.70363C7.65521 8.43474 6.67188 10.7826 6.67188 13.2308C6.67188 21.5385 16.0052 28 16.0052 28Z" fill="#7A9CD2"/>
<path d="M15.9948 14.6693C17.4676 14.6693 18.6615 13.4754 18.6615 12.0026C18.6615 10.5298 17.4676 9.33594 15.9948 9.33594C14.522 9.33594 13.3281 10.5298 13.3281 12.0026C13.3281 13.4754 14.522 14.6693 15.9948 14.6693Z" fill="#FFFDFD"/>
</svg>
