<svg width="108" height="31" viewBox="0 0 108 31" fill="none" xmlns="http://www.w3.org/2000/svg">
<path d="M58.135 26.3424C58.3793 26.3424 58.5805 26.4207 58.7386 26.5772C58.911 26.7479 58.9972 26.9542 58.9972 27.196C58.9972 27.4379 58.911 27.6371 58.7386 27.7936C58.5805 27.9643 58.3793 28.0496 58.135 28.0496C57.2297 28.0496 56.3746 27.8789 55.5699 27.5375C54.7795 27.196 54.0897 26.7337 53.5005 26.1504C52.9113 25.5671 52.4443 24.8842 52.0994 24.1017C51.7545 23.3192 51.582 22.4798 51.582 21.5835V4.72471C51.582 4.48285 51.6611 4.28367 51.8191 4.12718C51.9916 3.95646 52.2 3.87109 52.4443 3.87109C52.6886 3.87109 52.8898 3.95646 53.0478 4.12718C53.2203 4.28367 53.3065 4.48285 53.3065 4.72471V21.5835C53.3065 22.238 53.4286 22.8497 53.6729 23.4188C53.9316 24.0021 54.2765 24.5071 54.7076 24.934C55.1531 25.375 55.6705 25.7164 56.2596 25.9583C56.8488 26.2144 57.474 26.3424 58.135 26.3424Z" fill="#D7D5D6"/>
<path d="M45.8669 9.35742C46.1137 9.35742 46.3169 9.44319 46.4766 9.61474C46.6508 9.78628 46.7379 9.99356 46.7379 10.2366V21.5583C46.7379 22.4589 46.5637 23.3024 46.2153 24.0886C45.8669 24.8748 45.3951 25.561 44.7998 26.1471C44.2046 26.7332 43.5077 27.1978 42.7093 27.5409C41.9108 27.884 41.0542 28.0555 40.1396 28.0555C39.8928 28.0555 39.6823 27.9697 39.5081 27.7982C39.3339 27.6409 39.2468 27.4408 39.2468 27.1978C39.2468 26.9548 39.3339 26.7475 39.5081 26.5759C39.6823 26.4187 39.8928 26.3401 40.1396 26.3401C40.8074 26.3401 41.4317 26.2114 42.0124 25.9541C42.6076 25.7111 43.123 25.368 43.5586 24.9249C44.0086 24.496 44.357 23.9885 44.6038 23.4024C44.8652 22.8306 44.9958 22.2159 44.9958 21.5583V20.3147C44.3861 20.9579 43.6602 21.4726 42.8182 21.8585C41.9906 22.2302 41.0978 22.4161 40.1396 22.4161C39.225 22.4161 38.3612 22.2445 37.5482 21.9014C36.7497 21.5583 36.0529 21.0938 35.4577 20.5077C34.8624 19.9215 34.3906 19.2354 34.0422 18.4491C33.6937 17.6486 33.5195 16.7981 33.5195 15.8975V10.2366C33.5195 9.99356 33.5994 9.78628 33.7591 9.61474C33.9333 9.44319 34.1438 9.35742 34.3906 9.35742C34.6374 9.35742 34.8406 9.44319 35.0003 9.61474C35.1746 9.78628 35.2617 9.99356 35.2617 10.2366V15.8975C35.2617 16.555 35.3851 17.1769 35.6319 17.763C35.8932 18.3491 36.2416 18.8637 36.6771 19.3069C37.1272 19.7357 37.6498 20.0788 38.2451 20.3361C38.8403 20.5791 39.4718 20.7006 40.1396 20.7006C40.8074 20.7006 41.4317 20.5791 42.0124 20.3361C42.6076 20.0788 43.123 19.7357 43.5586 19.3069C44.0086 18.8637 44.357 18.3491 44.6038 17.763C44.8652 17.1769 44.9958 16.555 44.9958 15.8975V10.2366C44.9958 9.99356 45.0757 9.78628 45.2354 9.61474C45.4096 9.44319 45.6201 9.35742 45.8669 9.35742Z" fill="#D7D5D6"/>
<path d="M27.8264 9.35742C28.0707 9.35742 28.2719 9.4424 28.43 9.61235C28.6024 9.76814 28.6886 9.96642 28.6886 10.2072C28.6886 10.448 28.6024 10.6533 28.43 10.8233C28.2719 10.9791 28.0707 11.057 27.8264 11.057C27.1654 11.057 26.5402 11.1844 25.9511 11.4394C25.3619 11.6801 24.8445 12.02 24.399 12.4591C23.9679 12.884 23.623 13.3867 23.3644 13.9674C23.1201 14.5339 22.9979 15.1429 22.9979 15.7944V21.4029C22.9979 21.6436 22.9117 21.849 22.7392 22.019C22.5812 22.1747 22.38 22.2526 22.1357 22.2526C21.8914 22.2526 21.683 22.1747 21.5106 22.019C21.3525 21.849 21.2734 21.6436 21.2734 21.4029V15.7944C21.2734 14.9022 21.4459 14.0666 21.7908 13.2876C22.1357 12.5086 22.6027 11.8288 23.1919 11.2482C23.7811 10.6675 24.4709 10.2072 25.2613 9.86728C26.066 9.52738 26.9211 9.35742 27.8264 9.35742Z" fill="#D7D5D6"/>
<path d="M64.8102 20.5531C65.4617 20.5531 66.0708 20.4327 66.6373 20.192C67.218 19.937 67.7208 19.5971 68.1457 19.1722C68.5848 18.7332 68.9247 18.2233 69.1655 17.6427C69.4205 17.062 69.5479 16.4459 69.5479 15.7944C69.5479 15.1429 69.4205 14.5339 69.1655 13.9674C68.9247 13.3867 68.5848 12.884 68.1457 12.4591C67.7208 12.02 67.218 11.6801 66.6373 11.4394C66.0708 11.1844 65.4617 11.057 64.8102 11.057C64.1587 11.057 63.5425 11.1844 62.9618 11.4394C62.3811 11.6801 61.8712 12.02 61.4322 12.4591C61.0072 12.884 60.6673 13.3867 60.4124 13.9674C60.1716 14.5339 60.0512 15.1429 60.0512 15.7944C60.0512 16.4459 60.1716 17.062 60.4124 17.6427C60.6673 18.2233 61.0072 18.7332 61.4322 19.1722C61.8712 19.5971 62.3811 19.937 62.9618 20.192C63.5425 20.4327 64.1587 20.5531 64.8102 20.5531ZM64.8102 9.35742C65.7025 9.35742 66.5382 9.52738 67.3172 9.86728C68.0962 10.2072 68.776 10.6675 69.3567 11.2482C69.9374 11.8288 70.3978 12.5086 70.7377 13.2876C71.0776 14.0666 71.2476 14.9022 71.2476 15.7944V21.4029C71.2476 21.6436 71.1626 21.849 70.9926 22.019C70.8368 22.1747 70.6385 22.2526 70.3978 22.2526C70.157 22.2526 69.9516 22.1747 69.7816 22.019C69.6258 21.849 69.5479 21.6436 69.5479 21.4029V20.1707C68.9531 20.808 68.2449 21.3179 67.4234 21.7003C66.6161 22.0685 65.745 22.2526 64.8102 22.2526C63.9179 22.2526 63.0751 22.0827 62.282 21.7428C61.503 21.4029 60.8231 20.9426 60.2424 20.3619C59.6617 19.7812 59.2014 19.1014 58.8615 18.3225C58.5215 17.5294 58.3516 16.6867 58.3516 15.7944C58.3516 14.9022 58.5215 14.0666 58.8615 13.2876C59.2014 12.5086 59.6617 11.8288 60.2424 11.2482C60.8231 10.6675 61.503 10.2072 62.282 9.86728C63.0751 9.52738 63.9179 9.35742 64.8102 9.35742Z" fill="#D7D5D6"/>
<path d="M101.56 20.5531C102.212 20.5531 102.821 20.4327 103.387 20.192C103.968 19.937 104.471 19.5971 104.896 19.1722C105.335 18.7332 105.675 18.2233 105.916 17.6427C106.17 17.062 106.298 16.4459 106.298 15.7944C106.298 15.1429 106.17 14.5339 105.916 13.9674C105.675 13.3867 105.335 12.884 104.896 12.4591C104.471 12.02 103.968 11.6801 103.387 11.4394C102.821 11.1844 102.212 11.057 101.56 11.057C100.909 11.057 100.293 11.1844 99.7118 11.4394C99.1311 11.6801 98.6212 12.02 98.1822 12.4591C97.7572 12.884 97.4173 13.3867 97.1624 13.9674C96.9216 14.5339 96.8012 15.1429 96.8012 15.7944C96.8012 16.4459 96.9216 17.062 97.1624 17.6427C97.4173 18.2233 97.7572 18.7332 98.1822 19.1722C98.6212 19.5971 99.1311 19.937 99.7118 20.192C100.293 20.4327 100.909 20.5531 101.56 20.5531ZM101.56 9.35742C102.453 9.35742 103.288 9.52738 104.067 9.86728C104.846 10.2072 105.526 10.6675 106.107 11.2482C106.687 11.8288 107.148 12.5086 107.488 13.2876C107.828 14.0666 107.998 14.9022 107.998 15.7944V21.4029C107.998 21.6436 107.913 21.849 107.743 22.019C107.587 22.1747 107.389 22.2526 107.148 22.2526C106.907 22.2526 106.702 22.1747 106.532 22.019C106.376 21.849 106.298 21.6436 106.298 21.4029V20.1707C105.703 20.808 104.995 21.3179 104.173 21.7003C103.366 22.0685 102.495 22.2526 101.56 22.2526C100.668 22.2526 99.8251 22.0827 99.032 21.7428C98.253 21.4029 97.5731 20.9426 96.9924 20.3619C96.4117 19.7812 95.9514 19.1014 95.6115 18.3225C95.2715 17.5294 95.1016 16.6867 95.1016 15.7944C95.1016 14.9022 95.2715 14.0666 95.6115 13.2876C95.9514 12.5086 96.4117 11.8288 96.9924 11.2482C97.5731 10.6675 98.253 10.2072 99.032 9.86728C99.8251 9.52738 100.668 9.35742 101.56 9.35742Z" fill="#D7D5D6"/>
<path fill-rule="evenodd" clip-rule="evenodd" d="M83.0852 20.4742C85.9597 20.4742 88.29 18.1768 88.29 15.3429C88.29 12.5089 85.9597 10.2115 83.0852 10.2115C80.2106 10.2115 77.8803 12.5089 77.8803 15.3429C77.8803 18.1768 80.2106 20.4742 83.0852 20.4742ZM90.0854 15.3429C90.0854 19.1543 86.9513 22.2441 83.0852 22.2441C79.219 22.2441 76.0849 19.1543 76.0849 15.3429C76.0849 11.5314 79.219 8.44158 83.0852 8.44158C85.1515 8.44158 87.0087 9.32419 88.29 10.7279V6.46441C86.8816 6.07785 85.8481 4.80406 85.8481 3.29229C85.8481 1.47394 87.3433 -0.0001223 89.1877 -0.0001223C91.0321 -0.0001223 92.5273 1.47394 92.5273 3.29229C92.5273 4.80406 91.4938 6.07785 90.0854 6.46441V15.3428V15.3429ZM89.1877 4.81474C90.0406 4.81474 90.732 4.13312 90.732 3.29229C90.732 2.45147 90.0406 1.76985 89.1877 1.76985C88.3348 1.76985 87.6434 2.45147 87.6434 3.29229C87.6434 4.13312 88.3348 4.81474 89.1877 4.81474Z" fill="#D7D5D6"/>
<path fill-rule="evenodd" clip-rule="evenodd" d="M9.44218 10.4809C6.5676 10.4809 4.2373 12.7783 4.2373 15.6122C4.2373 18.4462 6.5676 20.7435 9.44218 20.7435C12.3168 20.7435 14.6471 18.4462 14.6471 15.6122C14.6471 12.7783 12.3168 10.4809 9.44218 10.4809ZM2.44195 15.6122C2.44195 11.8007 5.57606 8.71094 9.44218 8.71094C13.3083 8.71094 16.4424 11.8007 16.4424 15.6122C16.4424 19.4237 13.3083 22.5135 9.44218 22.5135C7.37587 22.5135 5.51867 21.6309 4.2373 20.2272V24.4907C5.64574 24.8772 6.67925 26.151 6.67925 27.6628C6.67925 29.4811 5.18405 30.9552 3.33962 30.9552C1.4952 30.9552 0 29.4811 0 27.6628C0 26.151 1.0335 24.8772 2.44195 24.4907V15.6123V15.6122ZM3.33962 26.1403C2.48674 26.1403 1.79535 26.822 1.79535 27.6628C1.79535 28.5036 2.48674 29.1852 3.33962 29.1852C4.1925 29.1852 4.8839 28.5036 4.8839 27.6628C4.8839 26.822 4.1925 26.1403 3.33962 26.1403Z" fill="#D7D5D6"/>
</svg>
