<svg width="109" height="28" viewBox="0 0 109 28" fill="none" xmlns="http://www.w3.org/2000/svg">
<g clip-path="url(#clip0_6329_4576)">
<path fill-rule="evenodd" clip-rule="evenodd" d="M26.322 0L25.2589 4.71152H18.4881C12.2213 4.71152 8.77035 8.76843 8.77035 16.135C8.77035 20.8804 10.7704 22.6448 16.1498 22.6448H21.2545L20.2107 27.3567H11.3308C3.45555 27.3567 0.789062 24.8368 0.789062 17.4259C0.789062 11.4133 2.67573 5.9923 5.75207 3.11297C8.09037 0.932256 11.4121 0 16.8677 0H26.322ZM27.4329 6.68719C31.9754 6.68719 33.6171 8.06809 33.6171 11.8542C33.6171 17.4743 30.4745 20.6688 24.9588 20.6688L16.6193 20.6695C12.0772 20.6695 10.5159 19.4663 10.5159 15.9951C10.5159 9.96042 13.4763 6.68719 18.9109 6.68719H27.4329ZM43.003 6.68719L46.9517 14.753L48.8665 6.68719H54.2866L50.9824 20.6695H45.3403L40.6049 11.4009L38.4289 20.6695H33.0092L36.2936 6.68719H43.003ZM66.1574 6.68719C70.8514 6.68719 72.7208 7.90951 72.7208 10.9472C72.7208 13.7469 70.9331 15.5615 67.539 16.2521L69.7428 18.9075L75.6631 11.0063C78.7168 6.91374 78.982 6.69696 83.424 6.68758L90.7622 6.68719L87.4299 20.6695H81.6993L82.2879 18.1654H76.2533L74.4637 20.6695H68.7385C65.5273 20.6695 65.3851 20.5912 63.7799 18.0069L61.0361 13.5304H65.0399C66.6244 13.5304 67.3967 12.9 67.3967 11.6374C67.3967 10.7499 66.5435 10.2765 64.9172 10.2765H61.2808L58.8009 20.6695H53.0708L56.4031 6.68719H66.1574ZM103.341 6.68719C107.309 6.68719 109 8.20584 109 11.7952C109 17.593 106.141 20.6695 100.762 20.6695H88.9384L92.2223 6.68719H103.341ZM20.8775 10.3942C17.9373 10.3942 16.2474 12.0512 16.2474 15.0687C16.2474 16.784 17.0457 17.2973 19.5794 17.2973L23.2762 17.2976C26.0541 17.2976 27.555 15.6204 27.555 12.4853C27.555 10.8284 26.9469 10.3946 24.6152 10.3946L20.8775 10.3942ZM100.278 10.2765H97.0566L95.4447 17.0809H99.3124C101.689 17.0809 103.179 15.3058 103.179 12.4854C103.179 10.7499 102.555 10.2765 100.278 10.2765ZM83.989 10.2765H83.6032C81.8351 10.2765 81.4689 10.4934 80.2494 12.2885L78.5434 14.753H82.9325L83.989 10.2765Z" fill="#D7D5D6"/>
</g>
<defs>
<clipPath id="clip0_6329_4576">
<rect width="108.211" height="27.3567" fill="white" transform="translate(0.789062)"/>
</clipPath>
</defs>
</svg>
