<svg width="108" height="23" viewBox="0 0 108 23" fill="none" xmlns="http://www.w3.org/2000/svg">
<g clip-path="url(#clip0_6329_4554)">
<path d="M43.5195 0.414062H48.1107L53.5715 8.67208L48.0862 21.3229H43.8913L49.2208 9.03189L43.5195 0.414062Z" fill="#D7D5D6"/>
<path d="M65.556 0.414062H61.3548L56.1094 12.5129L61.9368 21.3229H66.528L60.4663 12.1525L65.556 0.414062Z" fill="#D7D5D6"/>
<path d="M0 14.9733H3.55263L3.58901 15.2377L3.63107 15.4895L3.67882 15.7356L3.73907 15.9698L3.80501 16.1915L3.88289 16.4018L3.96701 16.6059L4.06307 16.798L4.16482 16.9839L4.27282 17.1515L4.38707 17.3198L4.51326 17.4699L4.64514 17.6199L4.78326 17.7518L4.92707 17.8842L5.07714 17.9979L5.23289 18.1122L5.39545 18.2139L5.56314 18.3043L5.73708 18.3941L5.91726 18.472L6.10314 18.5442L6.29526 18.6039L6.49364 18.6584L6.69145 18.7124L6.89552 18.7539L7.09958 18.784L7.31558 18.8142L7.53158 18.838L7.74758 18.85L7.96983 18.8619H8.19777H8.3899L8.58202 18.85L8.7679 18.838L8.95377 18.8204L9.14021 18.8022L9.31983 18.7721L9.49434 18.7363L9.66828 18.6999L9.84221 18.6522L10.0105 18.6039L10.1725 18.5499L10.3282 18.4902L10.4845 18.418L10.6346 18.3464L10.7721 18.2679L10.9103 18.1838L11.0427 18.094L11.1683 17.9922L11.2883 17.8899L11.3963 17.7819L11.5043 17.662L11.6003 17.542L11.6845 17.4096L11.7686 17.2777L11.8408 17.1339L11.9067 16.9839L11.9607 16.8275L12.0028 16.6599L12.0386 16.4916L12.0687 16.3114L12.0807 16.1255L12.0869 15.9334L12.0807 15.7237L12.0625 15.5196L12.0329 15.3275L11.9908 15.1353L11.9368 14.9552L11.8709 14.7812L11.7925 14.6192L11.7083 14.4572L11.6128 14.3072L11.5105 14.1571L11.3963 14.019L11.2763 13.8871L11.1445 13.7552L11.0126 13.6353L10.8682 13.5148L10.7182 13.4068L10.5624 13.2988L10.4004 13.197L10.2321 13.0947L10.0645 13.0049L9.88428 12.9151L9.70409 12.8247L9.5239 12.7468L9.33802 12.6627L9.1459 12.5905L8.95377 12.5189L8.56383 12.3808L8.1739 12.2489L7.77771 12.129L6.35552 11.7504L5.88714 11.6128L5.40739 11.4628L5.16126 11.3787L4.91514 11.2945L4.66901 11.1985L4.42914 11.1024L4.18301 11.0007L3.94314 10.8927L3.70895 10.7721L3.47476 10.6522L3.24682 10.5203L3.01888 10.3822L2.80288 10.2321L2.58632 10.0764L2.38225 9.90815L2.18444 9.73421L1.99857 9.54208L1.90819 9.44602L1.81838 9.34996L1.73425 9.24196L1.65013 9.14021L1.56657 9.03221L1.49438 8.91796L1.41651 8.8037L1.34432 8.68377L1.27838 8.56383L1.21244 8.44389L1.14651 8.31202L1.09251 8.18583L1.03225 8.0477L0.983937 7.90958L0.93619 7.77145L0.888442 7.62764L0.852063 7.47758L0.81 7.32752L0.780442 7.17177L0.750316 7.01545L0.726442 6.85345L0.708253 6.68577L0.690063 6.51752L0.678126 6.34358L0.671874 6.16339V5.9832V5.80301L0.678126 5.63533L0.690063 5.46139L0.708253 5.29314L0.726442 5.12488L0.756 4.96288L0.786127 4.80088L0.816253 4.64514L0.858316 4.48882L0.900379 4.33307L0.948127 4.18301L0.996442 4.03295L1.05613 3.88288L1.11638 3.73907L1.17606 3.60095L1.242 3.45657L1.31419 3.31901L1.39206 3.18657L1.47051 3.05469L1.54838 2.9285L1.63819 2.79663L1.72232 2.67669L1.81838 2.55051L1.91444 2.43682L2.01051 2.31632L2.11225 2.20263L2.22025 2.09463L2.32825 1.98663L2.44251 1.87863L2.55676 1.77632L2.67044 1.67457L2.79038 1.57851L2.91657 1.48244L3.04276 1.39206L3.16895 1.30225L3.30082 1.21813L3.4327 1.134L3.57082 1.05044L3.70895 0.972L3.84707 0.900379L4.1347 0.756L4.42914 0.630379L4.73495 0.509874L5.04701 0.408126L5.36533 0.312063L5.68933 0.227937L6.01958 0.162L6.35552 0.101747L6.69145 0.0602526L7.03933 0.0238737L7.38777 0.00625263L7.73564 0H7.96983L8.19777 0.00625263L8.42571 0.0181895L8.64796 0.0358105L8.86396 0.054L9.07996 0.0778737L9.29028 0.101747L9.49434 0.138126L9.6984 0.168253L9.89621 0.210316L10.0883 0.25181L10.2805 0.300126L10.4663 0.347874L10.6465 0.401874L10.8261 0.455874L11.0007 0.516126L11.1746 0.582063L11.3423 0.648L11.5043 0.713937L11.6668 0.786126L11.8226 0.864L11.9727 0.942442L12.1227 1.026L12.2665 1.11013L12.4109 1.19425L12.549 1.28406L12.6809 1.38013L12.8128 1.47619L12.939 1.57225L13.0652 1.66832L13.1851 1.77063L13.2988 1.87863L13.413 1.98038L13.521 2.09463L13.629 2.20263L13.7308 2.31632L13.8331 2.43057L13.9229 2.54482L14.019 2.66476L14.1031 2.78469L14.1929 2.90463L14.2714 3.03082L14.3492 3.15076L14.4271 3.27695L14.5652 3.53501L14.6914 3.79307L14.8051 4.05682L14.9012 4.32682L14.9853 4.59682L15.0632 4.87307L15.1234 5.14933L15.1712 5.42501L15.2013 5.70126L15.2252 5.9832H11.6725L11.6487 5.80926L11.6248 5.64101L11.5884 5.47901L11.5463 5.31701L11.4986 5.16126L11.4446 5.0112L11.3787 4.86682L11.3065 4.72301L11.2343 4.58488L11.1507 4.44676L11.0603 4.32114L10.9586 4.19495L10.8563 4.07501L10.7483 3.96076L10.6346 3.84707L10.5084 3.74476L10.3822 3.64301L10.2441 3.55263L10.1065 3.46282L9.95647 3.37869L9.8064 3.30082L9.65009 3.23488L9.48809 3.16895L9.31415 3.10869L9.14021 3.06095L8.96628 3.01263L8.77983 2.97682L8.58771 2.94044L8.39615 2.91657L8.19209 2.89838L7.98802 2.88644H7.77771H7.59752L7.42358 2.89838L7.24339 2.91088L7.07571 2.9285L6.90177 2.95863L6.73352 2.98876L6.56526 3.02457L6.40326 3.06663L6.24752 3.11495L6.0912 3.16895L5.94114 3.22863L5.79733 3.29457L5.65352 3.36676L5.51539 3.43895L5.38295 3.5225L5.25733 3.61288L5.13739 3.70895L5.02314 3.80501L4.91514 3.91301L4.81282 4.02101L4.71733 4.14095L4.62695 4.26088L4.54907 4.39276L4.47689 4.5252L4.41095 4.66901L4.3507 4.81282L4.2967 4.96288L4.26089 5.12488L4.22507 5.28745L4.2012 5.45514L4.1887 5.62907L4.18301 5.81552L4.1887 5.99514L4.20689 6.17533L4.23076 6.34358L4.26714 6.50558L4.31489 6.65564L4.36889 6.79945L4.43482 6.94326L4.50701 7.0757L4.59114 7.20133L4.68095 7.32183L4.78326 7.44177L4.88501 7.54977L4.99926 7.65152L5.1192 7.75383L5.24539 7.84989L5.37726 7.9397L5.52108 8.02952L5.66545 8.11364L5.81552 8.19208L5.97126 8.26996L6.12758 8.34158L6.29526 8.41377L6.63745 8.54564L6.99158 8.67808L7.35764 8.79802L7.72996 8.91796L8.11364 9.03221L9.45228 9.45227L9.73421 9.53015L10.0161 9.61996L10.2981 9.70408L10.5806 9.80015L10.8625 9.90246L11.1382 10.0042L11.4145 10.1185L11.6845 10.2321L11.9488 10.3583L12.2125 10.4902L12.4706 10.6283L12.723 10.7721L12.9691 10.9285L13.2027 11.0905L13.4369 11.2644L13.6592 11.4446L13.8689 11.6367L14.073 11.8345L14.169 11.9368L14.2651 12.0448L14.3612 12.1528L14.451 12.2665L14.5351 12.3808L14.6192 12.495L14.7034 12.615L14.7812 12.7406L14.8591 12.8611L14.9313 12.993L14.9972 13.1248L15.0632 13.2567L15.1291 13.3948L15.1831 13.533L15.2434 13.6768L15.2917 13.8268L15.3394 13.9769L15.3815 14.127L15.4235 14.289L15.4594 14.4453L15.4957 14.6073L15.5196 14.7755L15.5435 14.9495L15.5674 15.1234L15.5793 15.2973L15.5912 15.4775L15.5975 15.6634L15.6037 15.8493L15.5975 16.0414L15.5912 16.2279L15.5793 16.4137L15.5617 16.5939L15.5435 16.7679L15.5134 16.9418L15.4832 17.1157L15.4474 17.284L15.4054 17.446L15.3633 17.608L15.3155 17.7637L15.2615 17.92L15.2075 18.0701L15.1416 18.2139L15.0814 18.3583L15.0092 18.5021L14.9375 18.6402L14.8591 18.7784L14.7755 18.904L14.6914 19.0364L14.6073 19.162L14.5112 19.2825L14.4152 19.4025L14.3191 19.5162L14.2174 19.6304L14.1094 19.7441L14.0014 19.8464L13.8871 19.9544L13.7728 20.0505L13.6529 20.1522L13.533 20.2483L13.4068 20.3387L13.2749 20.4285L13.1487 20.5126L13.0112 20.5967L12.8787 20.6746L12.7406 20.7525L12.5968 20.8247L12.453 20.8969L12.3029 20.9628L12.1585 21.0287L12.0028 21.0884L11.6964 21.2089L11.3787 21.3107L11.0484 21.4067L10.7125 21.4846L10.3703 21.5568L10.0224 21.6171L9.66828 21.6648L9.3079 21.7006L8.94183 21.7251L8.57009 21.7427L8.19777 21.7489H7.95164L7.70552 21.7427L7.46564 21.7307L7.22577 21.7188L6.99158 21.6949L6.76364 21.6767L6.54139 21.6466L6.31914 21.6171L6.09745 21.5869L5.88714 21.5449L5.67739 21.5028L5.47333 21.4607L5.26926 21.413L5.07089 21.359L4.87933 21.305L4.6872 21.2447L4.50076 21.1788L4.32114 21.1129L4.14095 21.0407L3.96701 20.9685L3.79307 20.8906L3.63107 20.8127L3.46851 20.7286L3.30651 20.6388L3.15076 20.5484L3.0007 20.4586L2.85063 20.3625L2.70682 20.2602L2.5687 20.1585L2.43057 20.0567L2.2987 19.9482L2.17251 19.8345L2.04632 19.7202L1.92638 19.6065L1.80644 19.4866L1.69219 19.3604L1.58419 19.2342L1.47619 19.108L1.37444 18.9762L1.27213 18.8443L1.17606 18.7062L1.08625 18.568L1.00213 18.4299L0.918 18.2861L0.834442 18.1423L0.756 17.9922L0.684379 17.8422L0.617874 17.6921L0.551937 17.5358L0.486 17.38L0.432 17.218L0.378 17.056L0.324 16.8935L0.276253 16.7315L0.23419 16.5638L0.192126 16.3955L0.156316 16.2216L0.12619 16.0477L0.0960632 15.8737L0.0659369 15.6992L0.0477474 15.5196L0.0238737 15.3394L0.0119368 15.1592L0 14.9733Z" fill="#D7D5D6"/>
<path d="M19.7322 10.8745V10.5806L19.7441 10.2924L19.7566 10.0042L19.7805 9.71602L19.8106 9.43181L19.8464 9.15556L19.8822 8.87987L19.9306 8.60362L19.9846 8.33362L20.0414 8.06362L20.1016 7.79931L20.1738 7.54124L20.2455 7.28318L20.3296 7.02512L20.42 6.77331L20.5098 6.52718L20.6058 6.28105L20.7076 6.04118L20.8156 5.80074L20.9293 5.57337L21.0492 5.33975L21.1754 5.1175L21.3016 4.89524L21.4391 4.67356L21.5773 4.46324L21.7216 4.2535L21.8717 4.04318L22.0275 3.84537L22.1838 3.64699L22.3458 3.45486L22.5163 3.26899L22.6902 3.08312L22.8647 2.90293L23.0444 2.72899L23.2308 2.55846L23.4224 2.39078L23.6145 2.23446L23.8129 2.07872L24.0169 1.92865L24.221 1.78427L24.4307 1.64046L24.6467 1.50859L24.8627 1.37615L25.085 1.25621L25.3124 1.13627L25.5397 1.02259L25.7739 0.91459L26.0081 0.812842L26.248 0.716779L26.4941 0.626969L26.7402 0.542842L26.9921 0.464968L27.2444 0.386526L27.5042 0.324L27.7623 0.267158L28.026 0.210316L28.2903 0.162L28.5603 0.119937L28.8303 0.0841263L29.1066 0.0568421L29.3823 0.0329684L29.6585 0.0147789L29.9467 0.00909474L30.2286 0L30.5129 0.00625263L30.7891 0.0119368L31.0654 0.0301263L31.3388 0.0568421L31.6088 0.0869684L31.8793 0.122779L32.1493 0.164842L32.4131 0.213158L32.6711 0.27L32.9292 0.335937L33.1873 0.397895L33.4397 0.470084L33.6858 0.547958L33.9313 0.637768L34.1775 0.728147L34.4179 0.823642L34.6515 0.925958L34.8857 1.03396L35.1131 1.14764L35.3405 1.26758L35.5627 1.3932L35.785 1.52564L36.001 1.65752L36.2107 1.80133L36.4148 1.94571L36.6188 2.09577L36.8229 2.25152L37.015 2.41352L37.2071 2.57552L37.393 2.75002L37.5795 2.92396L37.7591 3.10358L37.933 3.28377L38.1035 3.4759L38.2655 3.66802L38.4253 3.86526L38.5816 4.06364L38.7317 4.27339L38.8817 4.48371L39.0193 4.69345L39.1574 4.91571L39.2898 5.13796L39.4155 5.35964L39.5354 5.59383L39.6491 5.8212L39.7628 6.06107L39.8645 6.30152L39.9668 6.54764L40.0629 6.79377L40.1527 7.04558L40.2306 7.29739L40.3085 7.55545L40.3806 7.81977L40.4466 8.08352L40.5068 8.34783L40.5608 8.61783L40.6086 8.88783L40.6506 9.16409L40.687 9.4483L40.7166 9.73251L40.7348 10.0167L40.753 10.3009L40.7649 10.5948V10.883V11.1769L40.753 11.4651L40.741 11.7532L40.7166 12.0414L40.687 12.3256L40.6506 12.6013L40.6086 12.8776L40.5608 13.1538L40.5068 13.4238L40.4528 13.6938L40.3869 13.9581L40.3147 14.2162L40.2368 14.4743L40.1527 14.7323L40.0686 14.9841L39.9725 15.2303L39.8765 15.4764L39.7685 15.7163L39.6605 15.9561L39.5468 16.1835L39.4206 16.4171L39.3006 16.6394L39.1682 16.8616L39.0306 17.0833L38.8925 17.2936L38.7425 17.5034L38.5924 17.7137L38.4361 17.9115L38.2803 18.1099L38.1098 18.3015L37.9393 18.4879L37.7648 18.6738L37.5851 18.854L37.405 19.0279L37.2191 19.1984L37.027 19.369L36.8348 19.5253L36.6308 19.681L36.4267 19.8311L36.2226 19.9755L36.0129 20.1193L35.7963 20.2511L35.5746 20.3836L35.3524 20.5035L35.125 20.6235L34.8977 20.7371L34.6635 20.8451L34.4293 20.9475L34.1894 21.0435L33.9433 21.1333L33.6971 21.2175L33.4453 21.2953L33.193 21.3738L32.9411 21.4397L32.6768 21.4966L32.4188 21.5534L32.1488 21.6017L31.885 21.6438L31.615 21.6796L31.3388 21.7097L31.0625 21.7336L30.7868 21.7518L30.5026 21.7575L30.2184 21.7637L29.9342 21.7575L29.6579 21.7518L29.3823 21.7336L29.106 21.7097L28.836 21.6796L28.566 21.6438L28.3017 21.6017L28.0379 21.5477L27.7736 21.4937L27.5156 21.4335L27.2638 21.3675L27.0114 21.2896L26.7596 21.2118L26.5191 21.1214L26.2736 21.0316L26.0331 20.9355L25.7995 20.8332L25.579 20.7104L25.3516 20.5905L25.1293 20.4706L24.9071 20.3506L24.6854 20.2187L24.4751 20.0806L24.2591 19.9425L24.055 19.7924L23.851 19.6424L23.6531 19.4866L23.4593 19.3263L23.2672 19.1558L23.0813 18.9853L22.9011 18.8113L22.7209 18.6311L22.547 18.4453L22.3765 18.2594L22.2145 18.061L22.0525 17.8632L21.8967 17.6648L21.7467 17.4551L21.6023 17.2448L21.4647 17.035L21.3266 16.8128L21.1947 16.5911L21.0685 16.3688L20.9486 16.1346L20.8349 15.9004L20.7269 15.6668L20.6189 15.4264L20.5228 15.1803L20.4268 14.9347L20.3427 14.6823L20.2585 14.4305L20.1807 14.1724L20.109 13.9144L20.0425 13.6501L19.9885 13.3863L19.9345 13.1163L19.8868 12.8457L19.8447 12.5701L19.8089 12.2938L19.7788 12.0096L19.7606 11.7254L19.7424 11.4412L19.7305 11.1536V10.8654L19.7322 10.8745ZM37.1304 10.8745V10.6767L37.1242 10.4845L37.1122 10.2924L37.1003 10.1003L37.0821 9.90815L37.0582 9.72227L37.0343 9.53015L37.0042 9.34427L36.9684 9.15783L36.932 8.97821L36.89 8.79802L36.8422 8.61783L36.7939 8.43764L36.7462 8.25802L36.6859 8.08352L36.6262 7.91583L36.566 7.7419L36.5 7.57137L36.4278 7.40937L36.3562 7.23884L36.2783 7.07684L36.1999 6.9211L36.1158 6.76478L36.026 6.60903L35.9362 6.45897L35.8458 6.30891L35.7497 6.1651L35.648 6.02072L35.5457 5.87691L35.4377 5.73878L35.3297 5.60691L35.216 5.47446L35.1023 5.34259L34.9818 5.22947L34.8618 5.10328L34.7357 4.98335L34.6095 4.86966L34.4838 4.75598L34.3514 4.64798L34.2138 4.53998L34.0757 4.43766L33.9376 4.3416L33.7938 4.24554L33.6437 4.15573L33.4993 4.0716L33.3436 3.98463L33.1958 3.90107L33.0395 3.82888L32.8775 3.7567L32.7217 3.69076L32.5512 3.62482L32.3892 3.57082L32.2187 3.51682L32.0447 3.45998L31.8771 3.41792L31.7026 3.37585L31.5229 3.34004L31.3427 3.30366L31.1626 3.27979L30.979 3.25876L30.7988 3.24L30.6066 3.22806L30.4208 3.22238H30.0365L29.8444 3.22806L29.6585 3.24L29.4726 3.25819L29.2868 3.28206L29.1066 3.30594L28.9264 3.34232L28.7462 3.37813L28.5723 3.42019L28.3983 3.46225L28.2278 3.5191L28.0573 3.5731L27.8867 3.6271L27.7247 3.69303L27.569 3.75897L27.4064 3.83116L27.2569 3.90335L27.1006 3.98691L26.9506 4.07103L26.8067 4.15516L26.6624 4.24497L26.5186 4.34103L26.3804 4.4371L26.2423 4.53941L26.1104 4.64741L25.9786 4.75541L25.8524 4.8691L25.7262 4.98278L25.6062 5.10272L25.4937 5.22947L25.38 5.34941L25.2663 5.48128L25.1583 5.61373L25.0503 5.7456L24.948 5.88373L24.8463 6.02754L24.7502 6.17192L24.6541 6.31573L24.5638 6.46579L24.4802 6.61585L24.3898 6.7716L24.3119 6.92792L24.2341 7.08366L24.1562 7.24566L24.0897 7.41619L24.0181 7.57819L23.9578 7.74872L23.8919 7.92265L23.8379 8.09034L23.7839 8.26484L23.7299 8.44446L23.6878 8.62465L23.6401 8.80484L23.6037 8.98503L23.5679 9.16465L23.5321 9.3511L23.5076 9.53697L23.4838 9.7291L23.4599 9.91497L23.4417 10.1071L23.4298 10.2992L23.4178 10.4913L23.4116 10.6835V10.8813V11.0734L23.4178 11.2655L23.4298 11.4571L23.4417 11.6492L23.4599 11.8413L23.4838 12.0272L23.5076 12.2137L23.5378 12.3995L23.5679 12.5854L23.6037 12.7656L23.6458 12.9458L23.6878 13.126L23.7361 13.2999L23.7901 13.4795L23.847 13.654L23.901 13.8217L23.9669 13.9957L24.0328 14.1662L24.0988 14.3282L24.171 14.4987L24.2426 14.6545L24.3267 14.8165L24.4046 14.9728L24.4887 15.1285L24.5791 15.2786L24.6689 15.4287L24.765 15.573L24.861 15.7168L24.9628 15.8607L25.0708 15.9988L25.1731 16.1312L25.2868 16.2631L25.4005 16.395L25.5142 16.5212L25.6341 16.6473L25.754 16.761L25.8802 16.881L26.0058 16.9947L26.1383 17.1027L26.2702 17.2107L26.4083 17.3124L26.5464 17.4085L26.6902 17.5045L26.834 17.6006L26.9784 17.6847L27.1285 17.7688L27.2842 17.8467L27.4343 17.9246L27.5963 17.9968L27.7526 18.0627L27.9146 18.1287L28.0851 18.1889L28.2471 18.2457L28.4216 18.2935L28.5922 18.3418L28.7661 18.3839L28.9406 18.4197L29.1202 18.4498L29.3004 18.4799L29.4863 18.5038L29.6727 18.522L29.8586 18.5339L30.0445 18.5396H30.4287L30.6146 18.5339L30.8067 18.522L30.9869 18.5038L31.1728 18.4799L31.353 18.4498L31.5332 18.4197L31.7128 18.3839L31.8873 18.3418L32.055 18.2935L32.2289 18.2457L32.3994 18.1889L32.5614 18.1287L32.732 18.0627L32.8877 17.9968L33.0497 17.9246L33.206 17.8467L33.3561 17.7688L33.5118 17.6847L33.6562 17.6006L33.8063 17.5045L33.9501 17.4085L34.0882 17.3124L34.2263 17.2107L34.3639 17.1027L34.4963 16.9947L34.622 16.881L34.7482 16.761L34.8743 16.6473L34.9943 16.5212L35.1142 16.395L35.2279 16.2631L35.3416 16.1312L35.4496 15.9988L35.5576 15.8607L35.6599 15.7168L35.7617 15.573L35.8577 15.4287L35.9481 15.2786L36.0379 15.1285L36.1277 14.9728L36.2118 14.8165L36.2903 14.6545L36.3682 14.4987L36.4398 14.3282L36.512 14.1662L36.5779 13.9957L36.6382 13.8217L36.6978 13.654L36.7581 13.4795L36.8058 13.2999L36.8542 13.126L36.9019 12.9458L36.944 12.7656L36.9803 12.5854L37.0042 12.3916L37.0343 12.2057L37.0582 12.0193L37.0821 11.8334L37.1003 11.6413L37.1122 11.4491L37.1242 11.2576L37.1304 11.0655V10.8733V10.8745Z" fill="#D7D5D6"/>
<path d="M87.9876 11.7504H72.3839L72.414 12.1347L72.4504 12.5127L72.5073 12.8787L72.5641 13.2391L72.642 13.5932L72.7324 13.9343L72.8341 14.2645L72.8881 14.4351L72.9484 14.5908L73.0052 14.7528L73.0655 14.9029L73.1376 15.0592L73.2036 15.2092L73.2758 15.3593L73.3536 15.5031L73.4315 15.6469L73.5156 15.7851L73.5998 15.9232L73.6833 16.0551L73.7737 16.1875L73.8698 16.3131L73.9596 16.4393L74.0619 16.5655L74.1636 16.6854L74.266 16.7991L74.374 16.9128L74.482 17.0208L74.59 17.1288L74.7036 17.2368L74.8236 17.3391L74.9441 17.4352L75.064 17.5312L75.1902 17.6211L75.3158 17.7109L75.4477 17.795L75.5801 17.8729L75.712 17.9513L75.8502 18.0292L75.9883 18.0951L76.1321 18.1673L76.2759 18.227L76.426 18.2872L76.5703 18.3475L76.7261 18.4015L76.8761 18.4492L77.0382 18.497L77.1945 18.5334L77.3565 18.5754L77.5185 18.605L77.689 18.6414L77.8595 18.6652L78.03 18.6891L78.204 18.7073L78.3779 18.7192L78.5519 18.7312L78.732 18.7374H79.1703L79.4164 18.7255L79.6626 18.7073L79.9024 18.6834L80.1366 18.6471L80.3702 18.6112L80.5976 18.5635L80.8193 18.5152L81.0353 18.4583L81.2456 18.3918L81.4553 18.314L81.6537 18.2361L81.8515 18.152L82.0437 18.0559L82.2295 17.9541L82.404 17.8461L82.578 17.7325L82.7485 17.6125L82.9105 17.4863L83.0668 17.3482L83.2169 17.2107L83.355 17.0606L83.4931 16.9105L83.625 16.7485L83.7449 16.578L83.8586 16.4041L83.9666 16.2239L84.0684 16.038L84.1582 15.8459L84.2486 15.6475L84.3264 15.4377L84.3924 15.2274H87.9513L87.9035 15.4196L87.8552 15.6117L87.8075 15.7976L87.7472 15.984L87.6904 16.1636L87.6301 16.3438L87.5642 16.524L87.492 16.6979L87.4198 16.8685L87.3419 17.039L87.2578 17.2095L87.1742 17.3715L87.0901 17.5335L86.9997 17.6898L86.9037 17.8456L86.8076 18.0019L86.7059 18.152L86.6041 18.2958L86.4955 18.4396L86.3875 18.584L86.2739 18.7221L86.1539 18.854L86.0402 18.9858L85.914 19.1177L85.7884 19.2439L85.6622 19.3701L85.5304 19.49L85.3979 19.61L85.2604 19.7236L85.1222 19.8316L84.9779 19.9396L84.834 20.0476L84.684 20.1494L84.5339 20.2517L84.3782 20.3478L84.2281 20.4438L84.0661 20.5336L83.9035 20.6178L83.7415 20.7019L83.5739 20.7855L83.4033 20.8639L83.2328 20.9355L83.0583 21.0077L82.8844 21.0799L82.7042 21.1458L82.5245 21.2061L82.3381 21.2658L82.1522 21.3198L81.9664 21.3738L81.7805 21.4221L81.5884 21.4698L81.3962 21.5119L81.1979 21.5477L81 21.5841L80.8022 21.6199L80.5982 21.65L80.19 21.6978L79.77 21.7279L79.3437 21.7518L78.9117 21.758L78.6354 21.7518L78.3654 21.7461L78.0892 21.7279L77.8192 21.7097L77.5554 21.6801L77.2911 21.65L77.0291 21.6L76.771 21.5579L76.5129 21.5039L76.2611 21.4499L76.015 21.384L75.7666 21.3158L75.5205 21.2436L75.2806 21.1595L75.0464 21.0753L74.8122 20.9855L74.5848 20.8895L74.3632 20.7877L74.1409 20.6854L73.9187 20.5717L73.7027 20.4518L73.4929 20.3319L73.2888 20.2057L73.0848 20.0738L72.8807 19.9357L72.6886 19.7919L72.4965 19.6418L72.3106 19.4917L72.1241 19.336L71.9445 19.1655L71.7706 19.0035L71.6001 18.8295L71.4295 18.6493L71.2761 18.4737L71.1203 18.2878L70.964 18.0957L70.8139 17.9036L70.6701 17.7057L70.532 17.5017L70.4001 17.2914L70.2677 17.0754L70.1421 16.8594L70.0221 16.6377L69.9084 16.4154L69.8004 16.1812L69.6981 15.9471L69.5964 15.7134L69.5003 15.4673L69.4105 15.2212L69.3321 14.9751L69.2485 14.717L69.1763 14.4589L69.1104 14.2009L69.0501 13.9365L68.9904 13.6665L68.9421 13.3909L68.9001 13.1146L68.858 12.8384L68.8284 12.5507L68.7983 12.2665L68.7744 11.9727L68.7619 11.6788L68.75 11.3843V11.0842V10.7665L68.7619 10.4544L68.7801 10.148L68.7983 9.84221L68.8284 9.54208L68.8643 9.24196L68.9001 8.95377L68.9484 8.65989L68.9961 8.37568L69.0564 8.09147L69.1161 7.81522L69.1883 7.53897L69.2604 7.26897L69.3446 7.00522L69.4281 6.74716L69.5185 6.48909L69.6146 6.23672L69.7163 5.99059L69.8186 5.74446L69.9323 5.50459L70.046 5.2704L70.1659 5.04303L70.2921 4.81566L70.424 4.59341L70.5559 4.37741L70.7003 4.16766L70.8441 3.9636L70.9879 3.75954L71.1442 3.56116L71.2999 3.3696L71.4619 3.18316L71.6325 2.99728L71.803 2.81709L71.9769 2.64941L72.1571 2.47888L72.3367 2.31688L72.5232 2.15488L72.7153 2.00482L72.9069 1.85476L73.1052 1.71663L73.3031 1.57851L73.5134 1.44663L73.7174 1.32044L73.9272 1.20051L74.1432 1.08682L74.3592 0.978253L74.5814 0.870253L74.8037 0.774758L75.0276 0.682105L75.255 0.597979L75.4892 0.513853L75.7234 0.441663L75.9633 0.370042L76.2031 0.303537L76.4493 0.246695L76.6954 0.189853L76.9415 0.142105L77.1911 0.113684L77.4434 0.0773053L77.6992 0.0477474L77.9573 0.0301263L78.2153 0.0119368L78.4791 0.00625263L78.7457 0H78.9799L79.2135 0.0119368L79.4477 0.0238737L79.6819 0.0420632L79.9161 0.0659368L80.1434 0.0898105L80.3708 0.126189L80.5931 0.162L80.8204 0.204063L81.0421 0.25181L81.2644 0.308653L81.4804 0.368905L81.6964 0.434842L81.9124 0.500779L82.1227 0.572968L82.3324 0.657095L82.5427 0.741221L82.7468 0.824779L82.9509 0.920842L83.1487 1.02316L83.3471 1.12491L83.5392 1.23291L83.7307 1.34659L83.9172 1.46653L84.1031 1.59272L84.2832 1.72459L84.4629 1.85646L84.6374 2.00084L84.8113 2.14465L84.979 2.29472L85.1416 2.45103L85.3036 2.61303L85.4593 2.77503L85.6156 2.94897L85.7657 3.1229L85.9095 3.30309L86.0533 3.48897L86.1914 3.68109L86.3233 3.8789L86.4495 4.08297L86.5757 4.28703L86.6956 4.49735L86.8156 4.71335L86.9236 4.9356L87.0316 5.16297L87.1339 5.39716L87.2299 5.63703L87.326 5.8769L87.4096 6.12303L87.4937 6.37484L87.5716 6.6329L87.6438 6.89722L87.7097 7.16722L87.7699 7.44347L87.8239 7.71916L87.8808 8.00337L87.9228 8.29099L87.9649 8.58543L87.995 8.88556L88.0246 9.19137L88.0428 9.50343L88.061 9.81549L88.0667 10.1338L88.0729 10.4578L88.0667 10.6136V10.7699L88.0428 11.0757L87.9888 11.7538L87.9876 11.7504ZM72.426 9.07427H84.5129L84.5066 8.74402L84.4828 8.41377L84.4407 8.09602L84.3929 7.78396L84.3327 7.47758L84.2548 7.1837L84.1707 6.88926L84.0746 6.61358L83.961 6.33733L83.8404 6.07358L83.7086 5.8212L83.5648 5.57507L83.4084 5.34145L83.2464 5.11408L83.0663 4.90434L82.8866 4.69402L82.6883 4.50189L82.5865 4.40583L82.4842 4.31602L82.3762 4.23189L82.2682 4.14208L82.1602 4.06421L82.0465 3.98577L81.9328 3.90789L81.8129 3.83571L81.6992 3.76408L81.5736 3.69189L81.4531 3.63221L81.3275 3.5657L81.2013 3.5117L81.0694 3.45202L80.9369 3.4037L80.8051 3.34971L80.667 3.30764L80.5288 3.26558L80.3913 3.22408L80.2531 3.1877L80.1088 3.15758L79.965 3.12802L79.8149 3.09789L79.6711 3.07402L79.521 3.05583L79.3647 3.04389L79.2146 3.0257L79.0589 3.02002L78.9026 3.01377H78.5786L78.4166 3.02002L78.2546 3.03196L78.0988 3.04389L77.9425 3.06208L77.7868 3.07971L77.6304 3.10358L77.4804 3.13371L77.3303 3.16383L77.1803 3.19964L77.0364 3.24171L76.8864 3.28377L76.7482 3.32583L76.6044 3.37415L76.4663 3.42815L76.3282 3.48215L76.1901 3.54183L76.0582 3.60208L75.9263 3.66802L75.8001 3.73396L75.6683 3.80615L75.5477 3.88402L75.3022 4.03977L75.068 4.21029L74.8406 4.38423L74.6184 4.57636L74.4081 4.77474L74.2103 4.98448L74.0181 5.20674L73.8379 5.43411L73.664 5.67398L73.502 5.91442L73.3519 6.17248L73.2138 6.43055L73.0819 6.70055L72.962 6.97623L72.8483 7.26044L72.7523 7.55432L72.6624 7.84819L72.5903 8.14832L72.5243 8.45469L72.4703 8.76676L72.4283 9.07882L72.426 9.07427Z" fill="#D7D5D6"/>
<path d="M92.3984 14.9733H95.9516L95.9875 15.2377L96.0295 15.4895L96.0773 15.7356L96.1375 15.9698L96.2034 16.1915L96.2813 16.4018L96.3655 16.6059L96.4615 16.798L96.5638 16.9839L96.6718 17.1515L96.7855 17.3198L96.9117 17.4699L97.0436 17.6199L97.1817 17.7518L97.3255 17.8842L97.4756 17.9979L97.6319 18.1122L97.7939 18.2139L97.9621 18.3043L98.1361 18.3941L98.3163 18.472L98.5021 18.5442L98.6943 18.6039L98.8864 18.6584L99.0905 18.7124L99.294 18.7539L99.498 18.784L99.7146 18.8142L99.9306 18.838L100.147 18.85L100.368 18.8619H100.597H100.788L100.98 18.85L101.167 18.838L101.353 18.8204L101.533 18.8022L101.719 18.7721L101.893 18.7363L102.067 18.6999L102.241 18.6522L102.409 18.6039L102.571 18.5499L102.727 18.4902L102.883 18.418L103.027 18.3464L103.171 18.2679L103.309 18.1838L103.441 18.094L103.567 17.9922L103.687 17.8899L103.795 17.7819L103.897 17.662L103.999 17.542L104.083 17.4096L104.168 17.2777L104.239 17.1339L104.305 16.9839L104.359 16.8275L104.401 16.6599L104.438 16.4916L104.467 16.3114L104.48 16.1255L104.485 15.9334L104.48 15.7237L104.461 15.5196L104.431 15.3275L104.389 15.1353L104.335 14.9552L104.269 14.7812L104.191 14.6192L104.107 14.4572L104.011 14.3072L103.91 14.1571L103.795 14.019L103.675 13.8871L103.543 13.7552L103.411 13.6353L103.267 13.5148L103.117 13.4068L102.961 13.2988L102.799 13.197L102.631 13.0947L102.463 13.0049L102.283 12.9151L102.103 12.8247L101.923 12.7468L101.731 12.6627L101.545 12.5905L101.353 12.5189L100.963 12.3808L100.572 12.2489L100.176 12.129L98.754 11.7504L98.2861 11.6128L97.8058 11.4628L97.5597 11.3787L97.3136 11.2945L97.068 11.1985L96.8276 11.1024L96.5815 11.0007L96.3416 10.8927L96.1074 10.7721L95.8732 10.6522L95.6396 10.5203L95.4173 10.3822L95.2013 10.2321L94.9853 10.0764L94.7813 9.90815L94.5835 9.73421L94.397 9.54208L94.3072 9.44602L94.2168 9.34996L94.1333 9.24196L94.0491 9.14021L93.965 9.03221L93.8871 8.91796L93.8149 8.8037L93.7428 8.68377L93.6768 8.56383L93.6109 8.44389L93.5449 8.31202L93.4909 8.18583L93.4307 8.0477L93.3829 7.90958L93.3346 7.77145L93.2869 7.62764L93.2448 7.47758L93.209 7.32752L93.1789 7.17177L93.1488 7.01545L93.1249 6.85345L93.1067 6.68577L93.0891 6.51752L93.0766 6.34358L93.0709 6.16339L93.0646 5.9832L93.0709 5.80301L93.0766 5.63533L93.0891 5.46139L93.1067 5.29314L93.1249 5.12488L93.155 4.96288L93.1851 4.80088L93.2147 4.64514L93.2568 4.48882L93.2988 4.33307L93.3471 4.18301L93.3949 4.03295L93.4551 3.88288L93.5148 3.73907L93.5751 3.60095L93.641 3.45657L93.7132 3.31901L93.7911 3.18657L93.8689 3.05469L93.9468 2.9285L94.0372 2.79663L94.1213 2.67669L94.2168 2.55051L94.3129 2.43682L94.4089 2.31632L94.5113 2.20263L94.6193 2.09463L94.7273 1.98663L94.8353 1.87863L94.9552 1.77632L95.0695 1.67457L95.1894 1.57851L95.3156 1.48244L95.4412 1.39206L95.5674 1.30225L95.6993 1.21813L95.8317 1.134L95.9693 1.05044L96.1074 0.972L96.2455 0.900379L96.5337 0.756L96.8276 0.630379L97.134 0.509874L97.446 0.408126L97.7638 0.312063L98.0878 0.227937L98.418 0.162L98.754 0.101747L99.0905 0.0602526L99.4383 0.0238737L99.7862 0.00625263L100.135 0H100.368L100.597 0.00625263L100.825 0.0181895L101.046 0.0358105L101.262 0.054L101.479 0.0778737L101.689 0.101747L101.893 0.138126L102.097 0.168253L102.295 0.210316L102.487 0.25181L102.679 0.300126L102.865 0.347874L103.045 0.401874L103.225 0.455874L103.399 0.516126L103.573 0.582063L103.741 0.648L103.903 0.713937L104.065 0.786126L104.222 0.864L104.371 0.942442L104.521 1.026L104.666 1.11013L104.809 1.19425L104.947 1.28406L105.079 1.38013L105.212 1.47619L105.337 1.57225L105.464 1.66832L105.584 1.77063L105.698 1.87863L105.811 1.98038L105.919 2.09463L106.027 2.20263L106.13 2.31632L106.226 2.43057L106.322 2.54482L106.418 2.66476L106.502 2.78469L106.592 2.90463L106.67 3.03082L106.748 3.15076L106.826 3.27695L106.964 3.53501L107.09 3.79307L107.204 4.05682L107.3 4.32682L107.384 4.59682L107.462 4.87307L107.522 5.14933L107.564 5.42501L107.6 5.70126L107.624 5.9832H104.065L104.047 5.80926L104.023 5.64101L103.987 5.47901L103.945 5.31701L103.897 5.16126L103.843 5.0112L103.777 4.86682L103.705 4.72301L103.633 4.58488L103.549 4.44676L103.453 4.32114L103.357 4.19495L103.255 4.07501L103.147 3.96076L103.027 3.84707L102.907 3.74476L102.781 3.64301L102.643 3.55263L102.505 3.46282L102.355 3.37869L102.205 3.30082L102.049 3.23488L101.887 3.16895L101.713 3.10869L101.539 3.06095L101.358 3.01263L101.179 2.97682L100.987 2.94044L100.795 2.91657L100.591 2.89838L100.386 2.88644H100.176H99.9965L99.8226 2.89838L99.6424 2.91088L99.4685 2.9285L99.3002 2.95863L99.132 2.98876L98.9643 3.02457L98.8023 3.06663L98.646 3.11495L98.4902 3.16895L98.3401 3.22863L98.1958 3.29457L98.052 3.36676L97.9138 3.43895L97.782 3.5225L97.6558 3.61288L97.5358 3.70895L97.4216 3.80501L97.3136 3.91301L97.2118 4.02101L97.1158 4.14095L97.026 4.26088L96.9475 4.39276L96.8696 4.5252L96.8037 4.66901L96.7497 4.81282L96.6957 4.96288L96.6536 5.12488L96.6235 5.28745L96.5996 5.45514L96.5877 5.62907L96.5815 5.81552L96.5877 5.99514L96.5996 6.17533L96.6298 6.34358L96.6656 6.50558L96.7139 6.65564L96.7679 6.79945L96.8338 6.94326L96.9054 7.0757L96.9896 7.20133L97.08 7.32183L97.176 7.44177L97.284 7.54977L97.3977 7.65152L97.5176 7.75383L97.6438 7.84989L97.7757 7.9397L97.9201 8.02952L98.0639 8.11364L98.214 8.19208L98.3703 8.26996L98.526 8.34158L98.6943 8.41377L99.0359 8.54564L99.39 8.67808L99.7561 8.79802L100.128 8.91796L100.513 9.03221L101.851 9.45227L102.133 9.53015L102.415 9.61996L102.697 9.70408L102.979 9.80015L103.261 9.90246L103.537 10.0042L103.813 10.1185L104.083 10.2321L104.347 10.3583L104.612 10.4902L104.87 10.6283L105.121 10.7721L105.368 10.9285L105.602 11.0905L105.836 11.2644L106.052 11.4446L106.268 11.6367L106.472 11.8345L106.568 11.9368L106.664 12.0448L106.76 12.1528L106.85 12.2665L106.934 12.3808L107.018 12.495L107.102 12.615L107.18 12.7406L107.258 12.8611L107.33 12.993L107.396 13.1248L107.462 13.2567L107.522 13.3948L107.582 13.533L107.636 13.6768L107.69 13.8268L107.738 13.9769L107.78 14.127L107.822 14.289L107.858 14.4453L107.894 14.6073L107.918 14.7755L107.942 14.9495L107.966 15.1234L107.978 15.2973L107.99 15.4775L107.996 15.6634L108.002 15.8493L107.996 16.0414L107.99 16.2279L107.978 16.4137L107.96 16.5939L107.936 16.7679L107.912 16.9418L107.882 17.1157L107.846 17.284L107.804 17.446L107.762 17.608L107.714 17.7637L107.66 17.92L107.606 18.0701L107.54 18.2139L107.474 18.3583L107.408 18.5021L107.336 18.6402L107.258 18.7784L107.174 18.904L107.09 19.0364L107 19.162L106.91 19.2825L106.814 19.4025L106.718 19.5162L106.616 19.6304L106.508 19.7441L106.4 19.8464L106.286 19.9544L106.172 20.0505L106.052 20.1522L105.926 20.2483L105.806 20.3387L105.674 20.4285L105.548 20.5126L105.41 20.5967L105.278 20.6746L105.133 20.7525L104.995 20.8247L104.851 20.8969L104.701 20.9628L104.551 21.0287L104.401 21.0884L104.095 21.2089L103.771 21.3107L103.447 21.4067L103.111 21.4846L102.769 21.5568L102.421 21.6171L102.067 21.6648L101.707 21.7006L101.341 21.7251L100.969 21.7427L100.597 21.7489H100.344L100.105 21.7427L99.8584 21.7307L99.6242 21.7188L99.39 21.6949L99.1621 21.6767L98.9341 21.6466L98.7182 21.6171L98.4959 21.5869L98.2861 21.5449L98.0758 21.5028L97.8718 21.4607L97.6677 21.413L97.4699 21.359L97.2778 21.305L97.0856 21.2447L96.8998 21.1788L96.7196 21.1129L96.5394 21.0407L96.3655 20.9685L96.1915 20.8906L96.0295 20.8127L95.8613 20.7286L95.7055 20.6388L95.5492 20.5484L95.3991 20.4586L95.2491 20.3625L95.1053 20.2602L94.9671 20.1585L94.829 20.0567L94.6971 19.9482L94.5653 19.8345L94.4453 19.7202L94.3191 19.6065L94.2049 19.4866L94.0912 19.3604L93.9832 19.2342L93.8752 19.108L93.7729 18.9762L93.6711 18.8443L93.5751 18.7062L93.4847 18.568L93.4011 18.4299L93.3108 18.2861L93.2329 18.1423L93.155 17.9922L93.0828 17.8422L93.0169 17.6921L92.9509 17.5358L92.885 17.38L92.831 17.218L92.7708 17.056L92.723 16.8935L92.6747 16.7315L92.6326 16.5638L92.5906 16.3955L92.5548 16.2216L92.5189 16.0477L92.4888 15.8737L92.4649 15.6992L92.4405 15.5196L92.4229 15.3394L92.4109 15.1592L92.3984 14.9733Z" fill="#D7D5D6"/>
</g>
<defs>
<clipPath id="clip0_6329_4554">
<rect width="108" height="22.1684" fill="white"/>
</clipPath>
</defs>
</svg>
