<svg width="108" height="24" viewBox="0 0 108 24" fill="none" xmlns="http://www.w3.org/2000/svg">
<g clip-path="url(#clip0_6329_4569)">
<path d="M60.2287 0C60.791 0.0744 61.3524 0.1728 61.9178 0.22C64.5702 0.4392 67.2281 0.604 69.8757 0.8696C72.0658 1.0888 74.2568 1.3536 76.4256 1.7192C79.4734 2.2344 82.5204 2.7896 85.5365 3.4648C87.9569 4.0072 90.3361 4.7416 92.7248 5.4152C95.5019 6.2016 98.1884 7.2432 100.839 8.3968C101.006 8.4704 101.161 8.5752 101.363 8.6888L100.961 9.5888C100.479 9.3768 100.032 9.1568 99.5669 8.9784C98.0677 8.4048 96.5779 7.7968 95.0564 7.2864C92.9758 6.5896 90.8864 5.9104 88.7709 5.3368C86.7777 4.7952 84.7511 4.3704 82.7277 3.9608C80.4414 3.4936 78.1559 3.052 75.8498 2.684C73.8963 2.3712 71.9285 2.16 69.963 1.94C68.3192 1.7552 66.6722 1.58 65.0236 1.4808C62.7437 1.3208 60.4574 1.232 58.172 1.14C56.9363 1.0896 55.6975 1.0368 54.4619 1.0664C50.7144 1.1576 46.9614 1.1944 43.2211 1.4288C40.0359 1.6288 36.8602 2.0288 33.6909 2.4248C31.5241 2.69536 29.3677 3.04492 27.226 3.4728C24.7125 3.96752 22.2141 4.53764 19.7343 5.1824C17.2281 5.8392 14.7449 6.596 12.2791 7.396C10.8378 7.8624 9.44967 8.4968 8.03853 9.06C7.69547 9.1976 7.35241 9.3504 6.93788 9.5272L6.48047 8.6096C7.10226 8.3304 7.6772 8.0576 8.26247 7.8064C11.36 6.52412 14.5381 5.44898 17.776 4.588C20.2266 3.9224 22.6948 3.324 25.1796 2.792C27.0696 2.384 28.9889 2.1104 30.9012 1.808C32.8499 1.5 34.7979 1.188 36.757 0.9568C38.643 0.7328 40.541 0.6128 42.4334 0.4416C44.1002 0.3 45.7655 0.1536 47.4284 0H60.2295H60.2287Z" fill="#D7D5D6"/>
<path d="M0 21.7882L1.54774 20.8842C2.39347 21.853 3.5775 21.9458 4.75279 21.9954C5.22768 22.0162 5.75179 22.033 6.14488 21.625C6.26638 21.1202 5.91618 20.965 5.56518 20.873C4.7647 20.6594 3.92771 20.529 3.13676 20.2794C2.51418 20.081 1.86776 19.8394 1.35079 19.449C0.0293823 18.4626 0.331147 16.4186 1.86935 15.6082C3.1185 14.9482 4.47009 14.8802 5.81373 15.0906C6.60229 15.2146 7.37179 15.5386 8.11509 15.853C8.45815 15.9986 8.72815 16.3362 9.10376 16.6482L7.48218 17.7082C6.43315 16.8282 4.70197 16.5978 3.78715 17.209V17.7266C4.42721 18.2786 5.21179 18.2898 5.9392 18.4706C6.61738 18.6386 7.31065 18.7698 7.95626 19.0338C8.87109 19.4098 9.38885 20.1314 9.39362 21.1658C9.39362 22.1834 8.7885 22.7818 7.97691 23.2066C7.00601 23.701 5.92845 23.9448 4.84094 23.9162C3.59973 23.9026 2.36647 23.7458 1.27535 23.1042C0.799676 22.821 0.421676 22.385 0 22.0186L0 21.7882Z" fill="#D7D5D6"/>
<path d="M108.01 11.3562C107.923 11.4962 107.832 11.6322 107.751 11.7746C107.065 12.9962 105.634 13.4274 104.361 12.7258C103.561 12.2858 103.125 11.1202 103.333 10.1778C103.439 9.71144 103.683 9.2885 104.033 8.96466C104.383 8.64081 104.821 8.43127 105.292 8.36363C105.762 8.29599 106.241 8.37342 106.667 8.58573C107.092 8.79804 107.444 9.13526 107.676 9.55297C107.776 9.70337 107.888 9.84657 108.01 9.97937V11.3554V11.3562Z" fill="#D7D5D6"/>
<path d="M10.5195 15.2808H13.1997C13.754 17.1528 14.3027 19.0056 14.8499 20.8576H14.9833L16.4834 15.2696H18.8498L20.3547 20.8344L20.4833 20.8528L22.1399 15.2784H24.8144C23.852 18.1064 22.9038 20.8864 21.9477 23.6968H19.1667L17.7309 18.752L17.5927 18.7368L16.1617 23.7112H13.3958C12.45 20.9192 11.4899 18.1232 10.5195 15.2808ZM94.6475 19.7416V15.4296H97.2165V23.816H94.4165C93.1078 22.3936 91.7482 20.9152 90.3871 19.4376L90.2728 19.4816V23.8216H87.6831V15.4296H90.5713L94.5149 19.7752L94.6475 19.7416ZM80.652 15.1352C81.8932 15.1 83.0685 15.3168 84.0969 16.0712C84.5253 16.3725 84.8855 16.7618 85.1539 17.2133C85.4223 17.6649 85.5928 18.1686 85.6542 18.6912C85.8154 19.9528 85.7685 21.2008 84.9688 22.2992C84.3391 23.1704 83.4441 23.6208 82.4396 23.8144C81.0078 24.092 79.5688 24.0672 78.1617 23.6184C76.494 23.0872 75.4982 21.68 75.4053 19.9544C75.2338 16.7432 77.5764 15.2992 80.0199 15.1384C80.2327 15.1224 80.4432 15.1352 80.652 15.1352ZM82.6611 19.548C82.5897 19.164 82.5365 18.7104 82.4181 18.2744C82.2275 17.5784 81.7884 17.0856 81.0467 16.9864C80.2288 16.8776 79.491 17.0584 79.0249 17.8312C78.3737 18.9088 78.3483 20.0296 78.8954 21.1432C79.2544 21.8776 80.1192 22.2488 80.9736 22.1232C81.7733 22.008 82.3022 21.5024 82.4968 20.6384C82.5762 20.3056 82.6016 19.9632 82.6611 19.5464V19.548ZM64.1288 15.288H67.1004V18.4408H70.3928V15.2968H73.4541V23.6984H70.4238V20.468H67.1314V23.7H64.1288V15.288ZM31.0006 21.9024L32.5055 20.936C33.0566 21.2296 33.4759 21.52 33.9404 21.6856C34.8005 22.0064 35.732 22.0856 36.6341 21.9152C36.9216 21.8592 37.2773 21.7832 37.2257 21.44C37.1947 21.228 36.916 20.9576 36.6936 20.8856C36.0464 20.6768 35.3667 20.5744 34.7091 20.392C34.1278 20.232 33.5338 20.0768 32.9946 19.8184C32.1775 19.4272 31.6351 18.7944 31.6129 17.8168C31.5914 16.8064 32.1084 16.108 32.924 15.6272C34.6853 14.5952 37.9754 14.8432 39.5969 16.1024C39.7931 16.2544 40.0051 16.3832 40.21 16.5232L40.1028 16.7048L38.5519 17.7096C37.5958 16.8296 35.7844 16.584 34.8703 17.2048V17.7056C35.4818 18.2904 36.2966 18.2664 37.0335 18.464C37.7713 18.6616 38.5312 18.784 39.2054 19.1048C40.8223 19.8784 40.939 21.9576 39.4548 22.9608C38.5161 23.5968 37.4441 23.8488 36.3284 23.8928C34.8259 23.9512 33.3631 23.7568 32.0671 22.9256C31.6828 22.6872 31.3985 22.2968 31.0006 21.9024ZM50.8575 16.6528L49.2582 17.7056C48.2878 16.8816 47.2014 16.7272 46.038 16.9776C45.8371 17.02 45.5195 17.2656 45.5314 17.3928C45.5504 17.6056 45.749 17.908 45.9443 17.9808C46.5161 18.176 47.0974 18.3368 47.6874 18.4616C48.202 18.5864 48.738 18.6456 49.2328 18.8216C49.6616 18.9648 50.0602 19.1864 50.4081 19.4752C51.5746 20.5072 51.4301 22.1208 50.1301 22.9728C49.1128 23.64 47.9677 23.8904 46.7766 23.9144C45.5195 23.9336 44.283 23.7328 43.1316 23.164C42.5106 22.8568 42.0952 22.4568 41.8213 21.8376L43.2666 20.8696C44.449 21.9888 45.8673 22.1128 47.3539 21.9024C47.5921 21.868 47.8049 21.6624 48.0289 21.5344V21.3104C47.7906 21.1616 47.5723 20.9472 47.3094 20.8736C46.5264 20.6536 45.7164 20.5296 44.939 20.2864C44.3489 20.104 43.7398 19.8872 43.2348 19.5432C41.988 18.6936 41.9626 16.9984 43.1061 16.0024C43.7518 15.4408 44.5181 15.1736 45.3368 15.0848C46.9687 14.9008 48.5689 14.9912 50.0015 15.9248C50.285 16.1008 50.5176 16.356 50.8575 16.6528ZM107.637 15.4168V17.288H102.465V18.6408H105.664V20.5192H102.465V21.896H107.608V23.8192H99.3606V15.4168H107.637ZM53.0421 23.6952V15.2952C53.1366 15.2752 53.2327 15.2616 53.328 15.2552C55.3856 15.2552 57.4431 15.2392 59.4936 15.2752C60.4497 15.2928 61.3367 15.6 61.9394 16.4032C63.1679 18.036 62.3047 20.228 60.2384 20.6176C59.3728 20.7808 58.4628 20.7216 57.571 20.7496C57.0445 20.7656 56.5164 20.7496 55.9311 20.7496V23.6936L53.0421 23.6952ZM59.1187 18.6488C59.1807 18.4888 59.2315 18.3256 59.2728 18.1592C59.3736 17.6256 59.0798 17.1352 58.574 17.1112C57.7274 17.0704 56.8785 17.1 55.9828 17.1V18.8824C57.6679 19.0344 58.5605 18.9704 59.1187 18.6464V18.6488ZM29.2782 23.7184H26.5575V15.2864H29.2782V23.7184Z" fill="#D7D5D6"/>
<path d="M2.93748 8.45175C4.38834 8.43415 5.30793 9.85575 5.15148 11.0198C4.95851 12.4478 3.96031 13.207 2.65081 13.1286C1.15787 13.0406 0.365337 11.795 0.470161 10.5222C0.527984 9.9193 0.819512 9.36376 1.28146 8.97613C1.7434 8.5885 2.33847 8.40007 2.93748 8.45175ZM2.81519 12.075C3.50845 12.075 4.1096 11.5014 4.11516 10.8382C4.12132 10.6029 4.06465 10.3704 3.95108 10.1648C3.83751 9.95917 3.6712 9.78807 3.46954 9.66935C3.26731 9.55019 3.03713 9.48765 2.80285 9.48821C2.56856 9.48877 2.33868 9.55242 2.13701 9.67255C1.93603 9.79218 1.7706 9.96397 1.65801 10.17C1.54543 10.376 1.4898 10.6087 1.49695 10.8438C1.50569 11.4942 2.12907 12.075 2.81519 12.075Z" fill="#D7D5D6"/>
</g>
<defs>
<clipPath id="clip0_6329_4569">
<rect width="108" height="24" fill="white"/>
</clipPath>
</defs>
</svg>
