<svg width="201" height="32" viewBox="0 0 201 32" fill="none" xmlns="http://www.w3.org/2000/svg">
<path d="M51.228 3.00163H75.9612C76.6511 3.00163 77.2102 3.56453 77.2102 4.25922V4.55531C77.2102 5.25 76.6511 5.81291 75.9612 5.81291H65.1175V28.635C65.1175 29.3883 64.5116 29.9984 63.7634 29.9984H63.4467C62.6986 29.9984 62.0927 29.3883 62.0927 28.635V5.81453H51.228C50.5494 5.81453 50 5.26139 50 4.57809V4.2397C50 3.5564 50.551 3.00163 51.228 3.00163ZM94.8435 18.75L83.3292 5.4192C82.5133 4.47397 83.179 3.00163 84.4231 3.00163H84.5993C85.0258 3.00163 85.4314 3.19035 85.7077 3.51898L96.3575 16.2185L107.025 3.50108C107.292 3.18384 107.683 3 108.095 3H108.4C109.602 3 110.245 4.42353 109.457 5.33622L97.8699 18.7484V28.6757C97.8699 29.4062 97.2817 29.9984 96.5562 29.9984H96.1571C95.4316 29.9984 94.8435 29.4062 94.8435 28.6757V18.75ZM134.098 29.333L119.913 5.25163V28.7522C119.913 29.4404 119.359 30 118.673 30H118.126C117.442 30 116.886 29.442 116.886 28.7522V4.7359C116.886 3.77928 117.657 3.00325 118.607 3.00325H120.953C121.558 3.00325 122.117 3.32213 122.429 3.84436L136.019 26.6242L149.75 3.60846C149.975 3.23264 150.377 3.00325 150.812 3.00325H153.69C154.373 3.00325 154.929 3.56128 154.929 4.25109V28.6611C154.929 29.4013 154.333 30 153.599 30H153.239C152.504 30 151.909 29.3997 151.909 28.6611V5.62419L137.939 29.333C137.695 29.7462 137.254 30 136.775 30H135.261C134.785 30 134.342 29.7462 134.098 29.333ZM160.977 28.7652V4.23644C160.977 3.55477 161.526 3.00325 162.202 3.00325H162.775C163.452 3.00325 164 3.5564 164 4.23644V28.7652C164 29.4469 163.451 29.9984 162.775 29.9984H162.202C161.525 30 160.977 29.4469 160.977 28.7652Z" fill="#FF6634"/>
<path d="M188.568 3H179.739C177.945 3 176.435 3.12109 175.21 3.36327C173.981 3.60545 172.971 3.97032 172.179 4.45946C171.384 4.9502 170.77 5.5668 170.336 6.30768C169.904 7.05016 169.588 7.92169 169.388 8.92387C169.189 9.92287 169.075 11.0541 169.047 12.3144C169.016 13.5747 169 14.9688 169 16.5C169 18.0296 169.016 19.4253 169.047 20.6856C169.077 21.9459 169.191 23.0755 169.388 24.0761C169.588 25.0783 169.904 25.9498 170.336 26.6923C170.77 27.4348 171.384 28.0498 172.179 28.5405C172.971 29.0297 173.983 29.3945 175.21 29.6367C176.437 29.8789 177.945 30 179.739 30H188.568C190.358 30 191.869 29.8789 193.097 29.6367C194.324 29.3945 195.335 29.0297 196.128 28.5405C196.923 28.0498 197.534 27.4332 197.961 26.6923C197.979 26.6604 197.994 26.627 198.005 26.5919L199.78 27.8395L201 25.6806L198.879 24.1813C198.89 24.1462 198.895 24.1128 198.895 24.0777C199.097 23.0787 199.216 21.9475 199.252 20.6872C199.287 19.4269 199.305 18.0328 199.305 16.5016C199.305 14.972 199.287 13.5763 199.252 12.316C199.216 11.0557 199.1 9.92606 198.901 8.92547C198.703 7.92329 198.39 7.05175 197.963 6.30927C197.536 5.5668 196.925 4.95179 196.13 4.46105C195.335 3.97191 194.324 3.60704 193.099 3.36486C191.869 3.12109 190.358 3 188.568 3ZM188.568 27.2962H179.739C178.436 27.2962 177.338 27.2532 176.445 27.1687C175.553 27.0859 174.819 26.9138 174.239 26.6541C173.657 26.396 173.21 26.0247 172.899 25.542C172.591 25.0576 172.365 24.4171 172.221 23.6204C172.08 22.8206 171.996 21.8391 171.97 20.6728C171.944 19.5097 171.93 18.1188 171.93 16.4984C171.93 14.878 171.941 13.4871 171.961 12.324C171.982 11.1577 172.063 10.1762 172.205 9.37637C172.348 8.57972 172.578 7.93922 172.893 7.45486C173.207 6.97049 173.655 6.60085 174.239 6.34273C174.819 6.08303 175.553 5.91095 176.445 5.8281C177.338 5.74206 178.436 5.70063 179.739 5.70063H188.568C189.871 5.70063 190.968 5.74366 191.859 5.8281C192.75 5.91095 193.484 6.08303 194.059 6.34273C194.634 6.60085 195.08 6.97209 195.395 7.45486C195.713 7.93922 195.941 8.57972 196.082 9.37637C196.224 10.1762 196.309 11.1577 196.335 12.324C196.359 13.4871 196.372 14.878 196.372 16.4984C196.372 18.1188 196.356 19.5129 196.325 20.684C196.314 21.2687 196.289 21.8089 196.25 22.3044L187.313 15.9599L186.076 18.1363L195.7 24.9508C195.608 25.1771 195.506 25.3731 195.393 25.542C195.079 26.0263 194.631 26.396 194.051 26.6541C193.469 26.9138 192.732 27.0859 191.843 27.1687C190.951 27.2548 189.86 27.2962 188.568 27.2962Z" fill="#FF6634"/>
<path d="M13.7267 4.74149L14.6858 4.74313C14.8511 4.74313 14.9869 4.6106 14.9885 4.44372L15 3.19208C15 1.43161 13.5679 0 11.8069 0H2.65794C1.18985 0 0 1.18946 0 2.65707V11.8079C0 13.5684 1.43208 15 3.19313 15L4.67921 14.9836C4.85761 14.982 5.00164 14.8364 5.00327 14.658L5.00491 13.7582C5.00491 13.5782 4.85925 13.431 4.67921 13.431L3.19476 13.4277C2.30115 13.4277 1.57611 12.7029 1.57611 11.8079V2.65707C1.57611 2.05824 2.06219 1.57395 2.65957 1.57395H11.8085C12.7021 1.57395 13.4272 2.29875 13.4272 3.19372L13.4255 4.44044C13.4255 4.60569 13.5597 4.74149 13.7267 4.74149Z" fill="#FF6634"/>
<path d="M33.5103 0.733832C33.9285 0.733832 34.2655 1.07216 34.2655 1.4899V5.5101C34.2655 5.92784 33.9269 6.26616 33.5103 6.26616H29.4897C29.0715 6.26616 28.7345 5.92784 28.7345 5.5101V1.4899C28.7345 1.07216 29.0731 0.733832 29.4897 0.733832H33.5103ZM33.5103 0H29.4897C28.6677 0 28 0.66871 28 1.4899V5.5101C28 6.33129 28.6693 7 29.4897 7H33.5103C34.3323 7 35 6.33129 35 5.5101V1.4899C35.0016 0.66871 34.3323 0 33.5103 0Z" fill="#FF6634"/>
<path d="M23.3178 6H10.6822C8.09976 6 6 8.10029 6 10.683V23.317C6 25.8981 8.10137 28 10.6822 28H23.3178C25.9002 28 28 25.8997 28 23.317V10.683C28 8.10029 25.9002 6 23.3178 6ZM25.6927 23.317C25.6927 24.6292 24.6291 25.6922 23.3178 25.6922H10.6822C10.2703 25.6922 9.88415 25.5877 9.54626 25.4028C8.87208 25.0409 8.39421 24.3591 8.32019 23.5598C8.31215 23.4794 8.30732 23.399 8.30732 23.317V10.683C8.30732 10.675 8.30893 10.6686 8.30893 10.6605V10.6493C8.30893 9.35629 9.35801 8.30775 10.6516 8.30775H10.6774C10.679 8.30775 10.6806 8.30775 10.6838 8.30775H23.3194C23.321 8.30775 23.3226 8.30775 23.3258 8.30775H23.3403C24.2349 8.30775 25.0105 8.8079 25.4063 9.54445C25.5913 9.88217 25.6959 10.2697 25.6959 10.6814V23.317H25.6927Z" fill="#FF6634"/>
<path d="M30.4344 21.0031L30.1137 21.0078C29.9915 21.0093 29.8863 21.1269 29.8863 21.2397L29.8999 21.8524C29.8999 21.9652 29.9983 22.0576 30.1205 22.0592L30.9842 22.0717C31.3999 22.078 31.7392 22.3977 31.7392 22.7816V30.1447C31.7392 30.5255 31.405 30.8342 30.9926 30.8342H23.5436C22.8275 30.8342 22.2472 30.2983 22.2472 29.6355V29.5242C22.2472 29.3879 22.1284 29.2766 21.9808 29.2782L21.2647 29.2798C21.1171 29.2798 20.9983 29.391 21 29.5273V29.6386C21 30.9407 22.1335 32 23.5436 32H30.9926C32.1007 32 33 31.1695 33 30.1463V23.2611C33.0034 21.6236 32.4299 20.9482 30.4344 21.0031Z" fill="#FF6634"/>
</svg>
