<svg width="62" height="62" viewBox="0 0 62 62" fill="none" xmlns="http://www.w3.org/2000/svg">
<g clip-path="url(#clip0_6729_5954)">
<rect width="62" height="62" rx="7.93442" fill="#FFFDFD"/>
<circle cx="41.999" cy="18.001" r="13.4951" fill="#CCDCF6"/>
<circle cx="19.6475" cy="43.001" r="13.4951" fill="#CCDCF6"/>
<mask id="path-4-inside-1_6729_5954" fill="white">
<path fill-rule="evenodd" clip-rule="evenodd" d="M39.3146 7.15234C39.0854 7.15234 38.8997 7.33811 38.8997 7.56727V9.4535C37.713 9.88919 36.6424 10.5695 35.7475 11.434L34.1502 10.3692C33.9596 10.2421 33.7034 10.2946 33.5782 10.4865L31.2359 14.0744C31.1106 14.2663 31.1636 14.5249 31.3543 14.652L33.208 15.8878C33.0447 16.5742 32.9583 17.2908 32.9583 18.0278C32.9583 18.592 33.0089 19.1443 33.106 19.6802L31.3543 20.848C31.1636 20.9751 31.1106 21.2337 31.2359 21.4256L33.5566 24.9805C33.6819 25.1724 33.938 25.2249 34.1287 25.0978L35.3904 24.2567C36.3869 25.3334 37.6386 26.1658 39.0481 26.6551V28.4311C39.0481 28.6603 39.2339 28.8461 39.463 28.8461H44.5178C44.747 28.8461 44.9327 28.6603 44.9327 28.4311V26.6475C46.3118 26.1648 47.539 25.3534 48.5228 24.306L49.6697 25.0852C49.8593 25.214 50.1158 25.1637 50.2427 24.9728L52.5929 21.4378C52.7197 21.2469 52.6689 20.9878 52.4794 20.8591L50.841 19.746C50.946 19.1895 51.0009 18.6151 51.0009 18.0278C51.0009 17.3021 50.917 16.5962 50.7586 15.9194L52.6496 14.6347C52.8392 14.5059 52.89 14.2468 52.7631 14.056L50.3911 10.4881C50.2642 10.2973 50.0077 10.247 49.8182 10.3758L48.2318 11.4535C47.2644 10.5131 46.0899 9.78886 44.7843 9.35755V7.56727C44.7843 7.33811 44.5985 7.15234 44.3694 7.15234H39.3146ZM41.8204 22.067C44.0591 22.067 45.8739 20.2459 45.8739 17.9993C45.8739 15.7528 44.0591 13.9316 41.8204 13.9316C39.5817 13.9316 37.7668 15.7528 37.7668 17.9993C37.7668 20.2459 39.5817 22.067 41.8204 22.067Z"/>
</mask>
<path d="M38.8997 9.4535L39.2429 10.3884L39.8956 10.1488V9.4535H38.8997ZM35.7475 11.434L35.1951 12.2627L35.8625 12.7077L36.4395 12.1503L35.7475 11.434ZM34.1502 10.3692L34.7027 9.54054L34.7027 9.54054L34.1502 10.3692ZM33.5782 10.4865L34.4121 11.0309L33.5782 10.4865ZM31.2359 14.0744L30.4019 13.53H30.4019L31.2359 14.0744ZM31.3543 14.652L31.9067 13.8234H31.9067L31.3543 14.652ZM33.208 15.8878L34.1769 16.1183L34.3374 15.4438L33.7604 15.0592L33.208 15.8878ZM33.106 19.6802L33.6584 20.5088L34.2025 20.1461L34.086 19.5027L33.106 19.6802ZM31.3543 20.848L31.9067 21.6766L31.9067 21.6766L31.3543 20.848ZM31.2359 21.4256L32.0698 20.8811L32.0698 20.8811L31.2359 21.4256ZM33.5566 24.9805L34.3906 24.4361H34.3906L33.5566 24.9805ZM34.1287 25.0978L34.6811 25.9265H34.6811L34.1287 25.0978ZM35.3904 24.2567L36.1213 23.5802L35.5445 22.9569L34.838 23.428L35.3904 24.2567ZM39.0481 26.6551H40.044V25.9466L39.3747 25.7142L39.0481 26.6551ZM44.9327 26.6475L44.6037 25.7075L43.9368 25.9409V26.6475H44.9327ZM48.5228 24.306L49.0825 23.4822L48.379 23.0043L47.7968 23.6241L48.5228 24.306ZM49.6697 25.0852L49.1101 25.909H49.1101L49.6697 25.0852ZM50.2427 24.9728L49.4133 24.4214V24.4214L50.2427 24.9728ZM52.5929 21.4378L53.4222 21.9892V21.9892L52.5929 21.4378ZM52.4794 20.8591L51.9197 21.6829L51.9197 21.6829L52.4794 20.8591ZM50.841 19.746L49.8623 19.5614L49.7414 20.2029L50.2813 20.5698L50.841 19.746ZM50.7586 15.9194L50.1989 15.0956L49.6329 15.4802L49.7889 16.1465L50.7586 15.9194ZM52.6496 14.6347L52.0899 13.8109V13.8109L52.6496 14.6347ZM52.7631 14.056L53.5925 13.5046L52.7631 14.056ZM50.3911 10.4881L49.5617 11.0395V11.0395L50.3911 10.4881ZM49.8182 10.3758L49.2585 9.55196V9.55196L49.8182 10.3758ZM48.2318 11.4535L47.5376 12.1677L48.1198 12.7336L48.7915 12.2773L48.2318 11.4535ZM44.7843 9.35755H43.7884V10.0774L44.4719 10.3032L44.7843 9.35755ZM39.8956 7.56727C39.8956 7.88815 39.6355 8.14827 39.3146 8.14827V6.15641C38.5354 6.15641 37.9037 6.78808 37.9037 7.56727H39.8956ZM39.8956 9.4535V7.56727H37.9037V9.4535H39.8956ZM36.4395 12.1503C37.2368 11.38 38.1893 10.7752 39.2429 10.3884L38.5564 8.51859C37.2367 9.00313 36.0479 9.75896 35.0555 10.7178L36.4395 12.1503ZM33.5978 11.1979L35.1951 12.2627L36.2999 10.6054L34.7027 9.54054L33.5978 11.1979ZM34.4121 11.0309C34.2347 11.3028 33.8679 11.3779 33.5978 11.1979L34.7027 9.54054C34.0512 9.10624 33.1722 9.28645 32.7442 9.94206L34.4121 11.0309ZM32.0698 14.6189L34.4121 11.0309L32.7442 9.94206L30.4019 13.53L32.0698 14.6189ZM31.9067 13.8234C32.1706 13.9993 32.2432 14.3533 32.0698 14.6189L30.4019 13.53C29.978 14.1793 30.1566 15.0506 30.8018 15.4807L31.9067 13.8234ZM33.7604 15.0592L31.9067 13.8234L30.8018 15.4807L32.6556 16.7165L33.7604 15.0592ZM33.9542 18.0278C33.9542 17.3689 34.0315 16.7297 34.1769 16.1183L32.2391 15.6574C32.058 16.4187 31.9623 17.2126 31.9623 18.0278H33.9542ZM34.086 19.5027C33.9995 19.0251 33.9542 18.5322 33.9542 18.0278H31.9623C31.9623 18.6518 32.0184 19.2634 32.126 19.8576L34.086 19.5027ZM31.9067 21.6766L33.6584 20.5088L32.5535 18.8515L30.8018 20.0193L31.9067 21.6766ZM32.0698 20.8811C32.2432 21.1467 32.1706 21.5007 31.9067 21.6766L30.8018 20.0193C30.1566 20.4494 29.978 21.3207 30.4019 21.97L32.0698 20.8811ZM34.3906 24.4361L32.0698 20.8811L30.4019 21.97L32.7227 25.5249L34.3906 24.4361ZM33.5763 24.2691C33.8464 24.0891 34.2131 24.1642 34.3906 24.4361L32.7227 25.5249C33.1507 26.1805 34.0297 26.3608 34.6811 25.9265L33.5763 24.2691ZM34.838 23.428L33.5763 24.2691L34.6811 25.9265L35.9428 25.0853L34.838 23.428ZM39.3747 25.7142C38.1234 25.2798 37.0095 24.5399 36.1213 23.5802L34.6594 24.9331C35.7643 26.1269 37.1538 27.0517 38.7215 27.5959L39.3747 25.7142ZM40.044 28.4311V26.6551H38.0522V28.4311H40.044ZM39.463 27.8501C39.7839 27.8501 40.044 28.1103 40.044 28.4311H38.0522C38.0522 29.2103 38.6838 29.842 39.463 29.842V27.8501ZM44.5178 27.8501H39.463V29.842H44.5178V27.8501ZM43.9368 28.4311C43.9368 28.1103 44.1969 27.8501 44.5178 27.8501V29.842C45.297 29.842 45.9287 29.2103 45.9287 28.4311H43.9368ZM43.9368 26.6475V28.4311H45.9287V26.6475H43.9368ZM47.7968 23.6241C46.9201 24.5576 45.828 25.2789 44.6037 25.7075L45.2618 27.5875C46.7956 27.0506 48.158 26.1491 49.2487 24.9878L47.7968 23.6241ZM50.2294 24.2614L49.0825 23.4822L47.9631 25.1298L49.1101 25.909L50.2294 24.2614ZM49.4133 24.4214C49.5931 24.151 49.9608 24.0789 50.2294 24.2614L49.1101 25.909C49.7578 26.3491 50.6385 26.1763 51.072 25.5242L49.4133 24.4214ZM51.7635 20.8864L49.4133 24.4214L51.072 25.5242L53.4222 21.9892L51.7635 20.8864ZM51.9197 21.6829C51.6575 21.5047 51.588 21.1504 51.7635 20.8864L53.4222 21.9892C53.8515 21.3435 53.6803 20.471 53.039 20.0353L51.9197 21.6829ZM50.2813 20.5698L51.9197 21.6829L53.039 20.0353L51.4007 18.9222L50.2813 20.5698ZM50.005 18.0278C50.005 18.5529 49.9559 19.0655 49.8623 19.5614L51.8197 19.9306C51.9361 19.3135 51.9968 18.6774 51.9968 18.0278H50.005ZM49.7889 16.1465C49.93 16.7493 50.005 17.379 50.005 18.0278H51.9968C51.9968 17.2251 51.9041 16.4431 51.7283 15.6924L49.7889 16.1465ZM52.0899 13.8109L50.1989 15.0956L51.3183 16.7432L53.2093 15.4585L52.0899 13.8109ZM51.9337 14.6074C51.7583 14.3434 51.8277 13.989 52.0899 13.8109L53.2093 15.4585C53.8506 15.0228 54.0217 14.1502 53.5925 13.5046L51.9337 14.6074ZM49.5617 11.0395L51.9337 14.6074L53.5925 13.5046L51.2205 9.93673L49.5617 11.0395ZM50.3778 11.1995C50.1092 11.3821 49.7415 11.31 49.5617 11.0395L51.2205 9.93673C50.7869 9.28459 49.9062 9.11188 49.2585 9.55196L50.3778 11.1995ZM48.7915 12.2773L50.3778 11.1995L49.2585 9.55196L47.6721 10.6297L48.7915 12.2773ZM44.4719 10.3032C45.6308 10.6861 46.6756 11.3297 47.5376 12.1677L48.926 10.7394C47.8531 9.69652 46.5489 8.89164 45.0967 8.41188L44.4719 10.3032ZM43.7884 7.56727V9.35755H45.7802V7.56727H43.7884ZM44.3694 8.14827C44.0485 8.14827 43.7884 7.88815 43.7884 7.56727H45.7802C45.7802 6.78808 45.1486 6.15641 44.3694 6.15641V8.14827ZM39.3146 8.14827H44.3694V6.15641H39.3146V8.14827ZM44.878 17.9993C44.878 19.6991 43.5058 21.0711 41.8204 21.0711V23.063C44.6124 23.063 46.8699 20.7926 46.8699 17.9993H44.878ZM41.8204 14.9276C43.5058 14.9276 44.878 16.2996 44.878 17.9993H46.8699C46.8699 15.206 44.6124 12.9357 41.8204 12.9357V14.9276ZM38.7628 17.9993C38.7628 16.2996 40.135 14.9276 41.8204 14.9276V12.9357C39.0284 12.9357 36.7709 15.206 36.7709 17.9993H38.7628ZM41.8204 21.0711C40.135 21.0711 38.7628 19.6991 38.7628 17.9993H36.7709C36.7709 20.7926 39.0284 23.063 41.8204 23.063V21.0711Z" fill="#7A9CD2" mask="url(#path-4-inside-1_6729_5954)"/>
<mask id="path-6-inside-2_6729_5954" fill="white">
<path fill-rule="evenodd" clip-rule="evenodd" d="M16.963 32.1523C16.7339 32.1523 16.5481 32.3381 16.5481 32.5673V34.4535C15.3614 34.8892 14.2908 35.5695 13.3959 36.434L11.7987 35.3692C11.608 35.2421 11.3519 35.2946 11.2266 35.4865L8.8843 39.0744C8.75903 39.2663 8.81205 39.5249 9.00272 39.652L10.8564 40.8878C10.6932 41.5742 10.6067 42.2908 10.6067 43.0278C10.6067 43.592 10.6574 44.1443 10.7544 44.6802L9.00272 45.848C8.81205 45.9751 8.75903 46.2337 8.8843 46.4256L11.2051 49.9805C11.3303 50.1724 11.5865 50.2249 11.7771 50.0978L13.0388 49.2567C14.0353 50.3334 15.2871 51.1658 16.6965 51.6551V53.4311C16.6965 53.6603 16.8823 53.8461 17.1115 53.8461H22.1662C22.3954 53.8461 22.5812 53.6603 22.5812 53.4311V51.6475C23.9602 51.1648 25.1875 50.3534 26.1712 49.306L27.3182 50.0852C27.5077 50.214 27.7642 50.1637 27.8911 49.9728L30.2413 46.4378C30.3682 46.2469 30.3174 45.9878 30.1278 45.8591L28.4895 44.746C28.5944 44.1895 28.6493 43.6151 28.6493 43.0278C28.6493 42.3021 28.5655 41.5962 28.407 40.9194L30.2981 39.6347C30.4876 39.5059 30.5384 39.2468 30.4116 39.056L28.0395 35.4881C27.9127 35.2973 27.6562 35.247 27.4666 35.3758L25.8802 36.4535C24.9128 35.5131 23.7383 34.7889 22.4327 34.3575V32.5673C22.4327 32.3381 22.247 32.1523 22.0178 32.1523H16.963ZM19.4688 47.067C21.7075 47.067 23.5224 45.2459 23.5224 42.9993C23.5224 40.7528 21.7075 38.9316 19.4688 38.9316C17.2301 38.9316 15.4153 40.7528 15.4153 42.9993C15.4153 45.2459 17.2301 47.067 19.4688 47.067Z"/>
</mask>
<path d="M16.5481 34.4535L16.8914 35.3884L17.544 35.1488V34.4535H16.5481ZM13.3959 36.434L12.8435 37.2627L13.511 37.7077L14.0879 37.1503L13.3959 36.434ZM11.7987 35.3692L12.3511 34.5405L12.3511 34.5405L11.7987 35.3692ZM11.2266 35.4865L12.0606 36.0309L11.2266 35.4865ZM8.8843 39.0744L8.05035 38.53H8.05035L8.8843 39.0744ZM9.00272 39.652L9.55516 38.8234H9.55516L9.00272 39.652ZM10.8564 40.8878L11.8253 41.1183L11.9858 40.4438L11.4089 40.0592L10.8564 40.8878ZM10.7544 44.6802L11.3069 45.5088L11.8509 45.1461L11.7344 44.5027L10.7544 44.6802ZM9.00272 45.848L9.55516 46.6766L9.55516 46.6766L9.00272 45.848ZM8.8843 46.4256L9.71825 45.8811L9.71825 45.8811L8.8843 46.4256ZM11.2051 49.9805L12.039 49.4361H12.039L11.2051 49.9805ZM11.7771 50.0978L12.3296 50.9265H12.3296L11.7771 50.0978ZM13.0388 49.2567L13.7698 48.5802L13.193 47.9569L12.4864 48.428L13.0388 49.2567ZM16.6965 51.6551H17.6925V50.9466L17.0232 50.7142L16.6965 51.6551ZM22.5812 51.6475L22.2521 50.7075L21.5852 50.9409V51.6475H22.5812ZM26.1712 49.306L26.7309 48.4822L26.0275 48.0043L25.4453 48.6241L26.1712 49.306ZM27.3182 50.0852L26.7585 50.909H26.7585L27.3182 50.0852ZM27.8911 49.9728L27.0617 49.4214V49.4214L27.8911 49.9728ZM30.2413 46.4378L31.0707 46.9892V46.9892L30.2413 46.4378ZM30.1278 45.8591L29.5681 46.6829L29.5681 46.6829L30.1278 45.8591ZM28.4895 44.746L27.5108 44.5614L27.3898 45.2029L27.9298 45.5698L28.4895 44.746ZM28.407 40.9194L27.8474 40.0956L27.2813 40.4802L27.4373 41.1465L28.407 40.9194ZM30.2981 39.6347L29.7384 38.8109V38.8109L30.2981 39.6347ZM30.4116 39.056L31.2409 38.5046L30.4116 39.056ZM28.0395 35.4881L27.2102 36.0395V36.0395L28.0395 35.4881ZM27.4666 35.3758L26.9069 34.552V34.552L27.4666 35.3758ZM25.8802 36.4535L25.186 37.1677L25.7682 37.7336L26.4399 37.2773L25.8802 36.4535ZM22.4327 34.3575H21.4368V35.0774L22.1203 35.3032L22.4327 34.3575ZM17.544 32.5673C17.544 32.8881 17.2839 33.1483 16.963 33.1483V31.1564C16.1838 31.1564 15.5522 31.7881 15.5522 32.5673H17.544ZM17.544 34.4535V32.5673H15.5522V34.4535H17.544ZM14.0879 37.1503C14.8853 36.38 15.8377 35.7752 16.8914 35.3884L16.2048 33.5186C14.8851 34.0031 13.6964 34.759 12.7039 35.7178L14.0879 37.1503ZM11.2462 36.1979L12.8435 37.2627L13.9484 35.6054L12.3511 34.5405L11.2462 36.1979ZM12.0606 36.0309C11.8831 36.3028 11.5163 36.3779 11.2462 36.1979L12.3511 34.5405C11.6997 34.1062 10.8207 34.2865 10.3927 34.9421L12.0606 36.0309ZM9.71825 39.6189L12.0606 36.0309L10.3927 34.9421L8.05035 38.53L9.71825 39.6189ZM9.55516 38.8234C9.81903 38.9993 9.89161 39.3533 9.71825 39.6189L8.05035 38.53C7.62644 39.1793 7.80506 40.0506 8.45028 40.4807L9.55516 38.8234ZM11.4089 40.0592L9.55516 38.8234L8.45028 40.4807L10.304 41.7165L11.4089 40.0592ZM11.6026 43.0278C11.6026 42.3689 11.6799 41.7297 11.8253 41.1183L9.88755 40.6574C9.70644 41.4187 9.61076 42.2126 9.61076 43.0278H11.6026ZM11.7344 44.5027C11.6479 44.0251 11.6026 43.5322 11.6026 43.0278H9.61076C9.61076 43.6518 9.66683 44.2634 9.77441 44.8576L11.7344 44.5027ZM9.55516 46.6766L11.3069 45.5088L10.202 43.8515L8.45028 45.0193L9.55516 46.6766ZM9.71825 45.8811C9.89161 46.1467 9.81903 46.5007 9.55516 46.6766L8.45028 45.0193C7.80506 45.4494 7.62644 46.3207 8.05035 46.97L9.71825 45.8811ZM12.039 49.4361L9.71825 45.8811L8.05035 46.97L10.3711 50.5249L12.039 49.4361ZM11.2247 49.2691C11.4948 49.0891 11.8616 49.1642 12.039 49.4361L10.3711 50.5249C10.7991 51.1805 11.6781 51.3608 12.3296 50.9265L11.2247 49.2691ZM12.4864 48.428L11.2247 49.2691L12.3296 50.9265L13.5913 50.0853L12.4864 48.428ZM17.0232 50.7142C15.7719 50.2798 14.658 49.5399 13.7698 48.5802L12.3079 49.9331C13.4127 51.1269 14.8023 52.0517 16.3699 52.5959L17.0232 50.7142ZM17.6925 53.4311V51.6551H15.7006V53.4311H17.6925ZM17.1115 52.8501C17.4323 52.8501 17.6925 53.1103 17.6925 53.4311H15.7006C15.7006 54.2103 16.3323 54.842 17.1115 54.842V52.8501ZM22.1662 52.8501H17.1115V54.842H22.1662V52.8501ZM21.5852 53.4311C21.5852 53.1103 21.8454 52.8501 22.1662 52.8501V54.842C22.9454 54.842 23.5771 54.2103 23.5771 53.4311H21.5852ZM21.5852 51.6475V53.4311H23.5771V51.6475H21.5852ZM25.4453 48.6241C24.5685 49.5576 23.4764 50.2789 22.2521 50.7075L22.9102 52.5875C24.444 52.0506 25.8064 51.1491 26.8972 49.9878L25.4453 48.6241ZM27.8778 49.2614L26.7309 48.4822L25.6115 50.1298L26.7585 50.909L27.8778 49.2614ZM27.0617 49.4214C27.2415 49.151 27.6092 49.0789 27.8778 49.2614L26.7585 50.909C27.4062 51.3491 28.2869 51.1763 28.7205 50.5242L27.0617 49.4214ZM29.4119 45.8864L27.0617 49.4214L28.7205 50.5242L31.0707 46.9892L29.4119 45.8864ZM29.5681 46.6829C29.3059 46.5047 29.2364 46.1504 29.4119 45.8864L31.0707 46.9892C31.4999 46.3435 31.3288 45.471 30.6875 45.0353L29.5681 46.6829ZM27.9298 45.5698L29.5681 46.6829L30.6875 45.0353L29.0491 43.9222L27.9298 45.5698ZM27.6534 43.0278C27.6534 43.5529 27.6043 44.0655 27.5108 44.5614L29.4681 44.9306C29.5845 44.3135 29.6453 43.6774 29.6453 43.0278H27.6534ZM27.4373 41.1465C27.5785 41.7493 27.6534 42.379 27.6534 43.0278H29.6453C29.6453 42.2251 29.5525 41.4431 29.3767 40.6924L27.4373 41.1465ZM29.7384 38.8109L27.8474 40.0956L28.9667 41.7432L30.8577 40.4585L29.7384 38.8109ZM29.5822 39.6074C29.4067 39.3434 29.4762 38.989 29.7384 38.8109L30.8577 40.4585C31.499 40.0228 31.6702 39.1502 31.2409 38.5046L29.5822 39.6074ZM27.2102 36.0395L29.5822 39.6074L31.2409 38.5046L28.8689 34.9367L27.2102 36.0395ZM28.0263 36.1995C27.7576 36.3821 27.39 36.31 27.2102 36.0395L28.8689 34.9367C28.4354 34.2846 27.5547 34.1119 26.9069 34.552L28.0263 36.1995ZM26.4399 37.2773L28.0263 36.1995L26.9069 34.552L25.3205 35.6297L26.4399 37.2773ZM22.1203 35.3032C23.2793 35.6861 24.324 36.3297 25.186 37.1677L26.5744 35.7394C25.5016 34.6965 24.1974 33.8916 22.7451 33.4119L22.1203 35.3032ZM21.4368 32.5673V34.3575H23.4287V32.5673H21.4368ZM22.0178 33.1483C21.6969 33.1483 21.4368 32.8881 21.4368 32.5673H23.4287C23.4287 31.7881 22.797 31.1564 22.0178 31.1564V33.1483ZM16.963 33.1483H22.0178V31.1564H16.963V33.1483ZM22.5264 42.9993C22.5264 44.6991 21.1542 46.0711 19.4688 46.0711V48.063C22.2608 48.063 24.5183 45.7926 24.5183 42.9993H22.5264ZM19.4688 39.9276C21.1542 39.9276 22.5264 41.2996 22.5264 42.9993H24.5183C24.5183 40.206 22.2608 37.9357 19.4688 37.9357V39.9276ZM16.4112 42.9993C16.4112 41.2996 17.7834 39.9276 19.4688 39.9276V37.9357C16.6768 37.9357 14.4194 40.206 14.4194 42.9993H16.4112ZM19.4688 46.0711C17.7834 46.0711 16.4112 44.6991 16.4112 42.9993H14.4194C14.4194 45.7926 16.6768 48.063 19.4688 48.063V46.0711Z" fill="#7A9CD2" mask="url(#path-6-inside-2_6729_5954)"/>
<path d="M28.8982 7.50676C34.7707 0.599467 45.13 -0.240063 52.038 5.63302C58.946 11.5061 59.7842 21.8655 53.9118 28.7728C48.0393 35.6801 37.68 36.5196 30.772 30.6465C23.8639 24.7735 13.5046 25.613 7.63219 32.5203C1.75974 39.4276 2.5979 49.787 9.50593 55.6601C16.414 61.5331 26.7733 60.6936 32.6457 53.7863" stroke="#7A9CD2"/>
<path d="M30.7365 54.8321L29.6272 53.8785C29.3321 53.6249 29.4161 53.1478 29.7801 53.0102L34.1019 51.3766C34.4815 51.2331 34.8694 51.5665 34.7845 51.9633L33.8182 56.4814C33.7368 56.8619 33.2778 57.0166 32.9826 56.763L30.7365 54.8321Z" fill="#7A9CD2"/>
<path d="M30.1026 7.68566L31.2644 8.57454C31.5734 8.81101 31.5167 9.29208 31.1611 9.45017L26.9393 11.3271C26.5685 11.492 26.1623 11.1812 26.2244 10.7802L26.932 6.21443C26.9916 5.82987 27.4411 5.64931 27.7502 5.88578L30.1026 7.68566Z" fill="#7A9CD2"/>
</g>
<defs>
<clipPath id="clip0_6729_5954">
<rect width="62" height="62" rx="7.93442" fill="white"/>
</clipPath>
</defs>
</svg>
