<svg width="62" height="62" viewBox="0 0 62 62" fill="none" xmlns="http://www.w3.org/2000/svg">
<rect width="62" height="62" rx="5" fill="#FFFDFD"/>
<mask id="path-2-outside-1_2459_10176" maskUnits="userSpaceOnUse" x="7" y="7" width="46" height="46" fill="black">
<rect fill="white" x="7" y="7" width="46" height="46"/>
<path fill-rule="evenodd" clip-rule="evenodd" d="M24.309 8C24.0385 8 23.8192 8.21926 23.8192 8.48974V12.6776C21.4114 13.5637 19.2392 14.9487 17.4239 16.7096L13.8837 14.3397C13.659 14.1893 13.3572 14.2511 13.2098 14.4779L8.07979 22.3684C7.93236 22.5951 7.99505 22.9009 8.21982 23.0514L12.2793 25.7688C11.9484 27.1651 11.7732 28.6229 11.7732 30.1222C11.7732 31.2686 11.8756 32.3907 12.0717 33.4795L8.21982 36.058C7.99505 36.2085 7.93236 36.5143 8.07979 36.741L13.1662 44.5644C13.3136 44.7911 13.6153 44.853 13.8401 44.7025L16.6976 42.7897C18.7137 44.978 21.2459 46.6703 24.0972 47.6665V51.6305C24.0972 51.901 24.3165 52.1203 24.5869 52.1203H35.5282C35.7987 52.1203 36.018 51.901 36.018 51.6305V47.6599C38.8154 46.6789 41.305 45.0277 43.3003 42.8954L45.8996 44.6686C46.123 44.821 46.4252 44.7618 46.5745 44.5363L51.7254 36.7566C51.8747 36.5311 51.8146 36.2247 51.5912 36.0723L47.9983 33.6213C48.2114 32.4882 48.323 31.3184 48.323 30.1222C48.323 28.6425 48.1523 27.2033 47.8298 25.8237L51.9299 23.0267C52.1533 22.8743 52.2134 22.5679 52.0641 22.3424L46.869 14.4961C46.7197 14.2705 46.4175 14.2113 46.1941 14.3637L42.7065 16.7429C40.7506 14.8358 38.3775 13.3664 35.74 12.4897V8.48974C35.74 8.21926 35.5207 8 35.2503 8H24.309ZM29.7159 38.3366C34.2509 38.3366 37.9273 34.6322 37.9273 30.0626C37.9273 25.4929 34.2509 21.7885 29.7159 21.7885C25.1808 21.7885 21.5044 25.4929 21.5044 30.0626C21.5044 34.6322 25.1808 38.3366 29.7159 38.3366Z"/>
</mask>
<path fill-rule="evenodd" clip-rule="evenodd" d="M24.309 8C24.0385 8 23.8192 8.21926 23.8192 8.48974V12.6776C21.4114 13.5637 19.2392 14.9487 17.4239 16.7096L13.8837 14.3397C13.659 14.1893 13.3572 14.2511 13.2098 14.4779L8.07979 22.3684C7.93236 22.5951 7.99505 22.9009 8.21982 23.0514L12.2793 25.7688C11.9484 27.1651 11.7732 28.6229 11.7732 30.1222C11.7732 31.2686 11.8756 32.3907 12.0717 33.4795L8.21982 36.058C7.99505 36.2085 7.93236 36.5143 8.07979 36.741L13.1662 44.5644C13.3136 44.7911 13.6153 44.853 13.8401 44.7025L16.6976 42.7897C18.7137 44.978 21.2459 46.6703 24.0972 47.6665V51.6305C24.0972 51.901 24.3165 52.1203 24.5869 52.1203H35.5282C35.7987 52.1203 36.018 51.901 36.018 51.6305V47.6599C38.8154 46.6789 41.305 45.0277 43.3003 42.8954L45.8996 44.6686C46.123 44.821 46.4252 44.7618 46.5745 44.5363L51.7254 36.7566C51.8747 36.5311 51.8146 36.2247 51.5912 36.0723L47.9983 33.6213C48.2114 32.4882 48.323 31.3184 48.323 30.1222C48.323 28.6425 48.1523 27.2033 47.8298 25.8237L51.9299 23.0267C52.1533 22.8743 52.2134 22.5679 52.0641 22.3424L46.869 14.4961C46.7197 14.2705 46.4175 14.2113 46.1941 14.3637L42.7065 16.7429C40.7506 14.8358 38.3775 13.3664 35.74 12.4897V8.48974C35.74 8.21926 35.5207 8 35.2503 8H24.309ZM29.7159 38.3366C34.2509 38.3366 37.9273 34.6322 37.9273 30.0626C37.9273 25.4929 34.2509 21.7885 29.7159 21.7885C25.1808 21.7885 21.5044 25.4929 21.5044 30.0626C21.5044 34.6322 25.1808 38.3366 29.7159 38.3366Z" fill="#CCDCF6"/>
<path d="M23.8192 12.6776L24.1059 13.4566L24.6492 13.2566V12.6776H23.8192ZM17.4239 16.7096L16.9622 17.3993L17.52 17.7727L18.0018 17.3053L17.4239 16.7096ZM13.8837 14.3397L13.422 15.0295L13.422 15.0295L13.8837 14.3397ZM13.2098 14.4779L12.5139 14.0255L12.5139 14.0255L13.2098 14.4779ZM8.07979 22.3684L8.77565 22.8208L8.77565 22.8208L8.07979 22.3684ZM8.21982 23.0514L8.68153 22.3616L8.68152 22.3616L8.21982 23.0514ZM12.2793 25.7688L13.0869 25.9601L13.2197 25.3995L12.741 25.0791L12.2793 25.7688ZM12.0717 33.4795L12.5334 34.1693L12.9849 33.8671L12.8886 33.3324L12.0717 33.4795ZM8.21982 36.058L8.68153 36.7477L8.68153 36.7477L8.21982 36.058ZM8.07979 36.741L8.77565 36.2886L8.77565 36.2886L8.07979 36.741ZM13.1662 44.5644L12.4703 45.0168L12.4703 45.0168L13.1662 44.5644ZM13.8401 44.7025L14.3018 45.3922L14.3018 45.3922L13.8401 44.7025ZM16.6976 42.7897L17.308 42.2273L16.8265 41.7046L16.2359 42.0999L16.6976 42.7897ZM24.0972 47.6665H24.9272V47.0773L24.371 46.883L24.0972 47.6665ZM36.018 47.6599L35.7433 46.8767L35.188 47.0714V47.6599H36.018ZM43.3003 42.8954L43.7681 42.2098L43.1804 41.8089L42.6943 42.3283L43.3003 42.8954ZM45.8996 44.6686L46.3673 43.983L46.3673 43.983L45.8996 44.6686ZM46.5745 44.5363L45.8825 44.078L45.8824 44.078L46.5745 44.5363ZM51.7254 36.7566L52.4175 37.2149L52.4175 37.2149L51.7254 36.7566ZM51.5912 36.0723L52.0589 35.3867L52.0589 35.3867L51.5912 36.0723ZM47.9983 33.6213L47.1826 33.4679L47.0824 34.0012L47.5306 34.307L47.9983 33.6213ZM47.8298 25.8237L47.3621 25.1381L46.8921 25.4587L47.0216 26.0126L47.8298 25.8237ZM51.9299 23.0267L52.3976 23.7124L52.3976 23.7124L51.9299 23.0267ZM52.0641 22.3424L51.372 22.8006L51.372 22.8006L52.0641 22.3424ZM46.869 14.4961L46.1769 14.9543L46.1769 14.9543L46.869 14.4961ZM46.1941 14.3637L46.6618 15.0494L46.6618 15.0494L46.1941 14.3637ZM42.7065 16.7429L42.127 17.3371L42.6132 17.8112L43.1742 17.4285L42.7065 16.7429ZM35.74 12.4897H34.91V13.0884L35.4782 13.2773L35.74 12.4897ZM24.6492 8.48974C24.6492 8.67766 24.4969 8.83 24.309 8.83V7.17C23.5801 7.17 22.9892 7.76087 22.9892 8.48974H24.6492ZM24.6492 12.6776V8.48974H22.9892V12.6776H24.6492ZM18.0018 17.3053C19.7359 15.6232 21.8094 14.3016 24.1059 13.4566L23.5326 11.8987C21.0134 12.8257 18.7426 14.2741 16.846 16.1138L18.0018 17.3053ZM13.422 15.0295L16.9622 17.3993L17.8856 16.0198L14.3454 13.65L13.422 15.0295ZM13.9057 14.9303C13.8009 15.0915 13.5818 15.1364 13.422 15.0295L14.3454 13.65C13.7361 13.2421 12.9136 13.4108 12.5139 14.0255L13.9057 14.9303ZM8.77565 22.8208L13.9057 14.9303L12.5139 14.0255L7.38393 21.9159L8.77565 22.8208ZM8.68152 22.3616C8.83408 22.4638 8.87572 22.6669 8.77565 22.8208L7.38393 21.9159C6.98901 22.5234 7.15603 23.3381 7.75811 23.7411L8.68152 22.3616ZM12.741 25.0791L8.68153 22.3616L7.75811 23.7411L11.8175 26.4585L12.741 25.0791ZM12.6032 30.1222C12.6032 28.6878 12.7708 27.2942 13.0869 25.9601L11.4716 25.5774C11.126 27.036 10.9432 28.558 10.9432 30.1222H12.6032ZM12.8886 33.3324C12.7012 32.2919 12.6032 31.2191 12.6032 30.1222H10.9432C10.9432 31.3181 11.05 32.4894 11.2548 33.6266L12.8886 33.3324ZM8.68153 36.7477L12.5334 34.1693L11.61 32.7898L7.75811 35.3683L8.68153 36.7477ZM8.77565 36.2886C8.87572 36.4425 8.83408 36.6456 8.68153 36.7477L7.75811 35.3683C7.15603 35.7713 6.98901 36.586 7.38393 37.1934L8.77565 36.2886ZM13.862 44.1119L8.77565 36.2886L7.38393 37.1934L12.4703 45.0168L13.862 44.1119ZM13.3784 44.0128C13.5382 43.9058 13.7572 43.9507 13.862 44.1119L12.4703 45.0168C12.87 45.6315 13.6925 45.8001 14.3018 45.3922L13.3784 44.0128ZM16.2359 42.0999L13.3784 44.0128L14.3018 45.3922L17.1593 43.4794L16.2359 42.0999ZM24.371 46.883C21.6517 45.9329 19.2342 44.318 17.308 42.2273L16.0872 43.3521C18.1932 45.638 20.8401 47.4077 23.8234 48.4501L24.371 46.883ZM24.9272 51.6305V47.6665H23.2672V51.6305H24.9272ZM24.5869 51.2903C24.7749 51.2903 24.9272 51.4426 24.9272 51.6305H23.2672C23.2672 52.3594 23.8581 52.9503 24.5869 52.9503V51.2903ZM35.5282 51.2903H24.5869V52.9503H35.5282V51.2903ZM35.188 51.6305C35.188 51.4426 35.3403 51.2903 35.5282 51.2903V52.9503C36.2571 52.9503 36.848 52.3594 36.848 51.6305H35.188ZM35.188 47.6599V51.6305H36.848V47.6599H35.188ZM42.6943 42.3283C40.788 44.3655 38.4113 45.9411 35.7433 46.8767L36.2926 48.4431C39.2196 47.4167 41.822 45.69 43.9064 43.4626L42.6943 42.3283ZM46.3673 43.983L43.7681 42.2098L42.8326 43.5811L45.4318 45.3543L46.3673 43.983ZM45.8824 44.078C45.9887 43.9176 46.2084 43.8745 46.3673 43.983L45.4318 45.3543C46.0377 45.7675 46.8617 45.6059 47.2666 44.9945L45.8824 44.078ZM51.0333 36.2984L45.8825 44.078L47.2666 44.9945L52.4175 37.2149L51.0333 36.2984ZM51.1235 36.758C50.9719 36.6546 50.9321 36.4514 51.0333 36.2984L52.4175 37.2149C52.8174 36.6109 52.6573 35.7949 52.0589 35.3867L51.1235 36.758ZM47.5306 34.307L51.1235 36.758L52.0589 35.3867L48.4661 32.9357L47.5306 34.307ZM47.493 30.1222C47.493 31.2667 47.3863 32.3851 47.1826 33.4679L48.814 33.7747C49.0366 32.5912 49.153 31.3701 49.153 30.1222H47.493ZM47.0216 26.0126C47.3297 27.3307 47.493 28.7066 47.493 30.1222H49.153C49.153 28.5785 48.9749 27.0759 48.638 25.6348L47.0216 26.0126ZM51.4621 22.3411L47.3621 25.1381L48.2976 26.5094L52.3976 23.7124L51.4621 22.3411ZM51.372 22.8006C51.2707 22.6477 51.3106 22.4445 51.4621 22.3411L52.3976 23.7124C52.996 23.3042 53.156 22.4882 52.7561 21.8842L51.372 22.8006ZM46.1769 14.9543L51.372 22.8006L52.7561 21.8842L47.561 14.0378L46.1769 14.9543ZM46.6618 15.0494C46.5029 15.1578 46.2832 15.1147 46.1769 14.9543L47.561 14.0379C47.1562 13.4264 46.3321 13.2648 45.7263 13.678L46.6618 15.0494ZM43.1742 17.4285L46.6618 15.0494L45.7263 13.678L42.2387 16.0572L43.1742 17.4285ZM35.4782 13.2773C37.9935 14.1134 40.2587 15.5154 42.127 17.3371L43.2859 16.1486C41.2425 14.1562 38.7616 12.6194 36.0018 11.7021L35.4782 13.2773ZM34.91 8.48974V12.4897H36.57V8.48974H34.91ZM35.2503 8.83C35.0623 8.83 34.91 8.67766 34.91 8.48974H36.57C36.57 7.76087 35.9791 7.17 35.2503 7.17V8.83ZM24.309 8.83H35.2503V7.17H24.309V8.83ZM37.0973 30.0626C37.0973 34.1797 33.7866 37.5066 29.7159 37.5066V39.1666C34.7153 39.1666 38.7573 35.0846 38.7573 30.0626H37.0973ZM29.7159 22.6185C33.7866 22.6185 37.0973 25.9454 37.0973 30.0626H38.7573C38.7573 25.0405 34.7153 20.9585 29.7159 20.9585V22.6185ZM22.3344 30.0626C22.3344 25.9454 25.6451 22.6185 29.7159 22.6185V20.9585C24.7165 20.9585 20.6744 25.0405 20.6744 30.0626H22.3344ZM29.7159 37.5066C25.6451 37.5066 22.3344 34.1797 22.3344 30.0626H20.6744C20.6744 35.0846 24.7165 39.1666 29.7159 39.1666V37.5066Z" fill="#7A9CD2" mask="url(#path-2-outside-1_2459_10176)"/>
<mask id="path-4-inside-2_2459_10176" fill="white">
<path fill-rule="evenodd" clip-rule="evenodd" d="M24.309 8C24.0385 8 23.8192 8.21926 23.8192 8.48974V12.6776C21.4114 13.5637 19.2392 14.9487 17.4239 16.7096L13.8837 14.3397C13.659 14.1893 13.3572 14.2511 13.2098 14.4779L8.07979 22.3684C7.93236 22.5951 7.99505 22.9009 8.21982 23.0514L12.2793 25.7688C11.9484 27.1651 11.7732 28.6229 11.7732 30.1222C11.7732 31.2686 11.8756 32.3907 12.0717 33.4795L8.21982 36.058C7.99505 36.2085 7.93236 36.5143 8.07979 36.741L13.1662 44.5644C13.3136 44.7911 13.6153 44.853 13.8401 44.7025L16.6976 42.7897C18.7137 44.978 21.2459 46.6703 24.0972 47.6665V51.6305C24.0972 51.901 24.3165 52.1203 24.5869 52.1203H35.5282C35.7987 52.1203 36.018 51.901 36.018 51.6305V47.6599C38.8154 46.6789 41.305 45.0277 43.3003 42.8954L45.8996 44.6686C46.123 44.821 46.4252 44.7618 46.5745 44.5363L51.7254 36.7566C51.8747 36.5311 51.8146 36.2247 51.5912 36.0723L47.9983 33.6213C48.2114 32.4882 48.323 31.3184 48.323 30.1222C48.323 28.6425 48.1523 27.2033 47.8298 25.8237L51.9299 23.0267C52.1533 22.8743 52.2134 22.5679 52.0641 22.3424L46.869 14.4961C46.7197 14.2705 46.4175 14.2113 46.1941 14.3637L42.7065 16.7429C40.7506 14.8358 38.3775 13.3664 35.74 12.4897V8.48974C35.74 8.21926 35.5207 8 35.2503 8H24.309ZM29.7159 38.3366C34.2509 38.3366 37.9273 34.6322 37.9273 30.0626C37.9273 25.4929 34.2509 21.7885 29.7159 21.7885C25.1808 21.7885 21.5044 25.4929 21.5044 30.0626C21.5044 34.6322 25.1808 38.3366 29.7159 38.3366Z"/>
</mask>
<path d="M23.8192 12.6776L24.1646 13.6161L24.8192 13.3752V12.6776H23.8192ZM17.4239 16.7096L16.8676 17.5406L17.5397 17.9904L18.1202 17.4273L17.4239 16.7096ZM13.8837 14.3397L13.3274 15.1707L13.3274 15.1707L13.8837 14.3397ZM13.2098 14.4779L12.3714 13.9328L12.3714 13.9328L13.2098 14.4779ZM8.07979 22.3684L8.91818 22.9134L8.91818 22.9134L8.07979 22.3684ZM8.21982 23.0514L8.77609 22.2204L8.77609 22.2204L8.21982 23.0514ZM12.2793 25.7688L13.2523 25.9993L13.4123 25.3239L12.8355 24.9378L12.2793 25.7688ZM12.0717 33.4795L12.628 34.3105L13.1719 33.9464L13.0559 33.3023L12.0717 33.4795ZM8.21982 36.058L8.77609 36.889L8.77609 36.889L8.21982 36.058ZM8.07979 36.741L8.91818 36.1959L8.91818 36.1959L8.07979 36.741ZM13.1662 44.5644L12.3278 45.1094L12.3278 45.1094L13.1662 44.5644ZM13.8401 44.7025L14.3963 45.5335L14.3964 45.5335L13.8401 44.7025ZM16.6976 42.7897L17.4331 42.1121L16.8529 41.4824L16.1413 41.9587L16.6976 42.7897ZM24.0972 47.6665H25.0972V46.9567L24.4271 46.7225L24.0972 47.6665ZM36.018 47.6599L35.6871 46.7162L35.018 46.9509V47.6599H36.018ZM43.3003 42.8954L43.8639 42.0694L43.1558 41.5863L42.5702 42.2122L43.3003 42.8954ZM45.8996 44.6686L46.4631 43.8425L46.4631 43.8425L45.8996 44.6686ZM46.5745 44.5363L45.7407 43.9842L45.7407 43.9842L46.5745 44.5363ZM51.7254 36.7566L52.5592 37.3087L52.5592 37.3087L51.7254 36.7566ZM51.5912 36.0723L52.1547 35.2462L52.1547 35.2462L51.5912 36.0723ZM47.9983 33.6213L47.0156 33.4365L46.8947 34.079L47.4348 34.4474L47.9983 33.6213ZM47.8298 25.8237L47.2663 24.9976L46.7001 25.3839L46.8561 26.0513L47.8298 25.8237ZM51.9299 23.0267L52.4934 23.8528L52.4934 23.8528L51.9299 23.0267ZM52.0641 22.3424L51.2303 22.8945L51.2303 22.8945L52.0641 22.3424ZM46.869 14.4961L46.0352 15.0481L46.0352 15.0481L46.869 14.4961ZM46.1941 14.3637L46.7576 15.1898L46.7576 15.1898L46.1941 14.3637ZM42.7065 16.7429L42.0084 17.4589L42.5941 18.03L43.27 17.569L42.7065 16.7429ZM35.74 12.4897H34.74V13.2111L35.4246 13.4386L35.74 12.4897ZM24.8192 8.48974C24.8192 8.77155 24.5908 9 24.309 9V7C23.4862 7 22.8192 7.66698 22.8192 8.48974H24.8192ZM24.8192 12.6776V8.48974H22.8192V12.6776H24.8192ZM18.1202 17.4273C19.8376 15.7614 21.8909 14.4528 24.1646 13.6161L23.4739 11.7392C20.9319 12.6745 18.6409 14.1359 16.7277 15.9918L18.1202 17.4273ZM13.3274 15.1707L16.8676 17.5406L17.9802 15.8786L14.44 13.5087L13.3274 15.1707ZM14.0482 15.023C13.8917 15.2636 13.566 15.3304 13.3274 15.1707L14.44 13.5087C13.7519 13.0481 12.8228 13.2386 12.3714 13.9328L14.0482 15.023ZM8.91818 22.9134L14.0482 15.023L12.3714 13.9328L7.24141 21.8233L8.91818 22.9134ZM8.77609 22.2204C9.00593 22.3742 9.06893 22.6816 8.91818 22.9134L7.24141 21.8233C6.79579 22.5087 6.98418 23.4276 7.66354 23.8824L8.77609 22.2204ZM12.8355 24.9378L8.77609 22.2204L7.66354 23.8824L11.723 26.5998L12.8355 24.9378ZM12.7732 30.1222C12.7732 28.701 12.9393 27.3206 13.2523 25.9993L11.3062 25.5382C10.9576 27.0096 10.7732 28.5447 10.7732 30.1222H12.7732ZM13.0559 33.3023C12.8703 32.2717 12.7732 31.2089 12.7732 30.1222H10.7732C10.7732 31.3283 10.8809 32.5097 11.0875 33.6568L13.0559 33.3023ZM8.77609 36.889L12.628 34.3105L11.5154 32.6485L7.66354 35.227L8.77609 36.889ZM8.91818 36.1959C9.06893 36.4278 9.00593 36.7351 8.77609 36.889L7.66354 35.227C6.98418 35.6818 6.79579 36.6007 7.24141 37.2861L8.91818 36.1959ZM14.0045 44.0193L8.91818 36.1959L7.24141 37.2861L12.3278 45.1094L14.0045 44.0193ZM13.2838 43.8715C13.5223 43.7118 13.8481 43.7786 14.0045 44.0193L12.3278 45.1094C12.7791 45.8036 13.7083 45.9941 14.3963 45.5335L13.2838 43.8715ZM16.1413 41.9587L13.2838 43.8715L14.3964 45.5335L17.2539 43.6207L16.1413 41.9587ZM24.4271 46.7225C21.7348 45.7818 19.3408 44.1828 17.4331 42.1121L15.9622 43.4672C18.0866 45.7732 20.757 47.5587 23.7674 48.6106L24.4271 46.7225ZM25.0972 51.6305V47.6665H23.0972V51.6305H25.0972ZM24.5869 51.1203C24.8688 51.1203 25.0972 51.3487 25.0972 51.6305H23.0972C23.0972 52.4533 23.7642 53.1203 24.5869 53.1203V51.1203ZM35.5282 51.1203H24.5869V53.1203H35.5282V51.1203ZM35.018 51.6305C35.018 51.3487 35.2464 51.1203 35.5282 51.1203V53.1203C36.351 53.1203 37.018 52.4533 37.018 51.6305H35.018ZM35.018 47.6599V51.6305H37.018V47.6599H35.018ZM42.5702 42.2122C40.6821 44.2298 38.3285 45.79 35.6871 46.7162L36.3489 48.6036C39.3024 47.5678 41.9279 45.8256 44.0305 43.5787L42.5702 42.2122ZM46.4631 43.8425L43.8639 42.0694L42.7368 43.7215L45.336 45.4947L46.4631 43.8425ZM45.7407 43.9842C45.8993 43.7447 46.2258 43.6807 46.4631 43.8425L45.336 45.4947C46.0202 45.9614 46.9511 45.7788 47.4083 45.0883L45.7407 43.9842ZM50.8916 36.2046L45.7407 43.9842L47.4083 45.0883L52.5592 37.3087L50.8916 36.2046ZM51.0276 36.8984C50.7993 36.7426 50.739 36.4351 50.8916 36.2046L52.5592 37.3087C53.0104 36.6272 52.8299 35.7068 52.1547 35.2462L51.0276 36.8984ZM47.4348 34.4474L51.0277 36.8984L52.1547 35.2462L48.5619 32.7953L47.4348 34.4474ZM47.323 30.1222C47.323 31.2561 47.2173 32.364 47.0156 33.4365L48.9811 33.8062C49.2056 32.6123 49.323 31.3807 49.323 30.1222H47.323ZM46.8561 26.0513C47.1612 27.3568 47.323 28.7197 47.323 30.1222H49.323C49.323 28.5654 49.1434 27.0498 48.8036 25.5961L46.8561 26.0513ZM51.3663 22.2007L47.2663 24.9976L48.3934 26.6498L52.4934 23.8528L51.3663 22.2007ZM51.2303 22.8945C51.0777 22.664 51.138 22.3564 51.3663 22.2007L52.4934 23.8528C53.1686 23.3922 53.3491 22.4719 52.8979 21.7904L51.2303 22.8945ZM46.0352 15.0481L51.2303 22.8945L52.8979 21.7904L47.7028 13.944L46.0352 15.0481ZM46.7576 15.1898C46.5203 15.3516 46.1937 15.2876 46.0352 15.0481L47.7028 13.944C47.2456 13.2535 46.3147 13.0709 45.6305 13.5376L46.7576 15.1898ZM43.27 17.569L46.7576 15.1898L45.6305 13.5376L42.1429 15.9168L43.27 17.569ZM35.4246 13.4386C37.9148 14.2664 40.158 15.6546 42.0084 17.4589L43.4046 16.0269C41.3433 14.017 38.8402 12.4664 36.0554 11.5407L35.4246 13.4386ZM34.74 8.48974V12.4897H36.74V8.48974H34.74ZM35.2503 9C34.9685 9 34.74 8.77155 34.74 8.48974H36.74C36.74 7.66698 36.073 7 35.2503 7V9ZM24.309 9H35.2503V7H24.309V9ZM36.9273 30.0626C36.9273 34.0871 33.6915 37.3366 29.7159 37.3366V39.3366C34.8104 39.3366 38.9273 35.1773 38.9273 30.0626H36.9273ZM29.7159 22.7885C33.6915 22.7885 36.9273 26.0381 36.9273 30.0626H38.9273C38.9273 24.9478 34.8104 20.7885 29.7159 20.7885V22.7885ZM22.5044 30.0626C22.5044 26.0381 25.7403 22.7885 29.7159 22.7885V20.7885C24.6214 20.7885 20.5044 24.9478 20.5044 30.0626H22.5044ZM29.7159 37.3366C25.7403 37.3366 22.5044 34.0871 22.5044 30.0626H20.5044C20.5044 35.1773 24.6214 39.3366 29.7159 39.3366V37.3366Z" fill="white" mask="url(#path-4-inside-2_2459_10176)"/>
<circle cx="30.0706" cy="28.9944" r="11.2991" fill="white"/>
<circle cx="30.0705" cy="30.0646" r="13.4513" fill="white"/>
<circle cx="30.0705" cy="30.0705" r="11.9602" fill="white" stroke="#7A9CD2" stroke-width="0.83"/>
<mask id="path-9-outside-3_2459_10176" maskUnits="userSpaceOnUse" x="14.861" y="15.0296" width="45.9619" height="45.9619" fill="black">
<rect fill="white" x="14.861" y="15.0296" width="45.9619" height="45.9619"/>
<path fill-rule="evenodd" clip-rule="evenodd" d="M21.0261 27.3258C21.1143 27.0116 21.505 26.9239 21.7358 27.1547L26.7824 32.2013C26.9568 32.3757 27.2395 32.3757 27.4139 32.2013L32.2191 27.3961C32.3935 27.2217 32.3935 26.939 32.2191 26.7646L27.1736 21.7191C26.9428 21.4883 27.0306 21.0975 27.3449 21.0094C30.4185 20.1484 33.8547 20.9267 36.2725 23.3445C38.7338 25.8058 39.496 29.3227 38.5593 32.4379L51.5577 45.4362C53.2467 47.1252 53.2467 49.8635 51.5577 51.5525C49.8687 53.2415 47.1303 53.2415 45.4414 51.5525L32.4373 38.5485C29.3262 39.4776 25.8172 38.7137 23.3602 36.2567C20.9416 33.8381 20.1636 30.4002 21.0261 27.3258Z"/>
</mask>
<path fill-rule="evenodd" clip-rule="evenodd" d="M21.0261 27.3258C21.1143 27.0116 21.505 26.9239 21.7358 27.1547L26.7824 32.2013C26.9568 32.3757 27.2395 32.3757 27.4139 32.2013L32.2191 27.3961C32.3935 27.2217 32.3935 26.939 32.2191 26.7646L27.1736 21.7191C26.9428 21.4883 27.0306 21.0975 27.3449 21.0094C30.4185 20.1484 33.8547 20.9267 36.2725 23.3445C38.7338 25.8058 39.496 29.3227 38.5593 32.4379L51.5577 45.4362C53.2467 47.1252 53.2467 49.8635 51.5577 51.5525C49.8687 53.2415 47.1303 53.2415 45.4414 51.5525L32.4373 38.5485C29.3262 39.4776 25.8172 38.7137 23.3602 36.2567C20.9416 33.8381 20.1636 30.4002 21.0261 27.3258Z" fill="white"/>
<path d="M21.0261 27.3258L22.4703 27.731L22.4703 27.731L21.0261 27.3258ZM27.4139 32.2013L26.3533 31.1407L27.4139 32.2013ZM32.2191 27.3961L33.2798 28.4568L32.2191 27.3961ZM32.2191 26.7646L33.2798 25.7039L32.2191 26.7646ZM27.1736 21.7191L26.113 22.7798L27.1736 21.7191ZM27.3449 21.0094L27.7495 22.4538L27.7495 22.4538L27.3449 21.0094ZM38.5593 32.4379L37.1229 32.0059L36.8647 32.8645L37.4987 33.4985L38.5593 32.4379ZM32.4373 38.5485L33.498 37.4878L32.8653 36.8552L32.0081 37.1112L32.4373 38.5485ZM22.7964 26.0941C21.8251 25.1227 20.0063 25.4077 19.5818 26.9207L22.4703 27.731C22.2222 28.6155 21.1849 28.7252 20.6751 28.2154L22.7964 26.0941ZM27.843 31.1407L22.7964 26.0941L20.6751 28.2154L25.7217 33.262L27.843 31.1407ZM26.3533 31.1407C26.7646 30.7293 27.4317 30.7293 27.843 31.1407L25.7217 33.262C26.4819 34.0222 27.7144 34.0222 28.4746 33.262L26.3533 31.1407ZM31.1585 26.3355L26.3533 31.1407L28.4746 33.262L33.2798 28.4568L31.1585 26.3355ZM31.1585 27.8253C30.7471 27.4139 30.7471 26.7469 31.1585 26.3355L33.2798 28.4568C34.04 27.6966 34.04 26.4641 33.2798 25.7039L31.1585 27.8253ZM26.113 22.7798L31.1585 27.8253L33.2798 25.7039L28.2343 20.6585L26.113 22.7798ZM26.9403 19.565C25.4268 19.989 25.1414 21.8082 26.113 22.7798L28.2343 20.6585C28.7442 21.1683 28.6344 22.2059 27.7495 22.4538L26.9403 19.565ZM37.3331 22.2838C34.5168 19.4675 30.5145 18.5637 26.9403 19.565L27.7495 22.4538C30.3224 21.733 33.1927 22.386 35.2118 24.4051L37.3331 22.2838ZM39.9958 32.8698C41.0852 29.247 40.2002 25.1509 37.3331 22.2838L35.2118 24.4051C37.2673 26.4606 37.9069 29.3984 37.1229 32.0059L39.9958 32.8698ZM37.4987 33.4985L50.497 46.4969L52.6184 44.3755L39.62 31.3772L37.4987 33.4985ZM50.497 46.4969C51.6002 47.6 51.6002 49.3887 50.497 50.4919L52.6184 52.6132C54.8931 50.3384 54.8931 46.6503 52.6184 44.3755L50.497 46.4969ZM50.497 50.4919C49.3938 51.5951 47.6052 51.5951 46.502 50.4919L44.3807 52.6132C46.6555 54.8879 50.3436 54.8879 52.6184 52.6132L50.497 50.4919ZM46.502 50.4919L33.498 37.4878L31.3767 39.6091L44.3807 52.6132L46.502 50.4919ZM22.2996 37.3174C25.1617 40.1795 29.2485 41.0663 32.8666 39.9857L32.0081 37.1112C29.4039 37.889 26.4728 37.2479 24.4209 35.196L22.2996 37.3174ZM19.5818 26.9207C18.5789 30.4958 19.4822 34.5 22.2996 37.3174L24.4209 35.196C22.401 33.1762 21.7483 30.3046 22.4703 27.731L19.5818 26.9207Z" fill="white" mask="url(#path-9-outside-3_2459_10176)"/>
<mask id="path-11-inside-4_2459_10176" fill="white">
<path fill-rule="evenodd" clip-rule="evenodd" d="M21.0261 27.3258C21.1143 27.0116 21.505 26.9239 21.7358 27.1547L26.7824 32.2013C26.9568 32.3757 27.2395 32.3757 27.4139 32.2013L32.2191 27.3961C32.3935 27.2217 32.3935 26.939 32.2191 26.7646L27.1736 21.7191C26.9428 21.4883 27.0306 21.0975 27.3449 21.0094C30.4185 20.1484 33.8547 20.9267 36.2725 23.3445C38.7338 25.8058 39.496 29.3227 38.5593 32.4379L51.5577 45.4362C53.2467 47.1252 53.2467 49.8635 51.5577 51.5525C49.8687 53.2415 47.1303 53.2415 45.4414 51.5525L32.4373 38.5485C29.3262 39.4776 25.8172 38.7137 23.3602 36.2567C20.9416 33.8381 20.1636 30.4002 21.0261 27.3258Z"/>
</mask>
<path fill-rule="evenodd" clip-rule="evenodd" d="M21.0261 27.3258C21.1143 27.0116 21.505 26.9239 21.7358 27.1547L26.7824 32.2013C26.9568 32.3757 27.2395 32.3757 27.4139 32.2013L32.2191 27.3961C32.3935 27.2217 32.3935 26.939 32.2191 26.7646L27.1736 21.7191C26.9428 21.4883 27.0306 21.0975 27.3449 21.0094C30.4185 20.1484 33.8547 20.9267 36.2725 23.3445C38.7338 25.8058 39.496 29.3227 38.5593 32.4379L51.5577 45.4362C53.2467 47.1252 53.2467 49.8635 51.5577 51.5525C49.8687 53.2415 47.1303 53.2415 45.4414 51.5525L32.4373 38.5485C29.3262 39.4776 25.8172 38.7137 23.3602 36.2567C20.9416 33.8381 20.1636 30.4002 21.0261 27.3258Z" fill="white"/>
<path d="M21.0261 27.3258L21.8252 27.55L21.8252 27.55L21.0261 27.3258ZM27.4139 32.2013L26.827 31.6144L27.4139 32.2013ZM32.2191 27.3961L32.806 27.983L32.2191 27.3961ZM32.2191 26.7646L32.806 26.1777L32.2191 26.7646ZM27.1736 21.7191L26.5867 22.306L27.1736 21.7191ZM27.3449 21.0094L27.5688 21.8086L27.5688 21.8086L27.3449 21.0094ZM38.5593 32.4379L37.7645 32.1988L37.6216 32.6739L37.9724 33.0247L38.5593 32.4379ZM32.4373 38.5485L33.0242 37.9616L32.6742 37.6115L32.1998 37.7532L32.4373 38.5485ZM22.3227 26.5678C21.6821 25.9272 20.5012 26.1241 20.2269 27.1017L21.8252 27.55C21.782 27.704 21.6532 27.8119 21.5175 27.8438C21.3871 27.8745 21.2452 27.8379 21.1489 27.7416L22.3227 26.5678ZM27.3693 31.6144L22.3227 26.5678L21.1489 27.7416L26.1955 32.7882L27.3693 31.6144ZM26.827 31.6144C26.9768 31.4647 27.2195 31.4647 27.3693 31.6144L26.1955 32.7882C26.694 33.2868 27.5023 33.2868 28.0008 32.7882L26.827 31.6144ZM31.6322 26.8092L26.827 31.6144L28.0008 32.7882L32.806 27.983L31.6322 26.8092ZM31.6322 27.3515C31.4825 27.2018 31.4825 26.959 31.6322 26.8092L32.806 27.983C33.3045 27.4845 33.3045 26.6762 32.806 26.1777L31.6322 27.3515ZM26.5867 22.306L31.6322 27.3515L32.806 26.1777L27.7605 21.1322L26.5867 22.306ZM27.121 20.2102C26.1431 20.4841 25.946 21.6653 26.5867 22.306L27.7605 21.1322C27.8568 21.2285 27.8934 21.3705 27.8628 21.5009C27.8308 21.6366 27.7228 21.7655 27.5688 21.8086L27.121 20.2102ZM36.8594 22.7576C34.2211 20.1193 30.4716 19.2716 27.121 20.2102L27.5688 21.8086C30.3653 21.0252 33.4884 21.7342 35.6856 23.9314L36.8594 22.7576ZM39.3542 32.6769C40.3754 29.2808 39.5452 25.4434 36.8594 22.7576L35.6856 23.9314C37.9223 26.1681 38.6167 29.3646 37.7645 32.1988L39.3542 32.6769ZM37.9724 33.0247L50.9708 46.0231L52.1446 44.8493L39.1462 31.851L37.9724 33.0247ZM50.9708 46.0231C52.3356 47.3879 52.3356 49.6008 50.9708 50.9656L52.1446 52.1394C54.1577 50.1263 54.1577 46.8624 52.1446 44.8493L50.9708 46.0231ZM50.9708 50.9656C49.606 52.3305 47.3931 52.3305 46.0283 50.9656L44.8545 52.1394C46.8676 54.1525 50.1315 54.1525 52.1446 52.1394L50.9708 50.9656ZM46.0283 50.9656L33.0242 37.9616L31.8504 39.1354L44.8545 52.1394L46.0283 50.9656ZM22.7733 36.8436C25.4545 39.5248 29.2832 40.3567 32.6748 39.3438L32.1998 37.7532C29.3692 38.5986 26.18 37.9026 23.9471 35.6698L22.7733 36.8436ZM20.2269 27.1017C19.2867 30.4531 20.1341 34.2044 22.7733 36.8436L23.9471 35.6698C21.7492 33.4718 21.0405 30.3473 21.8252 27.55L20.2269 27.1017Z" fill="#7A9CD2" mask="url(#path-11-inside-4_2459_10176)"/>
</svg>
