<svg width="62" height="62" viewBox="0 0 62 62" fill="none" xmlns="http://www.w3.org/2000/svg">
<rect width="62" height="62" rx="7.93442" fill="#FFFDFD"/>
<rect x="12.4156" y="52.5844" width="46.1687" height="28.1687" rx="2.58437" transform="rotate(-90 12.4156 52.5844)" fill="#FFFDFD" stroke="#7A9CD2" stroke-width="0.831254"/>
<rect x="14" y="51" width="43" height="25" rx="3" transform="rotate(-90 14 51)" fill="#CCDCF6"/>
<path d="M23 11H30" stroke="#7A9CD2" stroke-width="1.66" stroke-linecap="round"/>
<path d="M24.9175 35.2161L28.9592 24.9997" stroke="#7A9CD2" stroke-width="0.83" stroke-linecap="round"/>
<path d="M31.875 25.8184L36.8083 29.5184C37.3417 29.9184 37.3417 30.7184 36.8083 31.1184L31.875 34.8184" stroke="#7A9CD2" stroke-width="0.83" stroke-linecap="round"/>
<path d="M22 25.8184L17.0667 29.5184C16.5333 29.9184 16.5333 30.7184 17.0667 31.1184L22 34.8184" stroke="#7A9CD2" stroke-width="0.83" stroke-linecap="round"/>
<mask id="path-8-outside-1_6729_5952" maskUnits="userSpaceOnUse" x="29" y="34" width="26" height="26" fill="black">
<rect fill="white" x="29" y="34" width="26" height="26"/>
<path fill-rule="evenodd" clip-rule="evenodd" d="M38.9865 35C38.7573 35 38.5715 35.1858 38.5715 35.4149V37.5462C37.2583 38.0282 36.0736 38.7808 35.0833 39.7375L33.2795 38.535C33.0888 38.4079 32.8327 38.4604 32.7075 38.6523L30.0679 42.6955C29.9426 42.8874 29.9956 43.146 30.1863 43.2731L32.2737 44.6647C32.093 45.4241 31.9973 46.217 31.9973 47.0325C31.9973 47.6565 32.0534 48.2672 32.1606 48.8599L30.1863 50.1761C29.9956 50.3032 29.9426 50.5618 30.0679 50.7537L32.6836 54.7605C32.8089 54.9523 33.065 55.0048 33.2557 54.8777L34.6876 53.9231C35.7903 55.1148 37.1757 56.036 38.7356 56.5773V58.5855C38.7356 58.8146 38.9214 59.0004 39.1505 59.0004H44.8309C45.0601 59.0004 45.2458 58.8146 45.2458 58.5855V56.5683C46.7711 56.0341 48.1285 55.1366 49.2166 53.9781L50.5213 54.8645C50.7108 54.9933 50.9674 54.943 51.0942 54.7521L53.7431 50.7678C53.87 50.5769 53.8192 50.3178 53.6296 50.1891L51.7813 48.9333C51.8974 48.3177 51.9582 47.6823 51.9582 47.0325C51.9582 46.2293 51.8653 45.4481 51.6899 44.6992L53.8178 43.2535C54.0074 43.1247 54.0582 42.8656 53.9313 42.6748L51.2583 38.6541C51.1314 38.4633 50.8749 38.413 50.6854 38.5418L48.8941 39.7587C47.8242 38.7189 46.5255 37.918 45.0818 37.4409V35.4149C45.0818 35.1858 44.896 35 44.6669 35H38.9865ZM41.8021 51.5003C44.2788 51.5003 46.2866 49.4855 46.2866 47.0001C46.2866 44.5148 44.2788 42.5 41.8021 42.5C39.3254 42.5 37.3176 44.5148 37.3176 47.0001C37.3176 49.4855 39.3254 51.5003 41.8021 51.5003Z"/>
</mask>
<path fill-rule="evenodd" clip-rule="evenodd" d="M38.9865 35C38.7573 35 38.5715 35.1858 38.5715 35.4149V37.5462C37.2583 38.0282 36.0736 38.7808 35.0833 39.7375L33.2795 38.535C33.0888 38.4079 32.8327 38.4604 32.7075 38.6523L30.0679 42.6955C29.9426 42.8874 29.9956 43.146 30.1863 43.2731L32.2737 44.6647C32.093 45.4241 31.9973 46.217 31.9973 47.0325C31.9973 47.6565 32.0534 48.2672 32.1606 48.8599L30.1863 50.1761C29.9956 50.3032 29.9426 50.5618 30.0679 50.7537L32.6836 54.7605C32.8089 54.9523 33.065 55.0048 33.2557 54.8777L34.6876 53.9231C35.7903 55.1148 37.1757 56.036 38.7356 56.5773V58.5855C38.7356 58.8146 38.9214 59.0004 39.1505 59.0004H44.8309C45.0601 59.0004 45.2458 58.8146 45.2458 58.5855V56.5683C46.7711 56.0341 48.1285 55.1366 49.2166 53.9781L50.5213 54.8645C50.7108 54.9933 50.9674 54.943 51.0942 54.7521L53.7431 50.7678C53.87 50.5769 53.8192 50.3178 53.6296 50.1891L51.7813 48.9333C51.8974 48.3177 51.9582 47.6823 51.9582 47.0325C51.9582 46.2293 51.8653 45.4481 51.6899 44.6992L53.8178 43.2535C54.0074 43.1247 54.0582 42.8656 53.9313 42.6748L51.2583 38.6541C51.1314 38.4633 50.8749 38.413 50.6854 38.5418L48.8941 39.7587C47.8242 38.7189 46.5255 37.918 45.0818 37.4409V35.4149C45.0818 35.1858 44.896 35 44.6669 35H38.9865ZM41.8021 51.5003C44.2788 51.5003 46.2866 49.4855 46.2866 47.0001C46.2866 44.5148 44.2788 42.5 41.8021 42.5C39.3254 42.5 37.3176 44.5148 37.3176 47.0001C37.3176 49.4855 39.3254 51.5003 41.8021 51.5003Z" fill="#FFFDFD"/>
<path d="M38.5715 37.5462L38.9147 38.4812L39.5675 38.2416V37.5462H38.5715ZM35.0833 39.7375L34.5309 40.5662L35.1983 41.0111L35.7753 40.4538L35.0833 39.7375ZM33.2795 38.535L32.7271 39.3636H32.7271L33.2795 38.535ZM32.7075 38.6523L33.5414 39.1967L32.7075 38.6523ZM30.0679 42.6955L29.2339 42.1511H29.2339L30.0679 42.6955ZM30.1863 43.2731L30.7388 42.4445L30.7387 42.4445L30.1863 43.2731ZM32.2737 44.6647L33.2426 44.8952L33.4031 44.2207L32.8261 43.836L32.2737 44.6647ZM32.1606 48.8599L32.7131 49.6886L33.2571 49.3259L33.1406 48.6825L32.1606 48.8599ZM30.1863 50.1761L30.7387 51.0048H30.7388L30.1863 50.1761ZM30.0679 50.7537L30.9018 50.2093L30.9018 50.2093L30.0679 50.7537ZM32.6836 54.7605L33.5176 54.216H33.5176L32.6836 54.7605ZM33.2557 54.8777L33.8081 55.7064L33.8081 55.7064L33.2557 54.8777ZM34.6876 53.9231L35.4186 53.2467L34.8418 52.6234L34.1352 53.0945L34.6876 53.9231ZM38.7356 56.5773H39.7315V55.8687L39.0621 55.6364L38.7356 56.5773ZM45.2458 56.5683L44.9167 55.6283L44.2499 55.8618V56.5683H45.2458ZM49.2166 53.9781L49.7763 53.1543L49.0729 52.6764L48.4907 53.2963L49.2166 53.9781ZM50.5213 54.8645L49.9616 55.6883H49.9616L50.5213 54.8645ZM51.0942 54.7521L50.2649 54.2007V54.2007L51.0942 54.7521ZM53.7431 50.7678L52.9138 50.2164L52.9138 50.2164L53.7431 50.7678ZM53.6296 50.1891L54.1893 49.3653L54.1893 49.3653L53.6296 50.1891ZM51.7813 48.9333L50.8026 48.7487L50.6816 49.3903L51.2216 49.7571L51.7813 48.9333ZM51.6899 44.6992L51.1302 43.8754L50.5642 44.26L50.7202 44.9263L51.6899 44.6992ZM53.8178 43.2535L54.3775 44.0773L54.3775 44.0773L53.8178 43.2535ZM53.9313 42.6748L54.7607 42.1234V42.1234L53.9313 42.6748ZM51.2583 38.6541L50.4289 39.2055V39.2055L51.2583 38.6541ZM50.6854 38.5418L50.1257 37.718L50.1257 37.718L50.6854 38.5418ZM48.8941 39.7587L48.1999 40.4729L48.7822 41.0388L49.4537 40.5825L48.8941 39.7587ZM45.0818 37.4409H44.0859V38.1606L44.7693 38.3865L45.0818 37.4409ZM39.5675 35.4149C39.5675 35.7358 39.3073 35.9959 38.9865 35.9959V34.0041C38.2073 34.0041 37.5756 34.6357 37.5756 35.4149H39.5675ZM39.5675 37.5462V35.4149H37.5756V37.5462H39.5675ZM35.7753 40.4538C36.668 39.5914 37.7346 38.9143 38.9147 38.4812L38.2284 36.6112C36.7821 37.1421 35.4792 37.9703 34.3914 39.0212L35.7753 40.4538ZM32.7271 39.3636L34.5309 40.5662L35.6358 38.9088L33.832 37.7063L32.7271 39.3636ZM33.5414 39.1967C33.3639 39.4685 32.9972 39.5437 32.7271 39.3636L33.832 37.7063C33.1805 37.272 32.3015 37.4522 31.8735 38.1078L33.5414 39.1967ZM30.9018 43.24L33.5414 39.1967L31.8735 38.1078L29.2339 42.1511L30.9018 43.24ZM30.7387 42.4445C31.0026 42.6204 31.0752 42.9744 30.9018 43.24L29.2339 42.1511C28.81 42.8004 28.9887 43.6717 29.6339 44.1018L30.7387 42.4445ZM32.8261 43.836L30.7388 42.4445L29.6339 44.1018L31.7213 45.4934L32.8261 43.836ZM32.9932 47.0325C32.9932 46.2952 33.0798 45.5796 33.2426 44.8952L31.3048 44.4342C31.1063 45.2686 31.0014 46.1388 31.0014 47.0325H32.9932ZM33.1406 48.6825C33.0439 48.1481 32.9932 47.5967 32.9932 47.0325H31.0014C31.0014 47.7162 31.0628 48.3863 31.1806 49.0373L33.1406 48.6825ZM30.7388 51.0048L32.7131 49.6886L31.6082 48.0312L29.6339 49.3474L30.7388 51.0048ZM30.9018 50.2093C31.0752 50.4748 31.0026 50.8288 30.7387 51.0048L29.6339 49.3474C28.9887 49.7776 28.81 50.6488 29.2339 51.2981L30.9018 50.2093ZM33.5176 54.216L30.9018 50.2093L29.2339 51.2981L31.8497 55.3049L33.5176 54.216ZM32.7032 54.0491C32.9734 53.869 33.3401 53.9442 33.5176 54.216L31.8497 55.3049C32.2777 55.9605 33.1567 56.1407 33.8081 55.7064L32.7032 54.0491ZM34.1352 53.0945L32.7032 54.0491L33.8081 55.7064L35.2401 54.7518L34.1352 53.0945ZM39.0621 55.6364C37.6604 55.15 36.413 54.3213 35.4186 53.2467L33.9566 54.5995C35.1677 55.9083 36.6909 56.9219 38.4091 57.5182L39.0621 55.6364ZM39.7315 58.5855V56.5773H37.7397V58.5855H39.7315ZM39.1505 58.0045C39.4714 58.0045 39.7315 58.2646 39.7315 58.5855H37.7397C37.7397 59.3647 38.3713 59.9963 39.1505 59.9963V58.0045ZM44.8309 58.0045H39.1505V59.9963H44.8309V58.0045ZM44.2499 58.5855C44.2499 58.2646 44.51 58.0045 44.8309 58.0045V59.9963C45.6101 59.9963 46.2418 59.3647 46.2418 58.5855H44.2499ZM44.2499 56.5683V58.5855H46.2418V56.5683H44.2499ZM48.4907 53.2963C47.5095 54.3409 46.2873 55.1483 44.9167 55.6283L45.575 57.5082C47.255 56.9199 48.7475 55.9323 49.9426 54.6599L48.4907 53.2963ZM51.081 54.0407L49.7763 53.1543L48.6569 54.8019L49.9616 55.6883L51.081 54.0407ZM50.2649 54.2007C50.4447 53.9303 50.8123 53.8582 51.081 54.0407L49.9616 55.6883C50.6094 56.1283 51.49 55.9556 51.9236 55.3035L50.2649 54.2007ZM52.9138 50.2164L50.2649 54.2007L51.9236 55.3035L54.5725 51.3192L52.9138 50.2164ZM53.07 51.0129C52.8078 50.8347 52.7383 50.4804 52.9138 50.2164L54.5725 51.3192C55.0017 50.6735 54.8306 49.801 54.1893 49.3653L53.07 51.0129ZM51.2216 49.7571L53.07 51.0129L54.1893 49.3653L52.341 48.1095L51.2216 49.7571ZM50.9622 47.0325C50.9622 47.62 50.9073 48.1937 50.8026 48.7487L52.76 49.1179C52.8875 48.4417 52.9541 47.7445 52.9541 47.0325H50.9622ZM50.7202 44.9263C50.8783 45.6013 50.9622 46.3063 50.9622 47.0325H52.9541C52.9541 46.1524 52.8523 45.2949 52.6596 44.4721L50.7202 44.9263ZM53.2582 42.4297L51.1302 43.8754L52.2496 45.523L54.3775 44.0773L53.2582 42.4297ZM53.102 43.2262C52.9265 42.9622 52.996 42.6078 53.2582 42.4297L54.3775 44.0773C55.0188 43.6416 55.1899 42.769 54.7607 42.1234L53.102 43.2262ZM50.4289 39.2055L53.102 43.2262L54.7607 42.1234L52.0877 38.1027L50.4289 39.2055ZM51.245 39.3656C50.9764 39.5481 50.6087 39.476 50.4289 39.2055L52.0877 38.1027C51.6541 37.4506 50.7734 37.2779 50.1257 37.718L51.245 39.3656ZM49.4537 40.5825L51.245 39.3656L50.1257 37.718L48.3344 38.9349L49.4537 40.5825ZM44.7693 38.3865C46.0664 38.8152 47.2355 39.5355 48.1999 40.4729L49.5882 39.0446C48.413 37.9023 46.9845 37.0208 45.3943 36.4952L44.7693 38.3865ZM44.0859 35.4149V37.4409H46.0777V35.4149H44.0859ZM44.6669 35.9959C44.346 35.9959 44.0859 35.7358 44.0859 35.4149H46.0777C46.0777 34.6357 45.446 34.0041 44.6669 34.0041V35.9959ZM38.9865 35.9959H44.6669V34.0041H38.9865V35.9959ZM45.2907 47.0001C45.2907 48.9387 43.7255 50.5044 41.8021 50.5044V52.4962C44.8321 52.4962 47.2825 50.0323 47.2825 47.0001H45.2907ZM41.8021 43.4959C43.7255 43.4959 45.2907 45.0615 45.2907 47.0001H47.2825C47.2825 43.968 44.8321 41.5041 41.8021 41.5041V43.4959ZM38.3136 47.0001C38.3136 45.0615 39.8787 43.4959 41.8021 43.4959V41.5041C38.7721 41.5041 36.3217 43.968 36.3217 47.0001H38.3136ZM41.8021 50.5044C39.8787 50.5044 38.3136 48.9387 38.3136 47.0001H36.3217C36.3217 50.0323 38.7721 52.4962 41.8021 52.4962V50.5044Z" fill="#FFFDFD" mask="url(#path-8-outside-1_6729_5952)"/>
<mask id="path-10-inside-2_6729_5952" fill="white">
<path fill-rule="evenodd" clip-rule="evenodd" d="M38.9865 35C38.7573 35 38.5715 35.1858 38.5715 35.4149V37.5462C37.2583 38.0282 36.0736 38.7808 35.0833 39.7375L33.2795 38.535C33.0888 38.4079 32.8327 38.4604 32.7075 38.6523L30.0679 42.6955C29.9426 42.8874 29.9956 43.146 30.1863 43.2731L32.2737 44.6647C32.093 45.4241 31.9973 46.217 31.9973 47.0325C31.9973 47.6565 32.0534 48.2672 32.1606 48.8599L30.1863 50.1761C29.9956 50.3032 29.9426 50.5618 30.0679 50.7537L32.6836 54.7605C32.8089 54.9523 33.065 55.0048 33.2557 54.8777L34.6876 53.9231C35.7903 55.1148 37.1757 56.036 38.7356 56.5773V58.5855C38.7356 58.8146 38.9214 59.0004 39.1505 59.0004H44.8309C45.0601 59.0004 45.2458 58.8146 45.2458 58.5855V56.5683C46.7711 56.0341 48.1285 55.1366 49.2166 53.9781L50.5213 54.8645C50.7108 54.9933 50.9674 54.943 51.0942 54.7521L53.7431 50.7678C53.87 50.5769 53.8192 50.3178 53.6296 50.1891L51.7813 48.9333C51.8974 48.3177 51.9582 47.6823 51.9582 47.0325C51.9582 46.2293 51.8653 45.4481 51.6899 44.6992L53.8178 43.2535C54.0074 43.1247 54.0582 42.8656 53.9313 42.6748L51.2583 38.6541C51.1314 38.4633 50.8749 38.413 50.6854 38.5418L48.8941 39.7587C47.8242 38.7189 46.5255 37.918 45.0818 37.4409V35.4149C45.0818 35.1858 44.896 35 44.6669 35H38.9865ZM41.8021 51.5003C44.2788 51.5003 46.2866 49.4855 46.2866 47.0001C46.2866 44.5148 44.2788 42.5 41.8021 42.5C39.3254 42.5 37.3176 44.5148 37.3176 47.0001C37.3176 49.4855 39.3254 51.5003 41.8021 51.5003Z"/>
</mask>
<path d="M38.5715 37.5462L38.9147 38.4812L39.5675 38.2416V37.5462H38.5715ZM35.0833 39.7375L34.5309 40.5662L35.1983 41.0111L35.7753 40.4538L35.0833 39.7375ZM33.2795 38.535L32.7271 39.3636H32.7271L33.2795 38.535ZM32.7075 38.6523L33.5414 39.1967L32.7075 38.6523ZM30.0679 42.6955L29.2339 42.1511H29.2339L30.0679 42.6955ZM30.1863 43.2731L30.7388 42.4445L30.7387 42.4445L30.1863 43.2731ZM32.2737 44.6647L33.2426 44.8952L33.4031 44.2207L32.8261 43.836L32.2737 44.6647ZM32.1606 48.8599L32.7131 49.6886L33.2571 49.3259L33.1406 48.6825L32.1606 48.8599ZM30.1863 50.1761L30.7387 51.0048H30.7388L30.1863 50.1761ZM30.0679 50.7537L30.9018 50.2093L30.9018 50.2093L30.0679 50.7537ZM32.6836 54.7605L33.5176 54.216H33.5176L32.6836 54.7605ZM33.2557 54.8777L33.8081 55.7064L33.8081 55.7064L33.2557 54.8777ZM34.6876 53.9231L35.4186 53.2467L34.8418 52.6234L34.1352 53.0945L34.6876 53.9231ZM38.7356 56.5773H39.7315V55.8687L39.0621 55.6364L38.7356 56.5773ZM45.2458 56.5683L44.9167 55.6283L44.2499 55.8618V56.5683H45.2458ZM49.2166 53.9781L49.7763 53.1543L49.0729 52.6764L48.4907 53.2963L49.2166 53.9781ZM50.5213 54.8645L49.9616 55.6883H49.9616L50.5213 54.8645ZM51.0942 54.7521L50.2649 54.2007V54.2007L51.0942 54.7521ZM53.7431 50.7678L52.9138 50.2164L52.9138 50.2164L53.7431 50.7678ZM53.6296 50.1891L54.1893 49.3653L54.1893 49.3653L53.6296 50.1891ZM51.7813 48.9333L50.8026 48.7487L50.6816 49.3903L51.2216 49.7571L51.7813 48.9333ZM51.6899 44.6992L51.1302 43.8754L50.5642 44.26L50.7202 44.9263L51.6899 44.6992ZM53.8178 43.2535L54.3775 44.0773L54.3775 44.0773L53.8178 43.2535ZM53.9313 42.6748L54.7607 42.1234V42.1234L53.9313 42.6748ZM51.2583 38.6541L50.4289 39.2055V39.2055L51.2583 38.6541ZM50.6854 38.5418L50.1257 37.718L50.1257 37.718L50.6854 38.5418ZM48.8941 39.7587L48.1999 40.4729L48.7822 41.0388L49.4537 40.5825L48.8941 39.7587ZM45.0818 37.4409H44.0859V38.1606L44.7693 38.3865L45.0818 37.4409ZM39.5675 35.4149C39.5675 35.7358 39.3073 35.9959 38.9865 35.9959V34.0041C38.2073 34.0041 37.5756 34.6357 37.5756 35.4149H39.5675ZM39.5675 37.5462V35.4149H37.5756V37.5462H39.5675ZM35.7753 40.4538C36.668 39.5914 37.7346 38.9143 38.9147 38.4812L38.2284 36.6112C36.7821 37.1421 35.4792 37.9703 34.3914 39.0212L35.7753 40.4538ZM32.7271 39.3636L34.5309 40.5662L35.6358 38.9088L33.832 37.7063L32.7271 39.3636ZM33.5414 39.1967C33.3639 39.4685 32.9972 39.5437 32.7271 39.3636L33.832 37.7063C33.1805 37.272 32.3015 37.4522 31.8735 38.1078L33.5414 39.1967ZM30.9018 43.24L33.5414 39.1967L31.8735 38.1078L29.2339 42.1511L30.9018 43.24ZM30.7387 42.4445C31.0026 42.6204 31.0752 42.9744 30.9018 43.24L29.2339 42.1511C28.81 42.8004 28.9887 43.6717 29.6339 44.1018L30.7387 42.4445ZM32.8261 43.836L30.7388 42.4445L29.6339 44.1018L31.7213 45.4934L32.8261 43.836ZM32.9932 47.0325C32.9932 46.2952 33.0798 45.5796 33.2426 44.8952L31.3048 44.4342C31.1063 45.2686 31.0014 46.1388 31.0014 47.0325H32.9932ZM33.1406 48.6825C33.0439 48.1481 32.9932 47.5967 32.9932 47.0325H31.0014C31.0014 47.7162 31.0628 48.3863 31.1806 49.0373L33.1406 48.6825ZM30.7388 51.0048L32.7131 49.6886L31.6082 48.0312L29.6339 49.3474L30.7388 51.0048ZM30.9018 50.2093C31.0752 50.4748 31.0026 50.8288 30.7387 51.0048L29.6339 49.3474C28.9887 49.7776 28.81 50.6488 29.2339 51.2981L30.9018 50.2093ZM33.5176 54.216L30.9018 50.2093L29.2339 51.2981L31.8497 55.3049L33.5176 54.216ZM32.7032 54.0491C32.9734 53.869 33.3401 53.9442 33.5176 54.216L31.8497 55.3049C32.2777 55.9605 33.1567 56.1407 33.8081 55.7064L32.7032 54.0491ZM34.1352 53.0945L32.7032 54.0491L33.8081 55.7064L35.2401 54.7518L34.1352 53.0945ZM39.0621 55.6364C37.6604 55.15 36.413 54.3213 35.4186 53.2467L33.9566 54.5995C35.1677 55.9083 36.6909 56.9219 38.4091 57.5182L39.0621 55.6364ZM39.7315 58.5855V56.5773H37.7397V58.5855H39.7315ZM39.1505 58.0045C39.4714 58.0045 39.7315 58.2646 39.7315 58.5855H37.7397C37.7397 59.3647 38.3713 59.9963 39.1505 59.9963V58.0045ZM44.8309 58.0045H39.1505V59.9963H44.8309V58.0045ZM44.2499 58.5855C44.2499 58.2646 44.51 58.0045 44.8309 58.0045V59.9963C45.6101 59.9963 46.2418 59.3647 46.2418 58.5855H44.2499ZM44.2499 56.5683V58.5855H46.2418V56.5683H44.2499ZM48.4907 53.2963C47.5095 54.3409 46.2873 55.1483 44.9167 55.6283L45.575 57.5082C47.255 56.9199 48.7475 55.9323 49.9426 54.6599L48.4907 53.2963ZM51.081 54.0407L49.7763 53.1543L48.6569 54.8019L49.9616 55.6883L51.081 54.0407ZM50.2649 54.2007C50.4447 53.9303 50.8123 53.8582 51.081 54.0407L49.9616 55.6883C50.6094 56.1283 51.49 55.9556 51.9236 55.3035L50.2649 54.2007ZM52.9138 50.2164L50.2649 54.2007L51.9236 55.3035L54.5725 51.3192L52.9138 50.2164ZM53.07 51.0129C52.8078 50.8347 52.7383 50.4804 52.9138 50.2164L54.5725 51.3192C55.0017 50.6735 54.8306 49.801 54.1893 49.3653L53.07 51.0129ZM51.2216 49.7571L53.07 51.0129L54.1893 49.3653L52.341 48.1095L51.2216 49.7571ZM50.9622 47.0325C50.9622 47.62 50.9073 48.1937 50.8026 48.7487L52.76 49.1179C52.8875 48.4417 52.9541 47.7445 52.9541 47.0325H50.9622ZM50.7202 44.9263C50.8783 45.6013 50.9622 46.3063 50.9622 47.0325H52.9541C52.9541 46.1524 52.8523 45.2949 52.6596 44.4721L50.7202 44.9263ZM53.2582 42.4297L51.1302 43.8754L52.2496 45.523L54.3775 44.0773L53.2582 42.4297ZM53.102 43.2262C52.9265 42.9622 52.996 42.6078 53.2582 42.4297L54.3775 44.0773C55.0188 43.6416 55.1899 42.769 54.7607 42.1234L53.102 43.2262ZM50.4289 39.2055L53.102 43.2262L54.7607 42.1234L52.0877 38.1027L50.4289 39.2055ZM51.245 39.3656C50.9764 39.5481 50.6087 39.476 50.4289 39.2055L52.0877 38.1027C51.6541 37.4506 50.7734 37.2779 50.1257 37.718L51.245 39.3656ZM49.4537 40.5825L51.245 39.3656L50.1257 37.718L48.3344 38.9349L49.4537 40.5825ZM44.7693 38.3865C46.0664 38.8152 47.2355 39.5355 48.1999 40.4729L49.5882 39.0446C48.413 37.9023 46.9845 37.0208 45.3943 36.4952L44.7693 38.3865ZM44.0859 35.4149V37.4409H46.0777V35.4149H44.0859ZM44.6669 35.9959C44.346 35.9959 44.0859 35.7358 44.0859 35.4149H46.0777C46.0777 34.6357 45.446 34.0041 44.6669 34.0041V35.9959ZM38.9865 35.9959H44.6669V34.0041H38.9865V35.9959ZM45.2907 47.0001C45.2907 48.9387 43.7255 50.5044 41.8021 50.5044V52.4962C44.8321 52.4962 47.2825 50.0323 47.2825 47.0001H45.2907ZM41.8021 43.4959C43.7255 43.4959 45.2907 45.0615 45.2907 47.0001H47.2825C47.2825 43.968 44.8321 41.5041 41.8021 41.5041V43.4959ZM38.3136 47.0001C38.3136 45.0615 39.8787 43.4959 41.8021 43.4959V41.5041C38.7721 41.5041 36.3217 43.968 36.3217 47.0001H38.3136ZM41.8021 50.5044C39.8787 50.5044 38.3136 48.9387 38.3136 47.0001H36.3217C36.3217 50.0323 38.7721 52.4962 41.8021 52.4962V50.5044Z" fill="#7A9CD2" mask="url(#path-10-inside-2_6729_5952)"/>
</svg>
