<svg width="62" height="62" viewBox="0 0 62 62" fill="none" xmlns="http://www.w3.org/2000/svg">
<rect width="62" height="62" rx="4.16315" fill="#FDFDFD"/>
<rect x="11.8056" y="29.3662" width="18.17" height="16.17" rx="2.585" stroke="#7A9CD2" stroke-width="0.83" stroke-dasharray="2.08 2.08"/>
<rect x="23.3906" y="34.9512" width="18.5289" height="16.2704" rx="2.08158" fill="#FFFDFD"/>
<path d="M17.6518 9.7866C14.2038 13.0352 10.8828 15.0541 6.87032 16.0659C6.37694 16.1904 6.03455 16.651 6.101 17.1554C7.34344 26.5886 13.6239 32.9065 18.1062 35.3403C18.3356 35.4649 18.6035 35.4883 18.8487 35.3986C23.8733 33.561 31.0987 25.9597 31.5032 17.0483C31.524 16.5899 31.208 16.19 30.7641 16.0739C26.2249 14.8861 22.2423 13.314 19.187 9.87133C18.7881 9.42191 18.0891 9.37454 17.6518 9.7866Z" fill="#FFFDFD" stroke="#7A9CD2" stroke-width="0.83"/>
<rect x="23.3906" y="20.9512" width="20" height="17" rx="2.08158" fill="#FFFDFD"/>
<rect x="25.3906" y="22.9512" width="28" height="28" rx="3" fill="#CCDCF6"/>
<rect x="23.8056" y="21.3662" width="31.17" height="31.17" rx="2.585" stroke="#7A9CD2" stroke-width="0.83"/>
<path d="M37.8227 47.0919C36.1046 45.159 34.6173 42.2853 34.949 39.6314C35.1085 38.3558 35.6817 37.1059 36.7477 36.3444C37.5877 35.7444 38.9242 35.2266 39.9726 35.3145C40.7444 35.3791 41.7446 35.5246 42.388 35.9954C42.8948 36.3662 43.4544 36.9755 43.7414 37.5329C44.0458 38.1241 44.213 38.758 44.3923 39.3937C44.4661 39.6554 44.5679 39.9201 44.5679 40.1924" stroke="#7A9CD2" stroke-width="0.83" stroke-linecap="round"/>
<path d="M42.446 47.9029C42.3774 47.8953 42.3256 47.824 42.2704 47.7873C41.7685 47.4527 41.1435 47.3062 40.6237 46.9885C39.5524 46.3338 38.6694 45.2988 38.1376 44.1641C37.5814 42.9772 37.3775 41.5683 37.341 40.2668C37.3186 39.4651 37.5885 38.2855 38.4096 37.9242C39.0619 37.6372 39.9768 37.6974 40.5188 38.1683C41.232 38.788 41.5536 39.6493 41.9578 40.4681C42.3016 41.1646 42.7322 41.9106 43.3925 42.3568C44.0902 42.8282 44.9717 42.6698 45.6409 42.2197C47.7 40.8349 47.2772 37.8727 46.112 36.0527C45.2855 34.7616 44.0766 33.9998 42.7544 33.2796C41.1963 32.431 39.1473 32.1301 37.4138 32.5366C35.5609 32.971 33.9687 34.1187 32.6472 35.4402C31.5609 36.5265 30.9213 37.8118 30.8506 39.3675C30.7968 40.5507 31.068 41.8539 31.3667 42.9949C31.4313 43.2419 31.621 44.0247 31.9234 44.1255" stroke="#7A9CD2" stroke-width="0.83" stroke-linecap="round"/>
<path d="M38.9766 40C38.9766 40.1397 39.0096 40.2769 39.0537 40.409C39.2556 41.0148 39.5129 41.6203 39.7881 42.197C40.3349 43.3427 41.0641 44.4449 42.2164 45.0643C43.1043 45.5415 44.1579 45.9967 45.1736 46.0429C45.5358 46.0593 45.8661 45.9358 46.2229 45.9358" stroke="#7A9CD2" stroke-width="0.83" stroke-linecap="round"/>
<path d="M29.6133 35.2203C29.7108 35.1629 29.7599 35.0656 29.8296 34.9783C30.2532 34.447 30.7046 33.9363 31.185 33.4558C31.8847 32.7561 32.6594 32.1144 33.5063 31.6035C34.441 31.0396 35.3091 30.5456 36.3671 30.2352C37.4404 29.9204 38.5388 29.8169 39.6519 29.9012C41.8396 30.0668 43.9315 31.0295 45.759 32.1903C46.5641 32.7016 47.25 33.3848 48.0374 33.9098" stroke="#7A9CD2" stroke-width="0.83" stroke-linecap="round"/>
<path d="M31.0781 30.0161C31.6478 29.5075 32.4076 29.0905 33.0632 28.6949C33.8693 28.2085 34.6761 27.7777 35.5493 27.4208C37.1804 26.7541 38.9189 26.3919 40.6757 26.6542C42.1718 26.8776 43.6506 27.4931 44.9669 28.2302C45.575 28.5708 46.1329 29.0512 46.7656 29.3223" stroke="#7A9CD2" stroke-width="0.83" stroke-linecap="round"/>
<path d="M43.3906 17.4512H53.3906" stroke="#7A9CD2" stroke-width="0.83" stroke-linecap="round"/>
<path d="M38.3906 13.4512H53.3906" stroke="#7A9CD2" stroke-width="0.83" stroke-linecap="round"/>
<path d="M33.3906 9.45117H53.3906" stroke="#7A9CD2" stroke-width="0.83" stroke-linecap="round"/>
<path d="M13.3906 21.9512L16.6587 25.2193C17.0588 25.6193 17.7108 25.6081 18.0969 25.1945L24.3906 18.4512" stroke="#7A9CD2" stroke-width="0.83" stroke-linecap="round"/>
</svg>
