<svg width="472" height="190" viewBox="0 0 472 190" fill="none" xmlns="http://www.w3.org/2000/svg">
<g clip-path="url(#clip0_3748_10458)">
<rect width="472" height="190" rx="15" fill="url(#paint0_linear_3748_10458)"/>
<path d="M-6.5 76.0277C31 41.861 111.9 -26.9723 135.5 -28.9723C165 -31.4723 -22 136.028 -22 148.028C-22 160.028 194.5 -4.47266 214 -19.9727C233.5 -35.4727 -10 204.527 5 209.027C20 213.527 295 -28.9723 308.5 -28.9723C322 -28.9723 106 197.027 118 203.027C130 209.027 337 -9.97266 348.5 -4.47266C360 1.02734 190 181.027 214 182.527C238 184.027 387 -10.9727 395 -10.9727C403 -10.9727 201.5 223.027 227.5 220.027C253.5 217.027 450 -19.973 464.5 -24.4727C479 -28.9723 307.5 179.027 325.5 186.527C343.5 194.027 483 26.5273 498 28.5273C513 30.5273 383 178.527 395 182.527C404.6 185.727 482.667 131.527 520.5 104.027" stroke="#FFFDFD" stroke-width="3" stroke-linecap="round"/>
<g filter="url(#filter0_d_3748_10458)">
<rect x="152" y="23" width="210" height="143" rx="10" fill="#FFFDFD" fill-opacity="0.8" shape-rendering="crispEdges"/>
</g>
<rect x="175.294" y="34.6494" width="167.555" height="114.95" rx="12.3393" fill="#CCDCF6" stroke="url(#paint1_linear_3748_10458)" stroke-width="1.29887"/>
<rect x="182.5" y="40.5" width="154" height="98" rx="9.24155" fill="#FFFDFD" stroke="#CCDCF6"/>
<path d="M166.52 143.106H350.506C352.565 143.106 353.806 145.389 352.686 147.117L347.634 154.91C347.155 155.648 346.335 156.094 345.454 156.094H170.853C169.909 156.094 169.04 155.583 168.582 154.759L164.25 146.966C163.287 145.235 164.539 143.106 166.52 143.106Z" fill="#A9C0E6" stroke="url(#paint2_linear_3748_10458)" stroke-width="1.29887"/>
<rect x="236.088" y="142.457" width="45.31" height="4.76228" rx="2.38114" fill="#C6D4EA"/>
<rect x="189" y="63" width="66" height="23" rx="2" fill="url(#paint3_linear_3748_10458)"/>
<rect width="13" height="13" rx="6.5" transform="matrix(1 0 0 -1 270 103)" fill="url(#paint4_linear_3748_10458)"/>
<rect width="13" height="13" rx="6.5" transform="matrix(1 0 0 -1 288 103)" fill="url(#paint5_linear_3748_10458)"/>
<rect width="13" height="13" rx="6.5" transform="matrix(1 0 0 -1 306 103)" fill="url(#paint6_linear_3748_10458)"/>
<rect width="65" height="5" rx="1.40682" transform="matrix(1 0 0 -1 265 79)" fill="url(#paint7_linear_3748_10458)"/>
<rect width="66" height="5" rx="1.40682" transform="matrix(1 0 0 -1 189 106)" fill="url(#paint8_linear_3748_10458)"/>
<rect width="65" height="5" rx="1.40682" transform="matrix(1 0 0 -1 265 86)" fill="url(#paint9_linear_3748_10458)"/>
<rect width="66" height="23" rx="1.40682" transform="matrix(1 0 0 -1 189 131)" fill="url(#paint10_linear_3748_10458)"/>
<rect width="71" height="24" rx="1.40682" transform="matrix(1 0 0 -1 259 131)" fill="url(#paint11_linear_3748_10458)"/>
<rect width="65" height="9" rx="1.40682" transform="matrix(1 0 0 -1 265 72)" fill="url(#paint12_linear_3748_10458)"/>
<rect width="66" height="9" rx="1.40682" transform="matrix(1 0 0 -1 189 99)" fill="url(#paint13_linear_3748_10458)"/>
<circle opacity="0.6" cx="195.444" cy="46.4437" r="2.44369" fill="#FF5934"/>
<circle opacity="0.6" cx="205.213" cy="46.4437" r="2.44369" fill="#FBCC27"/>
<circle opacity="0.6" cx="214.993" cy="46.4437" r="2.44369" fill="#74CC5D"/>
<path d="M182 51L336 51" stroke="#CCDCF6" stroke-width="0.192871"/>
<path d="M399.705 118.429C399.238 118.986 398.41 119.067 397.843 118.611L389.227 111.681C388.597 111.175 388.599 110.216 389.23 109.711L397.944 102.745C398.492 102.307 399.29 102.388 399.739 102.927V102.927C400.205 103.487 400.115 104.321 399.541 104.769L392.963 109.893C392.483 110.267 392.482 110.991 392.959 111.367L399.508 116.519C400.101 116.986 400.19 117.851 399.705 118.429V118.429Z" fill="url(#paint14_linear_3748_10458)"/>
<path d="M406.652 125.5C405.573 125.5 404.857 124.383 405.308 123.403L417.769 96.2949C418.01 95.77 418.535 95.4336 419.113 95.4336V95.4336C420.191 95.4336 420.907 96.5506 420.457 97.5305L407.996 124.639C407.754 125.164 407.23 125.5 406.652 125.5V125.5Z" fill="url(#paint15_linear_3748_10458)"/>
<path d="M425.865 102.96C426.333 102.403 427.16 102.322 427.727 102.777L436.344 109.708C436.973 110.214 436.972 111.173 436.341 111.677L427.627 118.643C427.079 119.081 426.281 119.001 425.832 118.462V118.462C425.366 117.902 425.455 117.068 426.03 116.62L432.608 111.495C433.087 111.122 433.089 110.398 432.611 110.022L426.063 104.869C425.47 104.403 425.381 103.538 425.865 102.96V102.96Z" fill="url(#paint16_linear_3748_10458)"/>
<path d="M97.4355 32.043V27.1999C97.4355 27.0613 97.5479 26.9489 97.6865 26.9489H100.794C100.932 26.9489 101.045 26.8366 101.045 26.698V25.5053" stroke="url(#paint17_linear_3748_10458)" stroke-width="0.700526" stroke-linecap="round"/>
<path d="M88.7754 31.9492V27.2001C88.7754 27.0615 88.6631 26.9492 88.5245 26.9492H85.4172C85.2787 26.9492 85.1663 26.8368 85.1663 26.6983V25.5056" stroke="url(#paint18_linear_3748_10458)" stroke-width="0.700526" stroke-linecap="round"/>
<path d="M93.1035 31.7617V23.303" stroke="url(#paint19_linear_3748_10458)" stroke-width="0.700526" stroke-linecap="round"/>
<circle cx="2.16543" cy="2.16543" r="2.16543" transform="matrix(1 0 0 -1 90.9395 23.332)" fill="url(#paint20_linear_3748_10458)"/>
<circle cx="2.16543" cy="2.16543" r="2.16543" transform="matrix(1 0 0 -1 98.877 25.4961)" fill="url(#paint21_linear_3748_10458)"/>
<circle cx="85.1646" cy="23.3307" r="2.16543" transform="rotate(-180 85.1646 23.3307)" fill="url(#paint22_linear_3748_10458)"/>
<path d="M75.041 45.5625H70.1979C70.0593 45.5625 69.947 45.4502 69.947 45.3116V42.2044C69.947 42.0658 69.8347 41.9534 69.6961 41.9534H68.5034" stroke="url(#paint23_linear_3748_10458)" stroke-width="0.700526" stroke-linecap="round"/>
<path d="M74.9473 54.2227H70.1981C70.0596 54.2227 69.9472 54.335 69.9472 54.4736V57.5808C69.9472 57.7194 69.8349 57.8317 69.6963 57.8317H68.5036" stroke="url(#paint24_linear_3748_10458)" stroke-width="0.700526" stroke-linecap="round"/>
<path d="M74.7598 49.8945H66.3011" stroke="url(#paint25_linear_3748_10458)" stroke-width="0.700526" stroke-linecap="round"/>
<circle cx="2.16543" cy="2.16543" r="2.16543" transform="matrix(0 -1 -1 0 66.3301 52.0586)" fill="url(#paint26_linear_3748_10458)"/>
<circle cx="2.16543" cy="2.16543" r="2.16543" transform="matrix(0 -1 -1 0 68.4941 44.1211)" fill="url(#paint27_linear_3748_10458)"/>
<circle cx="66.3287" cy="57.8334" r="2.16543" transform="rotate(90 66.3287 57.8334)" fill="url(#paint28_linear_3748_10458)"/>
<path d="M111 54.4375H115.843C115.982 54.4375 116.094 54.5498 116.094 54.6884V57.7956C116.094 57.9342 116.206 58.0466 116.345 58.0466H117.538" stroke="url(#paint29_linear_3748_10458)" stroke-width="0.700526" stroke-linecap="round"/>
<path d="M111.094 45.7773H115.843C115.981 45.7773 116.094 45.665 116.094 45.5264V42.4192C116.094 42.2806 116.206 42.1683 116.345 42.1683H117.537" stroke="url(#paint30_linear_3748_10458)" stroke-width="0.700526" stroke-linecap="round"/>
<path d="M111.281 50.1055H119.74" stroke="url(#paint31_linear_3748_10458)" stroke-width="0.700526" stroke-linecap="round"/>
<circle cx="2.16543" cy="2.16543" r="2.16543" transform="matrix(0 1 1 0 119.711 47.9414)" fill="url(#paint32_linear_3748_10458)"/>
<circle cx="2.16543" cy="2.16543" r="2.16543" transform="matrix(0 1 1 0 117.547 55.8789)" fill="url(#paint33_linear_3748_10458)"/>
<circle cx="119.712" cy="42.1666" r="2.16543" transform="rotate(-90 119.712 42.1666)" fill="url(#paint34_linear_3748_10458)"/>
<path d="M88.5645 68V72.8431C88.5645 72.9817 88.4521 73.094 88.3135 73.094H85.2063C85.0677 73.094 84.9554 73.2064 84.9554 73.3449V74.5376" stroke="url(#paint35_linear_3748_10458)" stroke-width="0.700526" stroke-linecap="round"/>
<path d="M97.2246 68.0938V72.8429C97.2246 72.9815 97.3369 73.0938 97.4755 73.0938H100.583C100.721 73.0938 100.834 73.2061 100.834 73.3447V74.5374" stroke="url(#paint36_linear_3748_10458)" stroke-width="0.700526" stroke-linecap="round"/>
<path d="M92.8965 68.2812V76.74" stroke="url(#paint37_linear_3748_10458)" stroke-width="0.700526" stroke-linecap="round"/>
<circle cx="2.16543" cy="2.16543" r="2.16543" transform="matrix(-1 0 0 1 95.0605 76.7109)" fill="url(#paint38_linear_3748_10458)"/>
<circle cx="2.16543" cy="2.16543" r="2.16543" transform="matrix(-1 0 0 1 87.123 74.5469)" fill="url(#paint39_linear_3748_10458)"/>
<circle cx="100.835" cy="76.7123" r="2.16543" fill="url(#paint40_linear_3748_10458)"/>
<rect x="75" y="32" width="36.2785" height="36.2785" rx="3.7636" fill="url(#paint41_linear_3748_10458)"/>
<rect x="82.4902" y="39.4961" width="21.4287" height="21.4287" rx="2.50906" fill="url(#paint42_linear_3748_10458)"/>
<g filter="url(#filter1_d_3748_10458)">
<rect x="80.4453" y="105" width="88.7202" height="73.2157" rx="11.7368" fill="#CCDCF6" fill-opacity="0.5" shape-rendering="crispEdges"/>
</g>
</g>
<defs>
<filter id="filter0_d_3748_10458" x="152" y="23" width="220" height="151" filterUnits="userSpaceOnUse" color-interpolation-filters="sRGB">
<feFlood flood-opacity="0" result="BackgroundImageFix"/>
<feColorMatrix in="SourceAlpha" type="matrix" values="0 0 0 0 0 0 0 0 0 0 0 0 0 0 0 0 0 0 127 0" result="hardAlpha"/>
<feOffset dx="6" dy="4"/>
<feGaussianBlur stdDeviation="2"/>
<feComposite in2="hardAlpha" operator="out"/>
<feColorMatrix type="matrix" values="0 0 0 0 0.803922 0 0 0 0 0.866667 0 0 0 0 0.964706 0 0 0 0.25 0"/>
<feBlend mode="normal" in2="BackgroundImageFix" result="effect1_dropShadow_3748_10458"/>
<feBlend mode="normal" in="SourceGraphic" in2="effect1_dropShadow_3748_10458" result="shape"/>
</filter>
<filter id="filter1_d_3748_10458" x="78.0979" y="102.653" width="102.805" height="87.2991" filterUnits="userSpaceOnUse" color-interpolation-filters="sRGB">
<feFlood flood-opacity="0" result="BackgroundImageFix"/>
<feColorMatrix in="SourceAlpha" type="matrix" values="0 0 0 0 0 0 0 0 0 0 0 0 0 0 0 0 0 0 127 0" result="hardAlpha"/>
<feOffset dx="4.69474" dy="4.69474"/>
<feGaussianBlur stdDeviation="3.52105"/>
<feComposite in2="hardAlpha" operator="out"/>
<feColorMatrix type="matrix" values="0 0 0 0 0.803922 0 0 0 0 0.866667 0 0 0 0 0.964706 0 0 0 0.3 0"/>
<feBlend mode="normal" in2="BackgroundImageFix" result="effect1_dropShadow_3748_10458"/>
<feBlend mode="normal" in="SourceGraphic" in2="effect1_dropShadow_3748_10458" result="shape"/>
</filter>
<linearGradient id="paint0_linear_3748_10458" x1="116.265" y1="2.78028e-06" x2="134.851" y2="295.431" gradientUnits="userSpaceOnUse">
<stop stop-color="#F7F2EF"/>
<stop offset="1" stop-color="white" stop-opacity="0.94"/>
</linearGradient>
<linearGradient id="paint1_linear_3748_10458" x1="191.334" y1="93.8859" x2="461.028" y2="158.394" gradientUnits="userSpaceOnUse">
<stop offset="0.0129121" stop-color="#9FB7DF"/>
<stop offset="0.368785" stop-color="#A3BBE1"/>
<stop offset="0.877685" stop-color="#CCDCF6"/>
<stop offset="1" stop-color="white"/>
</linearGradient>
<linearGradient id="paint2_linear_3748_10458" x1="114" y1="169.5" x2="428.898" y2="188.233" gradientUnits="userSpaceOnUse">
<stop stop-color="#BFD0EB"/>
<stop offset="0.259993" stop-color="#BFD0EB"/>
<stop offset="0.545" stop-color="#C7D4EB"/>
<stop offset="1" stop-color="white"/>
</linearGradient>
<linearGradient id="paint3_linear_3748_10458" x1="195.523" y1="74.8485" x2="282.269" y2="88.3134" gradientUnits="userSpaceOnUse">
<stop stop-color="#CCDCF6"/>
<stop offset="1" stop-color="white"/>
</linearGradient>
<linearGradient id="paint4_linear_3748_10458" x1="1.28488" y1="6.69697" x2="18.7318" y2="7.64072" gradientUnits="userSpaceOnUse">
<stop stop-color="#CCDCF6"/>
<stop offset="1" stop-color="white"/>
</linearGradient>
<linearGradient id="paint5_linear_3748_10458" x1="1.28488" y1="6.69697" x2="18.7318" y2="7.64072" gradientUnits="userSpaceOnUse">
<stop stop-color="#CCDCF6"/>
<stop offset="1" stop-color="white"/>
</linearGradient>
<linearGradient id="paint6_linear_3748_10458" x1="1.28488" y1="6.69697" x2="18.7318" y2="7.64072" gradientUnits="userSpaceOnUse">
<stop stop-color="#CCDCF6"/>
<stop offset="1" stop-color="white"/>
</linearGradient>
<linearGradient id="paint7_linear_3748_10458" x1="-2.56579" y1="2.85714" x2="76.9737" y2="2.85714" gradientUnits="userSpaceOnUse">
<stop stop-color="#7A9CD2"/>
<stop offset="1" stop-color="#CEDDF6"/>
</linearGradient>
<linearGradient id="paint8_linear_3748_10458" x1="-2.60526" y1="2.85714" x2="78.1579" y2="2.85714" gradientUnits="userSpaceOnUse">
<stop stop-color="#7A9CD2"/>
<stop offset="1" stop-color="#CEDDF6"/>
</linearGradient>
<linearGradient id="paint9_linear_3748_10458" x1="-2.56579" y1="2.85714" x2="76.9737" y2="2.85714" gradientUnits="userSpaceOnUse">
<stop stop-color="#7A9CD2"/>
<stop offset="1" stop-color="#CEDDF6"/>
</linearGradient>
<linearGradient id="paint10_linear_3748_10458" x1="-2.60526" y1="13.1429" x2="78.1579" y2="13.1429" gradientUnits="userSpaceOnUse">
<stop stop-color="#7A9CD2"/>
<stop offset="1" stop-color="#CEDDF6"/>
</linearGradient>
<linearGradient id="paint11_linear_3748_10458" x1="7.01744" y1="12.3636" x2="100.197" y2="27.2746" gradientUnits="userSpaceOnUse">
<stop stop-color="#CCDCF6"/>
<stop offset="1" stop-color="white"/>
</linearGradient>
<linearGradient id="paint12_linear_3748_10458" x1="-2.56579" y1="5.14286" x2="76.9737" y2="5.14286" gradientUnits="userSpaceOnUse">
<stop stop-color="#7A9CD2"/>
<stop offset="1" stop-color="#CEDDF6"/>
</linearGradient>
<linearGradient id="paint13_linear_3748_10458" x1="-2.60526" y1="5.14286" x2="78.1579" y2="5.14286" gradientUnits="userSpaceOnUse">
<stop stop-color="#7A9CD2"/>
<stop offset="1" stop-color="#CEDDF6"/>
</linearGradient>
<linearGradient id="paint14_linear_3748_10458" x1="386.043" y1="116.181" x2="446.702" y2="116.181" gradientUnits="userSpaceOnUse">
<stop stop-color="#7A9CD2"/>
<stop offset="1" stop-color="#CEDDF6"/>
</linearGradient>
<linearGradient id="paint15_linear_3748_10458" x1="386.043" y1="116.181" x2="446.702" y2="116.181" gradientUnits="userSpaceOnUse">
<stop stop-color="#7A9CD2"/>
<stop offset="1" stop-color="#CEDDF6"/>
</linearGradient>
<linearGradient id="paint16_linear_3748_10458" x1="386.043" y1="116.181" x2="446.702" y2="116.181" gradientUnits="userSpaceOnUse">
<stop stop-color="#7A9CD2"/>
<stop offset="1" stop-color="#CEDDF6"/>
</linearGradient>
<linearGradient id="paint17_linear_3748_10458" x1="100.902" y1="25.5" x2="96.0946" y2="31.4418" gradientUnits="userSpaceOnUse">
<stop stop-color="#FA8058"/>
<stop offset="1" stop-color="white"/>
<stop offset="1" stop-color="white"/>
</linearGradient>
<linearGradient id="paint18_linear_3748_10458" x1="84.9024" y1="25" x2="90.8978" y2="34.1995" gradientUnits="userSpaceOnUse">
<stop stop-color="#FA8058"/>
<stop offset="1" stop-color="white"/>
<stop offset="1" stop-color="white"/>
</linearGradient>
<linearGradient id="paint19_linear_3748_10458" x1="93.1035" y1="29.9491" x2="94.2753" y2="29.9489" gradientUnits="userSpaceOnUse">
<stop stop-color="#FA8058"/>
<stop offset="1" stop-color="white"/>
<stop offset="1" stop-color="white"/>
</linearGradient>
<linearGradient id="paint20_linear_3748_10458" x1="1.96289" y1="-0.167969" x2="2.55714" y2="4.76038" gradientUnits="userSpaceOnUse">
<stop stop-color="#FA8058"/>
<stop offset="1" stop-color="white"/>
<stop offset="1" stop-color="white"/>
</linearGradient>
<linearGradient id="paint21_linear_3748_10458" x1="2.0254" y1="0.496093" x2="2.67908" y2="5.91727" gradientUnits="userSpaceOnUse">
<stop stop-color="#FA8058"/>
<stop offset="1" stop-color="white"/>
<stop offset="1" stop-color="white"/>
</linearGradient>
<linearGradient id="paint22_linear_3748_10458" x1="84.9269" y1="21.1613" x2="86.2517" y2="28.0016" gradientUnits="userSpaceOnUse">
<stop stop-color="#FA8058"/>
<stop offset="1" stop-color="white"/>
<stop offset="1" stop-color="white"/>
</linearGradient>
<linearGradient id="paint23_linear_3748_10458" x1="68.4981" y1="42.0957" x2="74.4399" y2="46.9035" gradientUnits="userSpaceOnUse">
<stop stop-color="#FA8058"/>
<stop offset="1" stop-color="white"/>
<stop offset="1" stop-color="white"/>
</linearGradient>
<linearGradient id="paint24_linear_3748_10458" x1="67.998" y1="58.0957" x2="77.1975" y2="52.1002" gradientUnits="userSpaceOnUse">
<stop stop-color="#FA8058"/>
<stop offset="1" stop-color="white"/>
<stop offset="1" stop-color="white"/>
</linearGradient>
<linearGradient id="paint25_linear_3748_10458" x1="72.9472" y1="49.8945" x2="72.947" y2="48.7227" gradientUnits="userSpaceOnUse">
<stop stop-color="#FA8058"/>
<stop offset="1" stop-color="white"/>
<stop offset="1" stop-color="white"/>
</linearGradient>
<linearGradient id="paint26_linear_3748_10458" x1="1.96289" y1="-0.167969" x2="2.55714" y2="4.76038" gradientUnits="userSpaceOnUse">
<stop stop-color="#FA8058"/>
<stop offset="1" stop-color="white"/>
<stop offset="1" stop-color="white"/>
</linearGradient>
<linearGradient id="paint27_linear_3748_10458" x1="2.0254" y1="0.496093" x2="2.67908" y2="5.91727" gradientUnits="userSpaceOnUse">
<stop stop-color="#FA8058"/>
<stop offset="1" stop-color="white"/>
<stop offset="1" stop-color="white"/>
</linearGradient>
<linearGradient id="paint28_linear_3748_10458" x1="66.091" y1="55.6641" x2="67.4158" y2="62.5043" gradientUnits="userSpaceOnUse">
<stop stop-color="#FA8058"/>
<stop offset="1" stop-color="white"/>
<stop offset="1" stop-color="white"/>
</linearGradient>
<linearGradient id="paint29_linear_3748_10458" x1="117.543" y1="57.9043" x2="111.601" y2="53.0965" gradientUnits="userSpaceOnUse">
<stop stop-color="#FA8058"/>
<stop offset="1" stop-color="white"/>
<stop offset="1" stop-color="white"/>
</linearGradient>
<linearGradient id="paint30_linear_3748_10458" x1="118.043" y1="41.9043" x2="108.843" y2="47.8998" gradientUnits="userSpaceOnUse">
<stop stop-color="#FA8058"/>
<stop offset="1" stop-color="white"/>
<stop offset="1" stop-color="white"/>
</linearGradient>
<linearGradient id="paint31_linear_3748_10458" x1="113.094" y1="50.1055" x2="113.094" y2="51.2773" gradientUnits="userSpaceOnUse">
<stop stop-color="#FA8058"/>
<stop offset="1" stop-color="white"/>
<stop offset="1" stop-color="white"/>
</linearGradient>
<linearGradient id="paint32_linear_3748_10458" x1="1.96289" y1="-0.167969" x2="2.55714" y2="4.76038" gradientUnits="userSpaceOnUse">
<stop stop-color="#FA8058"/>
<stop offset="1" stop-color="white"/>
<stop offset="1" stop-color="white"/>
</linearGradient>
<linearGradient id="paint33_linear_3748_10458" x1="2.0254" y1="0.496093" x2="2.67908" y2="5.91727" gradientUnits="userSpaceOnUse">
<stop stop-color="#FA8058"/>
<stop offset="1" stop-color="white"/>
<stop offset="1" stop-color="white"/>
</linearGradient>
<linearGradient id="paint34_linear_3748_10458" x1="119.475" y1="39.9973" x2="120.799" y2="46.8375" gradientUnits="userSpaceOnUse">
<stop stop-color="#FA8058"/>
<stop offset="1" stop-color="white"/>
<stop offset="1" stop-color="white"/>
</linearGradient>
<linearGradient id="paint35_linear_3748_10458" x1="85.0976" y1="74.543" x2="89.9054" y2="68.6011" gradientUnits="userSpaceOnUse">
<stop stop-color="#FA8058"/>
<stop offset="1" stop-color="white"/>
<stop offset="1" stop-color="white"/>
</linearGradient>
<linearGradient id="paint36_linear_3748_10458" x1="101.098" y1="75.043" x2="95.1022" y2="65.8435" gradientUnits="userSpaceOnUse">
<stop stop-color="#FA8058"/>
<stop offset="1" stop-color="white"/>
<stop offset="1" stop-color="white"/>
</linearGradient>
<linearGradient id="paint37_linear_3748_10458" x1="92.8965" y1="70.0938" x2="91.7247" y2="70.094" gradientUnits="userSpaceOnUse">
<stop stop-color="#FA8058"/>
<stop offset="1" stop-color="white"/>
<stop offset="1" stop-color="white"/>
</linearGradient>
<linearGradient id="paint38_linear_3748_10458" x1="1.96289" y1="-0.167969" x2="2.55714" y2="4.76038" gradientUnits="userSpaceOnUse">
<stop stop-color="#FA8058"/>
<stop offset="1" stop-color="white"/>
<stop offset="1" stop-color="white"/>
</linearGradient>
<linearGradient id="paint39_linear_3748_10458" x1="2.0254" y1="0.496093" x2="2.67908" y2="5.91727" gradientUnits="userSpaceOnUse">
<stop stop-color="#FA8058"/>
<stop offset="1" stop-color="white"/>
<stop offset="1" stop-color="white"/>
</linearGradient>
<linearGradient id="paint40_linear_3748_10458" x1="100.598" y1="74.543" x2="101.922" y2="81.3832" gradientUnits="userSpaceOnUse">
<stop stop-color="#FA8058"/>
<stop offset="1" stop-color="white"/>
<stop offset="1" stop-color="white"/>
</linearGradient>
<linearGradient id="paint41_linear_3748_10458" x1="93.0254" y1="39.0273" x2="78.8763" y2="87.3736" gradientUnits="userSpaceOnUse">
<stop stop-color="#CCDCF6"/>
<stop offset="1" stop-color="white"/>
</linearGradient>
<linearGradient id="paint42_linear_3748_10458" x1="81.6444" y1="51.7411" x2="107.866" y2="51.7411" gradientUnits="userSpaceOnUse">
<stop stop-color="#7A9CD2"/>
<stop offset="1" stop-color="#CEDDF6"/>
</linearGradient>
<clipPath id="clip0_3748_10458">
<rect width="472" height="190" rx="15" fill="white"/>
</clipPath>
</defs>
</svg>
