<svg width="472" height="190" viewBox="0 0 472 190" fill="none" xmlns="http://www.w3.org/2000/svg">
<g clip-path="url(#clip0_3748_10586)">
<rect width="472" height="190" rx="15" fill="url(#paint0_linear_3748_10586)"/>
<path d="M-32.5 86.0277C5 51.861 85.9 -16.9723 109.5 -18.9723C139 -21.4723 -48 146.028 -48 158.028C-48 170.028 168.5 5.52734 188 -9.97266C207.5 -25.4727 -36 214.527 -21 219.027C-6 223.527 269 -18.9723 282.5 -18.9723C296 -18.9723 80 207.027 92 213.027C104 219.027 311 0.0273438 322.5 5.52734C334 11.0273 164 191.027 188 192.527C212 194.027 361 -0.972656 369 -0.972656C377 -0.972656 175.5 233.027 201.5 230.027C227.5 227.027 424 -9.97302 438.5 -14.4727C453 -18.9723 281.5 189.027 299.5 196.527C317.5 204.027 457 36.5273 472 38.5273C487 40.5273 357 188.527 369 192.527C378.6 195.727 456.667 141.527 494.5 114.027" stroke="#FFFDFD" stroke-width="3" stroke-linecap="round"/>
<ellipse cx="75.8213" cy="62.5013" rx="29.8017" ry="30.2748" fill="#F7F2EF"/>
<path d="M94.995 84.476C95.325 84.854 95.2914 85.4282 94.9086 85.7526C89.087 90.6864 81.6216 93.1883 74.0313 92.7252C66.1416 92.2438 58.7633 88.5982 53.5195 82.5903L66.8987 70.5391C68.9962 72.9422 71.9475 74.4004 75.1034 74.593C77.9496 74.7667 80.7519 73.898 83.0098 72.1628C83.4165 71.8502 84.003 71.8824 84.3404 72.2689L94.995 84.476Z" fill="url(#paint1_linear_3748_10586)"/>
<path d="M104.699 62.5013C105.207 62.5013 105.62 62.0899 105.604 61.5828C105.495 57.9203 104.732 54.3057 103.35 50.9157C101.852 47.2426 99.6568 43.9051 96.8894 41.0938C94.1221 38.2826 90.8368 36.0525 87.221 34.5311C83.6053 33.0096 79.73 32.2266 75.8164 32.2266L75.8164 50.3914C77.3819 50.3914 78.932 50.7047 80.3783 51.3132C81.8245 51.9218 83.1387 52.8138 84.2456 53.9383C85.3526 55.0629 86.2306 56.3978 86.8297 57.8671C87.3132 59.0529 87.6073 60.3075 87.7028 61.5835C87.7407 62.0895 88.1484 62.5013 88.6558 62.5013H104.699Z" fill="url(#paint2_linear_3748_10586)"/>
<path d="M102.362 87.9434C102.675 88.3422 103.251 88.4072 103.636 88.0749C106.954 85.212 109.617 81.6426 111.434 77.6156C113.253 73.5855 114.176 69.2024 114.144 64.7767C114.14 64.2679 113.718 63.8728 113.216 63.892L97.1722 64.5077C96.6666 64.5271 96.2744 64.96 96.2547 65.4725C96.1941 67.0508 95.8299 68.6049 95.1795 70.0462C94.5289 71.4882 93.607 72.7834 92.4688 73.8606C92.0998 74.2099 92.0309 74.7889 92.3437 75.1872L102.362 87.9434Z" fill="url(#paint3_linear_3748_10586)"/>
<path d="M46.0157 62.5026C46.0157 66.4783 46.7865 70.4151 48.2842 74.0882C49.7819 77.7613 51.977 81.0988 54.7444 83.9101C57.5117 86.7213 60.7971 88.9514 64.4128 90.4728C68.0285 91.9943 71.9038 92.7773 75.8174 92.7773L75.8174 74.6125C74.252 74.6125 72.7018 74.2992 71.2555 73.6907C69.8093 73.0821 68.4951 72.1901 67.3882 71.0656C66.2813 69.9411 65.4032 68.6061 64.8041 67.1368C64.205 65.6676 63.8967 64.0929 63.8967 62.5026L46.0157 62.5026Z" fill="url(#paint4_linear_3748_10586)"/>
<path d="M75.8213 32.2278C71.9077 32.2278 68.0324 33.0109 64.4166 34.5323C60.8009 36.0538 57.5156 38.2838 54.7483 41.0951C51.9809 43.9063 49.7857 47.2438 48.2881 50.9169C46.7904 54.59 46.0195 58.5268 46.0195 62.5026L63.9006 62.5026C63.9006 60.9123 64.2089 59.3375 64.808 57.8683C65.4071 56.3991 66.2851 55.0641 67.3921 53.9396C68.499 52.815 69.8131 51.923 71.2594 51.3145C72.7057 50.7059 74.2558 50.3926 75.8213 50.3926L75.8213 32.2278Z" fill="url(#paint5_linear_3748_10586)"/>
<path d="M365 86.2871V83.9712C365 83.5164 365.248 83.0978 365.646 82.8786L374.54 77.9867C374.914 77.7809 375.368 77.7809 375.742 77.9867L384.636 82.8786C385.035 83.0978 385.282 83.5164 385.282 83.9712V86.2871C385.282 87.214 384.307 87.8168 383.478 87.4023L375.699 83.5127C375.348 83.3372 374.935 83.3372 374.584 83.5127L366.804 87.4023C365.975 87.8168 365 87.214 365 86.2871Z" fill="url(#paint6_linear_3748_10586)"/>
<path d="M365 73.6308V71.3149C365 70.8602 365.248 70.4415 365.646 70.2224L374.54 65.3305C374.914 65.1247 375.368 65.1247 375.742 65.3305L384.636 70.2224C385.035 70.4415 385.282 70.8602 385.282 71.3149V73.6308C385.282 74.5577 384.307 75.1606 383.478 74.746L375.699 70.8565C375.348 70.681 374.935 70.681 374.584 70.8565L366.804 74.746C365.975 75.1606 365 74.5577 365 73.6308Z" fill="url(#paint7_linear_3748_10586)"/>
<path d="M62.3425 139.015L62.4261 141.33C62.4426 141.784 62.2103 142.212 61.82 142.445L53.1082 147.655C52.7418 147.874 52.2886 147.891 51.9073 147.698L42.842 143.131C42.4359 142.927 42.1734 142.517 42.1569 142.063L42.0732 139.748C42.0398 138.822 42.9928 138.184 43.8363 138.569L51.7508 142.175C52.108 142.337 52.5209 142.322 52.8653 142.134L60.4989 137.966C61.3124 137.522 62.309 138.089 62.3425 139.015Z" fill="url(#paint8_linear_3748_10586)"/>
<path d="M62.7917 151.695L62.8753 154.01C62.8918 154.464 62.6595 154.891 62.2693 155.125L53.5575 160.335C53.191 160.554 52.7378 160.57 52.3565 160.378L43.2912 155.811C42.8851 155.606 42.6226 155.197 42.6061 154.742L42.5225 152.428C42.489 151.502 43.442 150.864 44.2855 151.248L52.2001 154.854C52.5572 155.017 52.9701 155.002 53.3146 154.814L60.9481 150.646C61.7616 150.202 62.7582 150.769 62.7917 151.695Z" fill="url(#paint9_linear_3748_10586)"/>
<g filter="url(#filter0_d_3748_10586)">
<rect x="131" y="27" width="210" height="143" rx="10" fill="#FFFDFD" fill-opacity="0.8" shape-rendering="crispEdges"/>
</g>
<rect x="154.294" y="38.6494" width="167.555" height="114.95" rx="12.3393" fill="#CCDCF6" stroke="url(#paint10_linear_3748_10586)" stroke-width="1.29887"/>
<rect x="161.5" y="44.5" width="154" height="98" rx="9.24155" fill="#FFFDFD" stroke="#CCDCF6"/>
<path d="M145.52 147.106H329.506C331.565 147.106 332.806 149.389 331.686 151.117L326.634 158.91C326.155 159.648 325.335 160.094 324.454 160.094H149.853C148.909 160.094 148.04 159.583 147.582 158.759L143.25 150.966C142.287 149.235 143.539 147.106 145.52 147.106Z" fill="#A9C0E6" stroke="url(#paint11_linear_3748_10586)" stroke-width="1.29887"/>
<rect x="215.088" y="146.457" width="45.31" height="4.76228" rx="2.38114" fill="#C6D4EA"/>
<rect width="12" height="12" rx="6" transform="matrix(1 0 0 -1 169 124)" fill="url(#paint12_linear_3748_10586)"/>
<rect width="12" height="12" rx="6" transform="matrix(1 0 0 -1 218 124)" fill="url(#paint13_linear_3748_10586)"/>
<rect width="12" height="12" rx="6" transform="matrix(1 0 0 -1 268 124)" fill="url(#paint14_linear_3748_10586)"/>
<rect width="65" height="5" rx="1.40682" transform="matrix(1 0 0 -1 244 83)" fill="url(#paint15_linear_3748_10586)"/>
<rect width="36" height="5" rx="1.40682" transform="matrix(1 0 0 -1 245 98)" fill="url(#paint16_linear_3748_10586)"/>
<rect width="27" height="5" rx="1.40682" transform="matrix(1 0 0 -1 183 117)" fill="url(#paint17_linear_3748_10586)"/>
<rect width="27" height="5" rx="1.40682" transform="matrix(1 0 0 -1 233 117)" fill="url(#paint18_linear_3748_10586)"/>
<rect width="27" height="5" rx="1.40682" transform="matrix(1 0 0 -1 283 117)" fill="url(#paint19_linear_3748_10586)"/>
<rect width="28" height="5" rx="1.40682" transform="matrix(1 0 0 -1 244 90)" fill="url(#paint20_linear_3748_10586)"/>
<rect width="17" height="5" rx="1.40682" transform="matrix(1 0 0 -1 183 124)" fill="url(#paint21_linear_3748_10586)"/>
<rect width="17" height="5" rx="1.40682" transform="matrix(1 0 0 -1 233 124)" fill="url(#paint22_linear_3748_10586)"/>
<rect width="17" height="5" rx="1.40682" transform="matrix(1 0 0 -1 283 124)" fill="url(#paint23_linear_3748_10586)"/>
<rect width="66" height="39" rx="1.40682" transform="matrix(1 0 0 -1 168 106)" fill="url(#paint24_linear_3748_10586)"/>
<rect width="65" height="9" rx="1.40682" transform="matrix(1 0 0 -1 244 76)" fill="url(#paint25_linear_3748_10586)"/>
<circle opacity="0.6" cx="174.444" cy="50.4437" r="2.44369" fill="#FF5934"/>
<circle opacity="0.6" cx="184.213" cy="50.4437" r="2.44369" fill="#FBCC27"/>
<circle opacity="0.6" cx="193.993" cy="50.4437" r="2.44369" fill="#74CC5D"/>
<path d="M161 55L315 55" stroke="#CCDCF6" stroke-width="0.192871"/>
<g filter="url(#filter1_d_3748_10586)">
<rect x="329" y="124" width="85" height="58" rx="5" fill="#CCDCF6" fill-opacity="0.5" shape-rendering="crispEdges"/>
</g>
<g filter="url(#filter2_d_3748_10586)">
<rect x="325" y="129" width="93" height="49" rx="4.97326" fill="white"/>
<rect x="325.25" y="129.25" width="92.5" height="48.5" rx="4.72326" stroke="#CCDCF6" stroke-width="0.5"/>
</g>
<path d="M408.064 171.469L330.956 172.204C330.687 172.206 330.465 172.002 330.461 171.733C330.421 169.292 330.474 158.283 334.698 158.283H341.66C345.142 158.283 342.062 146.099 350.618 146.099C359.173 146.099 359.813 156.294 365.781 156.294C377.468 156.294 375.484 136.152 385.182 136.152C392.144 136.152 388.663 150.575 396.123 150.575C401.621 150.575 405.768 146.794 407.569 144.805C407.894 144.447 408.556 144.682 408.556 145.165V170.972C408.556 171.244 408.336 171.466 408.064 171.469Z" fill="url(#paint26_linear_3748_10586)" fill-opacity="0.9"/>
<path d="M401.777 155.677C406.063 155.241 407.122 152.455 411.42 152.072C412.797 151.949 411.42 171.3 411.42 171.3L330.53 172.208C330.53 172.208 328.17 155.677 338.925 155.677C347.461 155.677 347.627 162.635 353.564 162.287C356.121 162.137 356.966 160.463 359.533 160.484C362.424 160.509 363.2 162.328 365.961 162.888C378.218 165.374 371.053 144.446 383.869 144.862C393.375 145.17 392.372 156.634 401.777 155.677Z" fill="url(#paint27_linear_3748_10586)"/>
<path d="M335.443 170.285C335.443 170.285 339.493 157.508 346.935 154.221C356.153 150.149 362.154 162.111 371.896 159.535C387.911 155.298 377.716 143.611 392.139 137.395" stroke="#ECECEC" stroke-opacity="0.4" stroke-width="0.49427" stroke-linecap="round"/>
</g>
<defs>
<filter id="filter0_d_3748_10586" x="131" y="27" width="220" height="151" filterUnits="userSpaceOnUse" color-interpolation-filters="sRGB">
<feFlood flood-opacity="0" result="BackgroundImageFix"/>
<feColorMatrix in="SourceAlpha" type="matrix" values="0 0 0 0 0 0 0 0 0 0 0 0 0 0 0 0 0 0 127 0" result="hardAlpha"/>
<feOffset dx="6" dy="4"/>
<feGaussianBlur stdDeviation="2"/>
<feComposite in2="hardAlpha" operator="out"/>
<feColorMatrix type="matrix" values="0 0 0 0 0.803922 0 0 0 0 0.866667 0 0 0 0 0.964706 0 0 0 0.25 0"/>
<feBlend mode="normal" in2="BackgroundImageFix" result="effect1_dropShadow_3748_10586"/>
<feBlend mode="normal" in="SourceGraphic" in2="effect1_dropShadow_3748_10586" result="shape"/>
</filter>
<filter id="filter1_d_3748_10586" x="326.275" y="121.275" width="101.351" height="74.3511" filterUnits="userSpaceOnUse" color-interpolation-filters="sRGB">
<feFlood flood-opacity="0" result="BackgroundImageFix"/>
<feColorMatrix in="SourceAlpha" type="matrix" values="0 0 0 0 0 0 0 0 0 0 0 0 0 0 0 0 0 0 127 0" result="hardAlpha"/>
<feOffset dx="5.45037" dy="5.45037"/>
<feGaussianBlur stdDeviation="4.08778"/>
<feComposite in2="hardAlpha" operator="out"/>
<feColorMatrix type="matrix" values="0 0 0 0 0.803922 0 0 0 0 0.866667 0 0 0 0 0.964706 0 0 0 0.3 0"/>
<feBlend mode="normal" in2="BackgroundImageFix" result="effect1_dropShadow_3748_10586"/>
<feBlend mode="normal" in="SourceGraphic" in2="effect1_dropShadow_3748_10586" result="shape"/>
</filter>
<filter id="filter2_d_3748_10586" x="324.005" y="128.005" width="98.9679" height="54.9679" filterUnits="userSpaceOnUse" color-interpolation-filters="sRGB">
<feFlood flood-opacity="0" result="BackgroundImageFix"/>
<feColorMatrix in="SourceAlpha" type="matrix" values="0 0 0 0 0 0 0 0 0 0 0 0 0 0 0 0 0 0 127 0" result="hardAlpha"/>
<feOffset dx="1.9893" dy="1.9893"/>
<feGaussianBlur stdDeviation="1.49198"/>
<feComposite in2="hardAlpha" operator="out"/>
<feColorMatrix type="matrix" values="0 0 0 0 0.803922 0 0 0 0 0.866667 0 0 0 0 0.964706 0 0 0 0.3 0"/>
<feBlend mode="normal" in2="BackgroundImageFix" result="effect1_dropShadow_3748_10586"/>
<feBlend mode="normal" in="SourceGraphic" in2="effect1_dropShadow_3748_10586" result="shape"/>
</filter>
<linearGradient id="paint0_linear_3748_10586" x1="116.265" y1="2.78028e-06" x2="134.851" y2="295.431" gradientUnits="userSpaceOnUse">
<stop stop-color="#F7F2EF"/>
<stop offset="1" stop-color="white" stop-opacity="0.94"/>
</linearGradient>
<linearGradient id="paint1_linear_3748_10586" x1="95.5" y1="69.5" x2="94.1795" y2="115.397" gradientUnits="userSpaceOnUse">
<stop stop-color="#FF6634"/>
<stop offset="1" stop-color="white"/>
</linearGradient>
<linearGradient id="paint2_linear_3748_10586" x1="106" y1="32" x2="88.973" y2="77.6763" gradientUnits="userSpaceOnUse">
<stop stop-color="#7A9CD2"/>
<stop offset="1" stop-color="white"/>
</linearGradient>
<linearGradient id="paint3_linear_3748_10586" x1="101.5" y1="72.5" x2="80.3006" y2="117.168" gradientUnits="userSpaceOnUse">
<stop stop-color="#7A9CD2"/>
<stop offset="1" stop-color="white"/>
</linearGradient>
<linearGradient id="paint4_linear_3748_10586" x1="17.5" y1="125" x2="77.2592" y2="33.166" gradientUnits="userSpaceOnUse">
<stop stop-color="#FF6634"/>
<stop offset="1" stop-color="white"/>
</linearGradient>
<linearGradient id="paint5_linear_3748_10586" x1="38" y1="41" x2="79.2013" y2="71.4048" gradientUnits="userSpaceOnUse">
<stop stop-color="#CCDCF6"/>
<stop offset="1" stop-color="white"/>
</linearGradient>
<linearGradient id="paint6_linear_3748_10586" x1="393.5" y1="65.5479" x2="379.879" y2="107.256" gradientUnits="userSpaceOnUse">
<stop stop-color="#FF6634"/>
<stop offset="1" stop-color="white"/>
</linearGradient>
<linearGradient id="paint7_linear_3748_10586" x1="393.5" y1="52.8916" x2="379.879" y2="94.6" gradientUnits="userSpaceOnUse">
<stop stop-color="#FF6634"/>
<stop offset="1" stop-color="white"/>
</linearGradient>
<linearGradient id="paint8_linear_3748_10586" x1="63.2345" y1="141.531" x2="38.4314" y2="142.428" gradientUnits="userSpaceOnUse">
<stop stop-color="#7A9CD2"/>
<stop offset="1" stop-color="#CEDDF6"/>
</linearGradient>
<linearGradient id="paint9_linear_3748_10586" x1="63.6838" y1="154.211" x2="38.8807" y2="155.107" gradientUnits="userSpaceOnUse">
<stop stop-color="#7A9CD2"/>
<stop offset="1" stop-color="#CEDDF6"/>
</linearGradient>
<linearGradient id="paint10_linear_3748_10586" x1="170.334" y1="97.8859" x2="440.028" y2="162.394" gradientUnits="userSpaceOnUse">
<stop offset="0.0129121" stop-color="#9FB7DF"/>
<stop offset="0.368785" stop-color="#A3BBE1"/>
<stop offset="0.877685" stop-color="#CCDCF6"/>
<stop offset="1" stop-color="white"/>
</linearGradient>
<linearGradient id="paint11_linear_3748_10586" x1="93" y1="173.5" x2="407.898" y2="192.233" gradientUnits="userSpaceOnUse">
<stop stop-color="#BFD0EB"/>
<stop offset="0.259993" stop-color="#BFD0EB"/>
<stop offset="0.545" stop-color="#C7D4EB"/>
<stop offset="1" stop-color="white"/>
</linearGradient>
<linearGradient id="paint12_linear_3748_10586" x1="1.18605" y1="6.18181" x2="17.2909" y2="7.05297" gradientUnits="userSpaceOnUse">
<stop stop-color="#CCDCF6"/>
<stop offset="1" stop-color="white"/>
</linearGradient>
<linearGradient id="paint13_linear_3748_10586" x1="1.18605" y1="6.18181" x2="17.2909" y2="7.05297" gradientUnits="userSpaceOnUse">
<stop stop-color="#CCDCF6"/>
<stop offset="1" stop-color="white"/>
</linearGradient>
<linearGradient id="paint14_linear_3748_10586" x1="1.18605" y1="6.18181" x2="17.2909" y2="7.05297" gradientUnits="userSpaceOnUse">
<stop stop-color="#CCDCF6"/>
<stop offset="1" stop-color="white"/>
</linearGradient>
<linearGradient id="paint15_linear_3748_10586" x1="-2.56579" y1="2.85714" x2="76.9737" y2="2.85714" gradientUnits="userSpaceOnUse">
<stop stop-color="#7A9CD2"/>
<stop offset="1" stop-color="#CEDDF6"/>
</linearGradient>
<linearGradient id="paint16_linear_3748_10586" x1="3.55814" y1="2.57576" x2="45.6319" y2="18.9622" gradientUnits="userSpaceOnUse">
<stop stop-color="#CCDCF6"/>
<stop offset="1" stop-color="white"/>
</linearGradient>
<linearGradient id="paint17_linear_3748_10586" x1="-1.06579" y1="2.85714" x2="31.9737" y2="2.85714" gradientUnits="userSpaceOnUse">
<stop stop-color="#7A9CD2"/>
<stop offset="1" stop-color="#CEDDF6"/>
</linearGradient>
<linearGradient id="paint18_linear_3748_10586" x1="-1.06579" y1="2.85714" x2="31.9737" y2="2.85714" gradientUnits="userSpaceOnUse">
<stop stop-color="#7A9CD2"/>
<stop offset="1" stop-color="#CEDDF6"/>
</linearGradient>
<linearGradient id="paint19_linear_3748_10586" x1="-1.06579" y1="2.85714" x2="31.9737" y2="2.85714" gradientUnits="userSpaceOnUse">
<stop stop-color="#7A9CD2"/>
<stop offset="1" stop-color="#CEDDF6"/>
</linearGradient>
<linearGradient id="paint20_linear_3748_10586" x1="2.76744" y1="2.57576" x2="37.2877" y2="13.0326" gradientUnits="userSpaceOnUse">
<stop stop-color="#CCDCF6"/>
<stop offset="1" stop-color="white"/>
</linearGradient>
<linearGradient id="paint21_linear_3748_10586" x1="1.68023" y1="2.57576" x2="23.8135" y2="6.64641" gradientUnits="userSpaceOnUse">
<stop stop-color="#CCDCF6"/>
<stop offset="1" stop-color="white"/>
</linearGradient>
<linearGradient id="paint22_linear_3748_10586" x1="1.68023" y1="2.57576" x2="23.8135" y2="6.64641" gradientUnits="userSpaceOnUse">
<stop stop-color="#CCDCF6"/>
<stop offset="1" stop-color="white"/>
</linearGradient>
<linearGradient id="paint23_linear_3748_10586" x1="1.68023" y1="2.57576" x2="23.8135" y2="6.64641" gradientUnits="userSpaceOnUse">
<stop stop-color="#CCDCF6"/>
<stop offset="1" stop-color="white"/>
</linearGradient>
<linearGradient id="paint24_linear_3748_10586" x1="-2.60526" y1="22.2857" x2="78.1579" y2="22.2857" gradientUnits="userSpaceOnUse">
<stop stop-color="#7A9CD2"/>
<stop offset="1" stop-color="#CEDDF6"/>
</linearGradient>
<linearGradient id="paint25_linear_3748_10586" x1="-2.56579" y1="5.14286" x2="76.9737" y2="5.14286" gradientUnits="userSpaceOnUse">
<stop stop-color="#7A9CD2"/>
<stop offset="1" stop-color="#CEDDF6"/>
</linearGradient>
<linearGradient id="paint26_linear_3748_10586" x1="372.301" y1="136.144" x2="372.301" y2="172.197" gradientUnits="userSpaceOnUse">
<stop stop-color="#7A9CD2"/>
<stop offset="1" stop-color="#CEDDF6"/>
</linearGradient>
<linearGradient id="paint27_linear_3748_10586" x1="290.632" y1="145.156" x2="391.672" y2="199.082" gradientUnits="userSpaceOnUse">
<stop stop-color="#FF6634"/>
<stop offset="1" stop-color="white"/>
</linearGradient>
<clipPath id="clip0_3748_10586">
<rect width="472" height="190" rx="15" fill="white"/>
</clipPath>
</defs>
</svg>
