<svg width="472" height="190" viewBox="0 0 472 190" fill="none" xmlns="http://www.w3.org/2000/svg">
<g clip-path="url(#clip0_3748_10632)">
<rect width="472" height="190" rx="15" fill="url(#paint0_linear_3748_10632)"/>
<path d="M-15.5 85.0277C22 50.861 102.9 -17.9723 126.5 -19.9723C156 -22.4723 -31 145.028 -31 157.028C-31 169.028 185.5 4.52734 205 -10.9727C224.5 -26.4727 -19 213.527 -4 218.027C11 222.527 286 -19.9723 299.5 -19.9723C313 -19.9723 97 206.027 109 212.027C121 218.027 328 -0.972656 339.5 4.52734C351 10.0273 181 190.027 205 191.527C229 193.027 378 -1.97266 386 -1.97266C394 -1.97266 192.5 232.027 218.5 229.027C244.5 226.027 441 -10.973 455.5 -15.4727C470 -19.9723 298.5 188.027 316.5 195.527C334.5 203.027 474 35.5273 489 37.5273C504 39.5273 374 187.527 386 191.527C395.6 194.727 473.667 140.527 511.5 113.027" stroke="#FFFDFD" stroke-width="3" stroke-linecap="round"/>
<g filter="url(#filter0_d_3748_10632)">
<rect x="132" y="23" width="210" height="146" rx="10" fill="#FFFDFD" fill-opacity="0.8" shape-rendering="crispEdges"/>
</g>
<rect x="153.294" y="34.6494" width="167.555" height="114.95" rx="12.3393" fill="#CCDCF6" stroke="url(#paint1_linear_3748_10632)" stroke-width="1.29887"/>
<rect x="160.5" y="40.5" width="154" height="98" rx="9.24155" fill="#FFFDFD" stroke="#CCDCF6"/>
<path d="M144.52 143.106H328.506C330.565 143.106 331.806 145.389 330.686 147.117L325.634 154.91C325.155 155.648 324.335 156.094 323.454 156.094H148.853C147.909 156.094 147.04 155.583 146.582 154.759L142.25 146.966C141.287 145.235 142.539 143.106 144.52 143.106Z" fill="#A9C0E6" stroke="url(#paint2_linear_3748_10632)" stroke-width="1.29887"/>
<rect x="214.088" y="142.457" width="45.31" height="4.76228" rx="2.38114" fill="#C6D4EA"/>
<rect x="174" y="64" width="56" height="55" rx="7" fill="url(#paint3_linear_3748_10632)"/>
<rect width="30" height="8" rx="1.40682" transform="matrix(1 0 0 -1 237 98)" fill="url(#paint4_linear_3748_10632)"/>
<rect width="65" height="5" rx="1.40682" transform="matrix(1 0 0 -1 237 80)" fill="url(#paint5_linear_3748_10632)"/>
<rect width="65" height="5" rx="1.40682" transform="matrix(1 0 0 -1 237 87)" fill="url(#paint6_linear_3748_10632)"/>
<rect width="71" height="5" rx="1.40682" transform="matrix(1 0 0 -1 237 112)" fill="url(#paint7_linear_3748_10632)"/>
<rect width="65" height="9" rx="1.40682" transform="matrix(1 0 0 -1 237 73)" fill="url(#paint8_linear_3748_10632)"/>
<rect x="85.7179" y="82.7179" width="86.1538" height="54.5641" rx="6.46154" fill="#FFFDFD" stroke="#CCDCF6" stroke-width="1.4359"/>
<rect x="92.8965" y="124.359" width="35.1795" height="2.87179" rx="1.4359" fill="url(#paint9_linear_3748_10632)"/>
<rect x="113" y="129.387" width="15.0769" height="2.87179" rx="1.4359" fill="url(#paint10_linear_3748_10632)"/>
<rect x="86.4336" y="94.207" width="84.7179" height="10.7692" fill="url(#paint11_linear_3748_10632)"/>
<rect x="87.877" y="108.562" width="17.9487" height="5.02564" rx="0.717949" fill="url(#paint12_linear_3748_10632)"/>
<rect x="87.877" y="116.465" width="5.02564" height="1.4359" rx="0.717949" fill="#CCDCF6"/>
<rect x="109.412" y="116.465" width="5.02564" height="1.4359" rx="0.717949" fill="#CCDCF6"/>
<rect x="130.227" y="116.465" width="5.02564" height="1.4359" rx="0.717949" fill="#CCDCF6"/>
<rect x="151.768" y="116.465" width="5.02564" height="1.4359" rx="0.717949" fill="#CCDCF6"/>
<rect x="94.3359" y="116.465" width="5.02564" height="1.4359" rx="0.717949" fill="#CCDCF6"/>
<rect x="115.871" y="116.465" width="5.02564" height="1.4359" rx="0.717949" fill="#CCDCF6"/>
<rect x="136.695" y="116.465" width="5.02564" height="1.4359" rx="0.717949" fill="#CCDCF6"/>
<rect x="158.232" y="116.465" width="5.02564" height="1.4359" rx="0.717949" fill="#CCDCF6"/>
<rect x="100.799" y="116.465" width="5.02564" height="1.4359" rx="0.717949" fill="#CCDCF6"/>
<rect x="122.336" y="116.465" width="5.02564" height="1.4359" rx="0.717949" fill="#CCDCF6"/>
<rect x="143.154" y="116.465" width="5.02564" height="1.4359" rx="0.717949" fill="#CCDCF6"/>
<rect x="164.691" y="116.465" width="5.02564" height="1.4359" rx="0.717949" fill="#CCDCF6"/>
<rect x="109.412" y="108.562" width="17.9487" height="5.02564" rx="0.717949" fill="url(#paint13_linear_3748_10632)"/>
<rect x="130.227" y="108.562" width="17.9487" height="5.02564" rx="0.717949" fill="url(#paint14_linear_3748_10632)"/>
<rect x="151.768" y="108.562" width="17.9487" height="5.02564" rx="0.717949" fill="url(#paint15_linear_3748_10632)"/>
<rect x="156.793" y="124.359" width="7.89744" height="7.89744" rx="3.94872" fill="url(#paint16_linear_3748_10632)"/>
<circle cx="76.5" cy="55.5" r="4.52941" stroke="url(#paint17_linear_3748_10632)" stroke-width="1.94118"/>
<path d="M99.4712 55.5018C100.007 55.5018 100.442 55.0673 100.442 54.5312C100.442 53.9952 100.007 53.5607 99.4712 53.5607V55.5018ZM81.3535 55.5018H99.4712V53.5607H81.3535V55.5018Z" fill="url(#paint18_linear_3748_10632)"/>
<path d="M89.7656 57.7656H99.4715" stroke="url(#paint19_linear_3748_10632)" stroke-width="1.94118" stroke-linecap="round"/>
<path d="M382.901 44H376.586C375.158 44 374 45.1577 374 46.5859V52.5141" stroke="url(#paint20_linear_3748_10632)" stroke-width="1.72393" stroke-linecap="round"/>
<path d="M382.901 81.9258H376.586C375.158 81.9258 374 80.768 374 79.3399V73.4117" stroke="url(#paint21_linear_3748_10632)" stroke-width="1.72393" stroke-linecap="round"/>
<path d="M404.747 44H411.063C412.491 44 413.648 45.1577 413.648 46.5859V52.5141" stroke="url(#paint22_linear_3748_10632)" stroke-width="1.72393" stroke-linecap="round"/>
<path d="M404.747 81.9258H411.063C412.491 81.9258 413.648 80.768 413.648 79.3399V73.4117" stroke="url(#paint23_linear_3748_10632)" stroke-width="1.72393" stroke-linecap="round"/>
<path d="M392.622 74.0488C390.608 71.8911 388.865 68.6832 389.254 65.7206C389.441 64.2966 390.113 62.9014 391.362 62.0513C392.347 61.3815 393.913 60.8035 395.142 60.9015C396.046 60.9737 397.219 61.1361 397.973 61.6617C398.567 62.0756 399.223 62.7558 399.559 63.378C399.916 64.0379 400.112 64.7456 400.322 65.4553C400.409 65.7473 400.528 66.0428 400.528 66.3469" stroke="url(#paint24_linear_3748_10632)" stroke-width="1.72393" stroke-linecap="round"/>
<path d="M398.217 75.5952C398.135 75.5865 398.073 75.5049 398.007 75.4628C397.407 75.0796 396.659 74.9119 396.038 74.5481C394.757 73.7984 393.701 72.613 393.065 71.3136C392.4 69.9545 392.156 68.3409 392.113 66.8506C392.086 65.9324 392.409 64.5816 393.39 64.1679C394.17 63.8392 395.264 63.9081 395.912 64.4474C396.765 65.157 397.15 66.1435 397.633 67.0811C398.044 67.8787 398.559 68.733 399.348 69.244C400.183 69.7838 401.237 69.6025 402.037 69.087C404.499 67.5011 403.993 64.1089 402.6 62.0247C401.612 60.5462 400.166 59.6737 398.585 58.849C396.722 57.8773 394.272 57.5327 392.2 57.9981C389.984 58.4957 388.08 59.8099 386.5 61.3233C385.201 62.5673 384.436 64.0392 384.352 65.8207C384.288 67.1757 384.612 68.6681 384.969 69.9747C385.046 70.2576 385.273 71.154 385.635 71.2695" stroke="url(#paint25_linear_3748_10632)" stroke-width="1.72393" stroke-linecap="round"/>
<path d="M394.055 66.3008C394.055 66.4617 394.095 66.6199 394.149 66.7721C394.397 67.4703 394.713 68.1681 395.052 68.8328C395.723 70.1532 396.619 71.4235 398.034 72.1373C399.125 72.6873 400.419 73.2119 401.667 73.2651C402.112 73.2841 402.517 73.1417 402.956 73.1417" stroke="url(#paint26_linear_3748_10632)" stroke-width="1.72393" stroke-linecap="round"/>
<path d="M382.727 60.8874C382.842 60.821 382.9 60.7083 382.983 60.6072C383.485 59.9919 384.021 59.4005 384.59 58.8441C385.42 58.0339 386.339 57.2908 387.343 56.6992C388.451 56.0462 389.481 55.4741 390.736 55.1147C392.008 54.7501 393.311 54.6303 394.631 54.7279C397.225 54.9196 399.706 56.0345 401.873 57.3786C402.828 57.9707 403.641 58.7619 404.575 59.3698" stroke="url(#paint27_linear_3748_10632)" stroke-width="1.72393" stroke-linecap="round"/>
<path d="M384.344 54.6982C385.02 54.1272 385.921 53.6592 386.699 53.2151C387.655 52.6691 388.612 52.1856 389.648 51.785C391.583 51.0367 393.646 50.6301 395.73 50.9245C397.505 51.1752 399.259 51.8661 400.821 52.6936C401.543 53.0758 402.204 53.615 402.955 53.9194" stroke="url(#paint28_linear_3748_10632)" stroke-width="1.72393" stroke-linecap="round"/>
<path d="M51.9592 139H47.0217C45.9052 139 45 139.905 45 141.022V145.657" stroke="url(#paint29_linear_3748_10632)" stroke-width="1.34783" stroke-linecap="round"/>
<path d="M51.9592 168.652H47.0217C45.9052 168.652 45 167.747 45 166.631V161.996" stroke="url(#paint30_linear_3748_10632)" stroke-width="1.34783" stroke-linecap="round"/>
<path d="M69.0408 139H73.9783C75.0948 139 76 139.905 76 141.022V145.657" stroke="url(#paint31_linear_3748_10632)" stroke-width="1.34783" stroke-linecap="round"/>
<path d="M69.0408 168.652H73.9783C75.0948 168.652 76 167.747 76 166.631V161.996" stroke="url(#paint32_linear_3748_10632)" stroke-width="1.34783" stroke-linecap="round"/>
<path d="M59.5589 162.491C57.9845 160.804 56.6216 158.296 56.9256 155.979C57.0717 154.866 57.5969 153.775 58.5738 153.111C59.3436 152.587 60.5683 152.135 61.529 152.212C62.2362 152.268 63.1528 152.395 63.7424 152.806C64.2067 153.13 64.7196 153.661 64.9825 154.148C65.2614 154.664 65.4147 155.217 65.5791 155.772C65.6467 156 65.74 156.231 65.74 156.469" stroke="url(#paint33_linear_3748_10632)" stroke-width="1.34783" stroke-linecap="round"/>
<path d="M63.9342 163.7C63.8701 163.693 63.8216 163.629 63.7701 163.596C63.3009 163.297 62.7166 163.165 62.2307 162.881C61.2292 162.295 60.4037 161.368 59.9066 160.352C59.3866 159.29 59.196 158.028 59.1619 156.863C59.1409 156.145 59.3932 155.089 60.1608 154.765C60.7706 154.508 61.6259 154.562 62.1326 154.984C62.7993 155.539 63.1 156.31 63.4778 157.043C63.7993 157.667 64.2018 158.335 64.8191 158.734C65.4713 159.156 66.2954 159.014 66.921 158.611C68.8459 157.371 68.4506 154.719 67.3614 153.09C66.5887 151.934 65.4586 151.252 64.2225 150.607C62.766 149.847 60.8504 149.578 59.2299 149.942C57.4977 150.331 56.0093 151.358 54.7738 152.541C53.7584 153.514 53.1604 154.665 53.0943 156.058C53.044 157.117 53.2976 158.284 53.5767 159.305C53.6372 159.526 53.8145 160.227 54.0972 160.318" stroke="url(#paint34_linear_3748_10632)" stroke-width="1.34783" stroke-linecap="round"/>
<path d="M60.6797 156.438C60.6797 156.563 60.7114 156.687 60.7537 156.806C60.9476 157.352 61.1947 157.897 61.4591 158.417C61.9842 159.449 62.6845 160.443 63.7912 161.001C64.6438 161.431 65.6557 161.841 66.6312 161.882C66.979 161.897 67.2962 161.786 67.6389 161.786" stroke="url(#paint35_linear_3748_10632)" stroke-width="1.34783" stroke-linecap="round"/>
<path d="M51.8242 152.201C51.9146 152.149 51.9602 152.061 52.0247 151.981C52.4175 151.5 52.836 151.038 53.2814 150.603C53.9301 149.97 54.6484 149.389 55.4335 148.926C56.3001 148.416 57.105 147.968 58.0859 147.687C59.081 147.402 60.0993 147.309 61.1314 147.385C63.1597 147.535 65.0991 148.406 66.7935 149.457C67.5398 149.92 68.1757 150.539 68.9059 151.014" stroke="url(#paint36_linear_3748_10632)" stroke-width="1.34783" stroke-linecap="round"/>
<path d="M53.0879 147.366C53.6163 146.919 54.3211 146.553 54.9291 146.206C55.6769 145.779 56.4252 145.401 57.2351 145.088C58.748 144.503 60.3606 144.185 61.9901 144.415C63.3779 144.611 64.7495 145.151 65.9705 145.798C66.5345 146.097 67.052 146.519 67.6389 146.757" stroke="url(#paint37_linear_3748_10632)" stroke-width="1.34783" stroke-linecap="round"/>
<path d="M381.731 112.867V110.825C381.731 106.504 378.227 103 373.905 103V103C369.584 103 366.08 106.504 366.08 110.825V112.867" stroke="url(#paint38_linear_3748_10632)" stroke-width="1.0207"/>
<rect x="362" y="112.184" width="23.8164" height="23.8164" rx="2.38164" fill="url(#paint39_linear_3748_10632)"/>
<path fill-rule="evenodd" clip-rule="evenodd" d="M374.924 125.639C376.307 125.206 377.311 123.916 377.311 122.391C377.311 120.512 375.787 118.988 373.908 118.988C372.029 118.988 370.506 120.512 370.506 122.391C370.506 123.912 371.505 125.201 372.883 125.636V130.222C372.883 130.786 373.34 131.243 373.904 131.243C374.467 131.243 374.924 130.786 374.924 130.222V125.639Z" fill="url(#paint40_linear_3748_10632)"/>
<circle opacity="0.6" cx="173.444" cy="46.4437" r="2.44369" fill="#FF5934"/>
<circle opacity="0.6" cx="183.213" cy="46.4437" r="2.44369" fill="#FBCC27"/>
<circle opacity="0.6" cx="192.993" cy="46.4437" r="2.44369" fill="#74CC5D"/>
<path d="M160 51L314 51" stroke="#CCDCF6" stroke-width="0.192871"/>
</g>
<defs>
<filter id="filter0_d_3748_10632" x="132" y="23" width="220" height="154" filterUnits="userSpaceOnUse" color-interpolation-filters="sRGB">
<feFlood flood-opacity="0" result="BackgroundImageFix"/>
<feColorMatrix in="SourceAlpha" type="matrix" values="0 0 0 0 0 0 0 0 0 0 0 0 0 0 0 0 0 0 127 0" result="hardAlpha"/>
<feOffset dx="6" dy="4"/>
<feGaussianBlur stdDeviation="2"/>
<feComposite in2="hardAlpha" operator="out"/>
<feColorMatrix type="matrix" values="0 0 0 0 0.803922 0 0 0 0 0.866667 0 0 0 0 0.964706 0 0 0 0.25 0"/>
<feBlend mode="normal" in2="BackgroundImageFix" result="effect1_dropShadow_3748_10632"/>
<feBlend mode="normal" in="SourceGraphic" in2="effect1_dropShadow_3748_10632" result="shape"/>
</filter>
<linearGradient id="paint0_linear_3748_10632" x1="236" y1="0" x2="236" y2="411.549" gradientUnits="userSpaceOnUse">
<stop stop-color="#E0E9F9"/>
<stop offset="1" stop-color="white"/>
</linearGradient>
<linearGradient id="paint1_linear_3748_10632" x1="169.334" y1="93.8859" x2="439.028" y2="158.394" gradientUnits="userSpaceOnUse">
<stop offset="0.0129121" stop-color="#9FB7DF"/>
<stop offset="0.368785" stop-color="#A3BBE1"/>
<stop offset="0.877685" stop-color="#CCDCF6"/>
<stop offset="1" stop-color="white"/>
</linearGradient>
<linearGradient id="paint2_linear_3748_10632" x1="92" y1="169.5" x2="406.898" y2="188.233" gradientUnits="userSpaceOnUse">
<stop stop-color="#BFD0EB"/>
<stop offset="0.259993" stop-color="#BFD0EB"/>
<stop offset="0.545" stop-color="#C7D4EB"/>
<stop offset="1" stop-color="white"/>
</linearGradient>
<linearGradient id="paint3_linear_3748_10632" x1="179.535" y1="92.3333" x2="254.683" y2="96.4722" gradientUnits="userSpaceOnUse">
<stop stop-color="#CCDCF6"/>
<stop offset="1" stop-color="white"/>
</linearGradient>
<linearGradient id="paint4_linear_3748_10632" x1="2.96512" y1="4.12121" x2="41.7491" y2="11.9885" gradientUnits="userSpaceOnUse">
<stop stop-color="#CCDCF6"/>
<stop offset="1" stop-color="white"/>
</linearGradient>
<linearGradient id="paint5_linear_3748_10632" x1="-2.56579" y1="2.85714" x2="76.9737" y2="2.85714" gradientUnits="userSpaceOnUse">
<stop stop-color="#7A9CD2"/>
<stop offset="1" stop-color="#CEDDF6"/>
</linearGradient>
<linearGradient id="paint6_linear_3748_10632" x1="-2.56579" y1="2.85714" x2="76.9737" y2="2.85714" gradientUnits="userSpaceOnUse">
<stop stop-color="#7A9CD2"/>
<stop offset="1" stop-color="#CEDDF6"/>
</linearGradient>
<linearGradient id="paint7_linear_3748_10632" x1="-2.80263" y1="2.85714" x2="84.0789" y2="2.85714" gradientUnits="userSpaceOnUse">
<stop stop-color="#7A9CD2"/>
<stop offset="1" stop-color="#CEDDF6"/>
</linearGradient>
<linearGradient id="paint8_linear_3748_10632" x1="-2.56579" y1="5.14286" x2="76.9737" y2="5.14286" gradientUnits="userSpaceOnUse">
<stop stop-color="#7A9CD2"/>
<stop offset="1" stop-color="#CEDDF6"/>
</linearGradient>
<linearGradient id="paint9_linear_3748_10632" x1="92.8965" y1="124.975" x2="134.11" y2="125.647" gradientUnits="userSpaceOnUse">
<stop stop-color="#FA8058"/>
<stop offset="1" stop-color="white"/>
<stop offset="1" stop-color="white"/>
</linearGradient>
<linearGradient id="paint10_linear_3748_10632" x1="113" y1="130.002" x2="130.667" y2="130.126" gradientUnits="userSpaceOnUse">
<stop stop-color="#FA8058"/>
<stop offset="1" stop-color="white"/>
<stop offset="1" stop-color="white"/>
</linearGradient>
<linearGradient id="paint11_linear_3748_10632" x1="94.8069" y1="99.7548" x2="191.354" y2="140.839" gradientUnits="userSpaceOnUse">
<stop stop-color="#CCDCF6"/>
<stop offset="1" stop-color="white"/>
</linearGradient>
<linearGradient id="paint12_linear_3748_10632" x1="87.1685" y1="111.434" x2="109.132" y2="111.434" gradientUnits="userSpaceOnUse">
<stop stop-color="#7A9CD2"/>
<stop offset="1" stop-color="#CEDDF6"/>
</linearGradient>
<linearGradient id="paint13_linear_3748_10632" x1="108.704" y1="111.434" x2="130.667" y2="111.434" gradientUnits="userSpaceOnUse">
<stop stop-color="#7A9CD2"/>
<stop offset="1" stop-color="#CEDDF6"/>
</linearGradient>
<linearGradient id="paint14_linear_3748_10632" x1="129.518" y1="111.434" x2="151.482" y2="111.434" gradientUnits="userSpaceOnUse">
<stop stop-color="#7A9CD2"/>
<stop offset="1" stop-color="#CEDDF6"/>
</linearGradient>
<linearGradient id="paint15_linear_3748_10632" x1="151.059" y1="111.434" x2="173.023" y2="111.434" gradientUnits="userSpaceOnUse">
<stop stop-color="#7A9CD2"/>
<stop offset="1" stop-color="#CEDDF6"/>
</linearGradient>
<linearGradient id="paint16_linear_3748_10632" x1="156.793" y1="126.052" x2="166.047" y2="126.064" gradientUnits="userSpaceOnUse">
<stop stop-color="#FA8058"/>
<stop offset="1" stop-color="white"/>
<stop offset="1" stop-color="white"/>
</linearGradient>
<linearGradient id="paint17_linear_3748_10632" x1="80" y1="54" x2="57.3122" y2="60.7357" gradientUnits="userSpaceOnUse">
<stop stop-color="#FA8058"/>
<stop offset="1" stop-color="white"/>
<stop offset="1" stop-color="white"/>
</linearGradient>
<linearGradient id="paint18_linear_3748_10632" x1="81.3535" y1="54.7455" x2="102.572" y2="55.2572" gradientUnits="userSpaceOnUse">
<stop stop-color="#FA8058"/>
<stop offset="1" stop-color="white"/>
<stop offset="1" stop-color="white"/>
</linearGradient>
<linearGradient id="paint19_linear_3748_10632" x1="89.7656" y1="57.9799" x2="101.137" y2="58.1268" gradientUnits="userSpaceOnUse">
<stop stop-color="#FA8058"/>
<stop offset="1" stop-color="white"/>
<stop offset="1" stop-color="white"/>
</linearGradient>
<linearGradient id="paint20_linear_3748_10632" x1="371.867" y1="40.3908" x2="387.495" y2="52.0364" gradientUnits="userSpaceOnUse">
<stop stop-color="#FF6634"/>
<stop offset="0.215941" stop-color="#FF8962"/>
<stop offset="1" stop-color="white"/>
</linearGradient>
<linearGradient id="paint21_linear_3748_10632" x1="371.867" y1="85.535" x2="387.495" y2="73.8894" gradientUnits="userSpaceOnUse">
<stop stop-color="#FF6634"/>
<stop offset="0.215941" stop-color="#FF8962"/>
<stop offset="1" stop-color="white"/>
</linearGradient>
<linearGradient id="paint22_linear_3748_10632" x1="415.781" y1="40.3908" x2="400.154" y2="52.0364" gradientUnits="userSpaceOnUse">
<stop stop-color="#FF6634"/>
<stop offset="0.215941" stop-color="#FF8962"/>
<stop offset="1" stop-color="white"/>
</linearGradient>
<linearGradient id="paint23_linear_3748_10632" x1="415.781" y1="85.535" x2="400.154" y2="73.8894" gradientUnits="userSpaceOnUse">
<stop stop-color="#FF6634"/>
<stop offset="0.215941" stop-color="#FF8962"/>
<stop offset="1" stop-color="white"/>
</linearGradient>
<linearGradient id="paint24_linear_3748_10632" x1="386.485" y1="55.3127" x2="408.956" y2="69.1033" gradientUnits="userSpaceOnUse">
<stop stop-color="#FF6634"/>
<stop offset="0.215941" stop-color="#FF8962"/>
<stop offset="1" stop-color="white"/>
</linearGradient>
<linearGradient id="paint25_linear_3748_10632" x1="379.691" y1="50.2464" x2="412.738" y2="75.9445" gradientUnits="userSpaceOnUse">
<stop stop-color="#FF6634"/>
<stop offset="0.215941" stop-color="#FF8962"/>
<stop offset="1" stop-color="white"/>
</linearGradient>
<linearGradient id="paint26_linear_3748_10632" x1="391.922" y1="63.3478" x2="405.207" y2="75.4478" gradientUnits="userSpaceOnUse">
<stop stop-color="#FF6634"/>
<stop offset="0.215941" stop-color="#FF8962"/>
<stop offset="1" stop-color="white"/>
</linearGradient>
<linearGradient id="paint27_linear_3748_10632" x1="377.492" y1="52.0704" x2="385.636" y2="72.553" gradientUnits="userSpaceOnUse">
<stop stop-color="#FF6634"/>
<stop offset="0.215941" stop-color="#FF8962"/>
<stop offset="1" stop-color="white"/>
</linearGradient>
<linearGradient id="paint28_linear_3748_10632" x1="379.885" y1="49.1876" x2="383.87" y2="62.8502" gradientUnits="userSpaceOnUse">
<stop stop-color="#FF6634"/>
<stop offset="0.215941" stop-color="#FF8962"/>
<stop offset="1" stop-color="white"/>
</linearGradient>
<linearGradient id="paint29_linear_3748_10632" x1="81.7283" y1="139" x2="29.5" y2="149.783" gradientUnits="userSpaceOnUse">
<stop stop-color="#CCDCF6"/>
<stop offset="1" stop-color="#7A9CD2"/>
</linearGradient>
<linearGradient id="paint30_linear_3748_10632" x1="76" y1="142.37" x2="48.4796" y2="161.996" gradientUnits="userSpaceOnUse">
<stop stop-color="#CCDCF6"/>
<stop offset="1" stop-color="#7A9CD2"/>
</linearGradient>
<linearGradient id="paint31_linear_3748_10632" x1="76" y1="140.348" x2="47.6957" y2="167.978" gradientUnits="userSpaceOnUse">
<stop stop-color="#CCDCF6"/>
<stop offset="1" stop-color="#7A9CD2"/>
</linearGradient>
<linearGradient id="paint32_linear_3748_10632" x1="82.0652" y1="152.478" x2="57.1304" y2="175.055" gradientUnits="userSpaceOnUse">
<stop stop-color="#CCDCF6"/>
<stop offset="1" stop-color="#7A9CD2"/>
</linearGradient>
<linearGradient id="paint33_linear_3748_10632" x1="86.1085" y1="164.27" x2="46.0107" y2="157.868" gradientUnits="userSpaceOnUse">
<stop stop-color="#CCDCF6"/>
<stop offset="1" stop-color="#7A9CD2"/>
</linearGradient>
<linearGradient id="paint34_linear_3748_10632" x1="97.2292" y1="163.933" x2="34.2183" y2="145.738" gradientUnits="userSpaceOnUse">
<stop stop-color="#CCDCF6"/>
<stop offset="1" stop-color="#7A9CD2"/>
</linearGradient>
<linearGradient id="paint35_linear_3748_10632" x1="72.6311" y1="156.522" x2="71.9572" y2="168.315" gradientUnits="userSpaceOnUse">
<stop stop-color="#CCDCF6"/>
<stop offset="1" stop-color="#7A9CD2"/>
</linearGradient>
<linearGradient id="paint36_linear_3748_10632" x1="69.5987" y1="147.76" x2="51.0661" y2="152.477" gradientUnits="userSpaceOnUse">
<stop stop-color="#CCDCF6"/>
<stop offset="1" stop-color="#7A9CD2"/>
</linearGradient>
<linearGradient id="paint37_linear_3748_10632" x1="69.2618" y1="144.392" x2="51.4031" y2="145.74" gradientUnits="userSpaceOnUse">
<stop offset="0.0353433" stop-color="#CCDCF6"/>
<stop offset="0.604694" stop-color="#7A9CD2"/>
</linearGradient>
<linearGradient id="paint38_linear_3748_10632" x1="362.33" y1="98.8173" x2="381.088" y2="120.025" gradientUnits="userSpaceOnUse">
<stop stop-color="#FF6634"/>
<stop offset="0.215941" stop-color="#FF8962"/>
<stop offset="1" stop-color="white"/>
</linearGradient>
<linearGradient id="paint39_linear_3748_10632" x1="373.908" y1="112.184" x2="373.908" y2="136" gradientUnits="userSpaceOnUse">
<stop stop-color="#CCDCF6"/>
<stop offset="1" stop-color="#7A9CD2"/>
</linearGradient>
<linearGradient id="paint40_linear_3748_10632" x1="374.759" y1="124.69" x2="372.207" y2="132.771" gradientUnits="userSpaceOnUse">
<stop stop-color="#6D8CC0"/>
<stop offset="1" stop-color="#D0DDF3"/>
</linearGradient>
<clipPath id="clip0_3748_10632">
<rect width="472" height="190" rx="15" fill="white"/>
</clipPath>
</defs>
</svg>
