<svg width="600" height="80" viewBox="0 0 600 80" fill="none" xmlns="http://www.w3.org/2000/svg">
  <!-- SVG1 -->
  <path d="M4 11C124.194 1.28008 244.623 3.55313 365 6.73612" stroke="#FF6634" stroke-width="8" stroke-linecap="round"/>
  <!-- SVG2 -->
  <path d="M240 15.8366C315.407 12.3739 391.377 14.8706 466.834 14.8706C497.609 14.8706 528.386 14.7548 559.161 14.9242C567.877 14.9722 593.845 14.0559 585.297 15.7829C580.59 16.734 574.751 16.1224 569.998 16.3732C555.286 17.1497 540.59 18.0544 525.906 19.2712C495.343 21.804 465.416 26.8765 435.173 31.8292C426.741 33.2099 418.311 34.5966 409.886 36.0151C406.309 36.6174 397.061 36.2388 399.421 39.0205C400.934 40.8033 406.32 40.6673 408.08 40.7378C425.64 41.4411 443.469 40.6216 460.99 39.5571C499.2 37.2357 537.462 33.331 575.629 30.3265" stroke="#FF6634" stroke-width="8" stroke-linecap="round"/>
  <!-- SVG3 -->
  <path d="M445 47.5817C453.32 47.5817 463.021 44.8615 470.755 43.5853C558.435 29.1163 645.794 22.5648 734.698 20.6724C753.105 20.2805 776.678 18.6114 795.621 22.6706C796.66 22.8932 802.346 23.6519 803.081 25.3793C805.117 30.1623 747.181 42.1715 745.977 42.4308C709.557 50.2756 673.795 57.4447 638.428 69.3402C631.751 71.5858 624.558 73.7204 618.179 76.8446C616.314 77.758 622.329 77.439 624.396 77.2443C668.214 73.1165 711.809 67.0485 755.568 62.413C808.111 56.8471 859.867 54.9115 912.584 55.5747" stroke="#FF6634" stroke-width="9" stroke-linecap="round"/>
</svg>
