<svg width="400" height="" viewBox="0 0 715 92" fill="none" xmlns="http://www.w3.org/2000/svg">
<path d="M5 15.7541C48.0199 23.2842 92.1442 22.8301 135.556 22.9235C211.693 23.0874 287.786 20.8165 363.9 19.0401C428.352 17.5358 493.201 17.2464 557.429 10.0783C572.153 8.43512 616.378 5 601.588 5C552.452 5 503.254 7.82697 454.841 18.2186C424.026 24.8328 393.298 33.5925 363.26 43.9836C355.188 46.7759 349.877 48.7952 342.461 52.1239C340.626 52.9472 337.363 52.9738 337.213 55.2605C337.088 57.1463 450.775 55.2835 458.361 55.3352C543.727 55.9166 626.682 66.0295 710 87" stroke="#FF6634" stroke-width="8" stroke-linecap="round"/>
</svg>
