<svg width="478" height="67" viewBox="0 0 478 67" fill="none" xmlns="http://www.w3.org/2000/svg">
<path d="M5 32.5817C13.3201 32.5817 23.0211 29.8615 30.7549 28.5853C118.435 14.1163 205.794 7.56481 294.698 5.67236C313.105 5.28054 336.678 3.61135 355.621 7.67058C356.66 7.89321 362.346 8.6519 363.081 10.3793C365.117 15.1623 307.181 27.1715 305.977 27.4308C269.557 35.2756 233.795 42.4447 198.428 54.3402C191.751 56.5858 184.558 58.7204 178.179 61.8446C176.314 62.758 182.329 62.439 184.396 62.2443C228.214 58.1165 271.809 52.0485 315.568 47.413C368.111 41.8471 419.867 39.9115 472.584 40.5747" stroke="#FF6634" stroke-width="9" stroke-linecap="round"/>
</svg>
