<svg width="300" height="64" viewBox="0 0 536 64" fill="none" xmlns="http://www.w3.org/2000/svg">
<path d="M4.33984 15.6535C9.5 20.5 15.7976 22.425 22.1128 23.3593C53.2824 27.9705 83.644 25.9936 114.879 22.8851C159.028 18.4913 203.108 13.3915 247.309 9.60741C282.859 6.56391 320.543 1.48511 356.222 5.45816C361.179 6.01013 374.683 8.15018 364.35 13.7567C355.942 18.3187 346.519 20.5855 337.474 23.0036C316.988 28.4805 296.424 33.6172 275.919 39.008C257.299 43.903 232.627 46.3791 216.206 58.0946C212.4 60.8098 225.21 59.8591 229.753 59.7543C257.105 59.123 284.377 56.5773 311.682 54.8937C385.309 50.3539 458.438 50.5135 532.001 55.1308" stroke="#FF6634" stroke-width="8" stroke-linecap="round"/>
</svg>
