<svg width="270" height="35" viewBox="0 0 355 35" fill="none" xmlns="http://www.w3.org/2000/svg">
<path d="M4 5.83658C79.4065 2.37393 155.377 4.87058 230.834 4.87058C261.609 4.87058 292.386 4.75482 323.161 4.92425C331.877 4.97224 357.845 4.05592 349.297 5.78291C344.59 6.73396 338.751 6.1224 333.998 6.37324C319.286 7.14965 304.59 8.05437 289.906 9.27123C259.343 11.804 229.416 16.8765 199.173 21.8292C190.741 23.2099 182.311 24.5966 173.886 26.0151C170.309 26.6174 161.061 26.2388 163.421 29.0205C164.934 30.8033 170.32 30.6673 172.08 30.7378C189.64 31.4411 207.469 30.6216 224.99 29.5571C263.2 27.2357 301.462 23.331 339.629 20.3265" stroke="#FF6634" stroke-width="8" stroke-linecap="round"/>
</svg>
