<svg width="49" height="49" viewBox="0 0 49 49" fill="none" xmlns="http://www.w3.org/2000/svg">
<circle cx="24.5" cy="24.5" r="24.5" fill="#FF6634" fill-opacity="0.5"/>
<circle cx="24.5" cy="24.5" r="19.5" fill="#FF6634" fill-opacity="0.8"/>
<circle cx="24" cy="24" r="15" fill="#FF6634" fill-opacity="0.9"/>
<path d="M19.1997 29.1672C18.2774 29.1672 17.4614 28.9392 16.7519 28.4831C16.0525 28.0168 15.5052 27.3732 15.1099 26.5522C14.7247 25.721 14.5321 24.7632 14.5321 23.6786C14.5321 22.584 14.7247 21.6261 15.1099 20.8051C15.5052 19.9841 16.0525 19.3455 16.7519 18.8894C17.4614 18.4232 18.2774 18.19 19.1997 18.19C20.1322 18.19 20.9482 18.4232 21.6475 18.8894C22.3571 19.3455 22.9044 19.9841 23.2896 20.8051C23.6849 21.6261 23.8825 22.584 23.8825 23.6786C23.8825 24.7632 23.6849 25.721 23.2896 26.5522C22.9044 27.3732 22.3571 28.0168 21.6475 28.4831C20.9482 28.9392 20.1322 29.1672 19.1997 29.1672ZM19.1997 27.358C19.7471 27.358 20.2184 27.211 20.6137 26.9171C21.009 26.6231 21.3131 26.1974 21.5259 25.6399C21.7489 25.0825 21.8604 24.4287 21.8604 23.6786C21.8604 22.9185 21.7489 22.2647 21.5259 21.7173C21.3131 21.1599 21.009 20.7342 20.6137 20.4402C20.2184 20.1463 19.7471 19.9993 19.1997 19.9993C18.6625 19.9993 18.1963 20.1463 17.801 20.4402C17.4057 20.7342 17.0965 21.1599 16.8735 21.7173C16.6607 22.2647 16.5543 22.9185 16.5543 23.6786C16.5543 24.4287 16.6607 25.0825 16.8735 25.6399C17.0965 26.1974 17.4057 26.6231 17.801 26.9171C18.1963 27.211 18.6625 27.358 19.1997 27.358ZM30.8242 29V26.5066H24.8186V24.8341L30.5049 18.3573H32.9071V24.7581H34.2146V26.5066H32.9071V29H30.8242ZM27.2208 24.7581H30.8242V20.6683L27.2208 24.7581Z" fill="#F7F2EF"/>
</svg>
