<svg width="49" height="49" viewBox="0 0 49 49" fill="none" xmlns="http://www.w3.org/2000/svg">
<circle cx="24.5" cy="24.5" r="24.5" fill="#FF6634" fill-opacity="0.5"/>
<circle cx="24.5" cy="24.5" r="19.5" fill="#FF6634" fill-opacity="0.8"/>
<circle cx="24" cy="24" r="15" fill="#FF6634" fill-opacity="0.9"/>
<path d="M20.1997 29.1672C19.2774 29.1672 18.4614 28.9392 17.7519 28.4831C17.0525 28.0168 16.5052 27.3732 16.1099 26.5522C15.7247 25.721 15.5321 24.7632 15.5321 23.6786C15.5321 22.584 15.7247 21.6261 16.1099 20.8051C16.5052 19.9841 17.0525 19.3455 17.7519 18.8894C18.4614 18.4232 19.2774 18.19 20.1997 18.19C21.1322 18.19 21.9482 18.4232 22.6475 18.8894C23.3571 19.3455 23.9044 19.9841 24.2896 20.8051C24.6849 21.6261 24.8825 22.584 24.8825 23.6786C24.8825 24.7632 24.6849 25.721 24.2896 26.5522C23.9044 27.3732 23.3571 28.0168 22.6475 28.4831C21.9482 28.9392 21.1322 29.1672 20.1997 29.1672ZM20.1997 27.358C20.7471 27.358 21.2184 27.211 21.6137 26.9171C22.009 26.6231 22.3131 26.1974 22.5259 25.6399C22.7489 25.0825 22.8604 24.4287 22.8604 23.6786C22.8604 22.9185 22.7489 22.2647 22.5259 21.7173C22.3131 21.1599 22.009 20.7342 21.6137 20.4402C21.2184 20.1463 20.7471 19.9993 20.1997 19.9993C19.6625 19.9993 19.1963 20.1463 18.801 20.4402C18.4057 20.7342 18.0965 21.1599 17.8735 21.7173C17.6607 22.2647 17.5543 22.9185 17.5543 23.6786C17.5543 24.4287 17.6607 25.0825 17.8735 25.6399C18.0965 26.1974 18.4057 26.6231 18.801 26.9171C19.1963 27.211 19.6625 27.358 20.1997 27.358ZM25.8562 29V27.5708L30.2957 23.0705C30.5085 22.8475 30.6758 22.6397 30.7974 22.4471C30.9292 22.2545 31.0204 22.067 31.0711 21.8846C31.1319 21.692 31.1623 21.4994 31.1623 21.3068C31.1623 20.9115 30.9951 20.5821 30.6606 20.3186C30.3362 20.0551 29.9207 19.9233 29.4139 19.9233C28.9273 19.9233 28.4763 20.0246 28.0607 20.2274C27.6451 20.4199 27.189 20.7544 26.6924 21.2308L25.5673 19.8625C26.1653 19.305 26.7887 18.8894 27.4374 18.6158C28.0861 18.332 28.7652 18.19 29.4747 18.19C30.1943 18.19 30.8278 18.3167 31.3752 18.5701C31.9225 18.8235 32.3482 19.1732 32.6523 19.6192C32.9564 20.0652 33.1084 20.5872 33.1084 21.1852C33.1084 21.5298 33.0577 21.8542 32.9564 22.1583C32.8651 22.4623 32.7131 22.7715 32.5002 23.0857C32.2874 23.3898 32.0036 23.7192 31.6488 24.0739L28.4256 27.3124L33.2756 27.2972V29H25.8562Z" fill="#F7F2EF"/>
</svg>
