<svg width="49" height="49" viewBox="0 0 49 49" fill="none" xmlns="http://www.w3.org/2000/svg">
<circle cx="24.5" cy="24.5" r="24.5" fill="#FF6634" fill-opacity="0.5"/>
<circle cx="24.5" cy="24.5" r="19.5" fill="#FF6634" fill-opacity="0.8"/>
<circle cx="24" cy="24" r="15" fill="#FF6634" fill-opacity="0.9"/>
<path d="M21.1997 29.1672C20.2774 29.1672 19.4614 28.9392 18.7519 28.4831C18.0525 28.0168 17.5052 27.3732 17.1099 26.5522C16.7247 25.721 16.5321 24.7632 16.5321 23.6786C16.5321 22.584 16.7247 21.6261 17.1099 20.8051C17.5052 19.9841 18.0525 19.3455 18.7519 18.8894C19.4614 18.4232 20.2774 18.19 21.1997 18.19C22.1322 18.19 22.9482 18.4232 23.6475 18.8894C24.3571 19.3455 24.9044 19.9841 25.2896 20.8051C25.6849 21.6261 25.8825 22.584 25.8825 23.6786C25.8825 24.7632 25.6849 25.721 25.2896 26.5522C24.9044 27.3732 24.3571 28.0168 23.6475 28.4831C22.9482 28.9392 22.1322 29.1672 21.1997 29.1672ZM21.1997 27.358C21.7471 27.358 22.2184 27.211 22.6137 26.9171C23.009 26.6231 23.3131 26.1974 23.5259 25.6399C23.7489 25.0825 23.8604 24.4287 23.8604 23.6786C23.8604 22.9185 23.7489 22.2647 23.5259 21.7173C23.3131 21.1599 23.009 20.7342 22.6137 20.4402C22.2184 20.1463 21.7471 19.9993 21.1997 19.9993C20.6625 19.9993 20.1963 20.1463 19.801 20.4402C19.4057 20.7342 19.0965 21.1599 18.8735 21.7173C18.6607 22.2647 18.5543 22.9185 18.5543 23.6786C18.5543 24.4287 18.6607 25.0825 18.8735 25.6399C19.0965 26.1974 19.4057 26.6231 19.801 26.9171C20.1963 27.211 20.6625 27.358 21.1997 27.358ZM28.7658 29V20.4706L26.6829 21.3372V19.5128L29.526 18.3573H30.8487V29H28.7658Z" fill="#F7F2EF"/>
</svg>
