<svg width="49" height="49" viewBox="0 0 49 49" fill="none" xmlns="http://www.w3.org/2000/svg">
<circle cx="24.5" cy="24.5" r="24.5" fill="#FF6634" fill-opacity="0.5"/>
<circle cx="24.5" cy="24.5" r="19.5" fill="#FF6634" fill-opacity="0.8"/>
<circle cx="24" cy="24" r="15" fill="#FF6634" fill-opacity="0.9"/>
<path d="M19.1997 29.1672C18.2774 29.1672 17.4614 28.9392 16.7519 28.4831C16.0525 28.0168 15.5052 27.3732 15.1099 26.5522C14.7247 25.721 14.5321 24.7632 14.5321 23.6786C14.5321 22.584 14.7247 21.6261 15.1099 20.8051C15.5052 19.9841 16.0525 19.3455 16.7519 18.8894C17.4614 18.4232 18.2774 18.19 19.1997 18.19C20.1322 18.19 20.9482 18.4232 21.6475 18.8894C22.3571 19.3455 22.9044 19.9841 23.2896 20.8051C23.6849 21.6261 23.8825 22.584 23.8825 23.6786C23.8825 24.7632 23.6849 25.721 23.2896 26.5522C22.9044 27.3732 22.3571 28.0168 21.6475 28.4831C20.9482 28.9392 20.1322 29.1672 19.1997 29.1672ZM19.1997 27.358C19.7471 27.358 20.2184 27.211 20.6137 26.9171C21.009 26.6231 21.3131 26.1974 21.5259 25.6399C21.7489 25.0825 21.8604 24.4287 21.8604 23.6786C21.8604 22.9185 21.7489 22.2647 21.5259 21.7173C21.3131 21.1599 21.009 20.7342 20.6137 20.4402C20.2184 20.1463 19.7471 19.9993 19.1997 19.9993C18.6625 19.9993 18.1963 20.1463 17.801 20.4402C17.4057 20.7342 17.0965 21.1599 16.8735 21.7173C16.6607 22.2647 16.5543 22.9185 16.5543 23.6786C16.5543 24.4287 16.6607 25.0825 16.8735 25.6399C17.0965 26.1974 17.4057 26.6231 17.801 26.9171C18.1963 27.211 18.6625 27.358 19.1997 27.358ZM28.9541 29.1672C28.1331 29.1672 27.3678 29.0253 26.6583 28.7415C25.9589 28.4476 25.371 28.0371 24.8946 27.51L26.2326 26.2633C26.638 26.6991 27.0384 27.0032 27.4337 27.1755C27.8391 27.3377 28.3358 27.4188 28.9237 27.4188C29.3494 27.4188 29.7193 27.358 30.0336 27.2364C30.3579 27.1046 30.6062 26.9221 30.7785 26.689C30.961 26.4559 31.0522 26.1873 31.0522 25.8832C31.0522 25.5994 30.9813 25.3561 30.8394 25.1534C30.6975 24.9507 30.5049 24.7936 30.2616 24.6821C30.0183 24.5605 29.7295 24.4997 29.395 24.4997H28.057V22.8576H29.2125C29.6889 22.8576 30.064 22.736 30.3376 22.4927C30.6113 22.2393 30.7481 21.8947 30.7481 21.4589C30.7481 21.1751 30.667 20.9217 30.5049 20.6987C30.3427 20.4656 30.1197 20.2831 29.8359 20.1513C29.5622 20.0196 29.248 19.9537 28.8933 19.9537C28.3662 19.9537 27.9101 20.0449 27.5249 20.2274C27.1499 20.4098 26.7546 20.7342 26.339 21.2004L24.9859 19.9537C25.4825 19.3962 26.0755 18.9654 26.7647 18.6614C27.4641 18.3472 28.199 18.19 28.9693 18.19C29.7092 18.19 30.363 18.3218 30.9306 18.5853C31.4982 18.8387 31.9442 19.1935 32.2685 19.6496C32.5929 20.1057 32.755 20.6277 32.755 21.2156C32.755 21.7832 32.5675 22.29 32.1925 22.736C31.8175 23.1718 31.3309 23.4759 30.7329 23.6482C31.4424 23.7901 32.005 24.0739 32.4206 24.4997C32.8463 24.9254 33.0591 25.4372 33.0591 26.0352C33.0591 26.6333 32.8817 27.1705 32.527 27.6469C32.1722 28.1232 31.6857 28.4983 31.0674 28.7719C30.4593 29.0355 29.7548 29.1672 28.9541 29.1672Z" fill="#F7F2EF"/>
</svg>
